NotoSansTamil-CondensedBold.ufo
<glyph name="exclam.tamil" format="2">
  <advance width="293"/>
  <unicode hex="0021"/>
  <outline>
    <contour>
      <point x="76" y="253" type="line"/>
      <point x="217" y="253" type="line"/>
      <point x="240" y="714" type="line"/>
      <point x="52" y="714" type="line"/>
    </contour>
    <contour>
      <point x="146" y="-12" type="curve" smooth="yes"/>
      <point x="202" y="-12"/>
      <point x="237" y="22"/>
      <point x="237" y="81" type="curve" smooth="yes"/>
      <point x="237" y="141"/>
      <point x="204" y="176"/>
      <point x="146" y="176" type="curve" smooth="yes"/>
      <point x="85" y="176"/>
      <point x="53" y="141"/>
      <point x="53" y="81" type="curve" smooth="yes"/>
      <point x="53" y="22"/>
      <point x="89" y="-12"/>
    </contour>
  </outline>
</glyph>
<glyph name="quotedbl.tamil" format="2">
  <advance width="499"/>
  <unicode hex="0022"/>
  <outline>
    <contour>
      <point x="75" y="542" type="line"/>
      <point x="204" y="542" type="line"/>
      <point x="224" y="800" type="line"/>
      <point x="55" y="800" type="line"/>
    </contour>
    <contour>
      <point x="295" y="542" type="line"/>
      <point x="424" y="542" type="line"/>
      <point x="444" y="800" type="line"/>
      <point x="275" y="800" type="line"/>
    </contour>
  </outline>
</glyph>
<glyph name="numbersign.tamil" format="2">
  <advance width="570"/>
  <unicode hex="0023"/>
  <outline>
    <contour>
      <point x="63" y="0" type="line"/>
      <point x="180" y="0" type="line"/>
      <point x="216" y="192" type="line"/>
      <point x="290" y="192" type="line"/>
      <point x="254" y="0" type="line"/>
      <point x="371" y="0" type="line"/>
      <point x="407" y="192" type="line"/>
      <point x="517" y="192" type="line"/>
      <point x="517" y="305" type="line"/>
      <point x="429" y="305" type="line"/>
      <point x="449" y="409" type="line"/>
      <point x="540" y="409" type="line"/>
      <point x="540" y="522" type="line"/>
      <point x="470" y="522" type="line"/>
      <point x="507" y="714" type="line"/>
      <point x="390" y="714" type="line"/>
      <point x="353" y="522" type="line"/>
      <point x="279" y="522" type="line"/>
      <point x="316" y="714" type="line"/>
      <point x="199" y="714" type="line"/>
      <point x="162" y="522" type="line"/>
      <point x="53" y="522" type="line"/>
      <point x="53" y="409" type="line"/>
      <point x="141" y="409" type="line"/>
      <point x="121" y="305" type="line"/>
      <point x="30" y="305" type="line"/>
      <point x="30" y="192" type="line"/>
      <point x="99" y="192" type="line"/>
    </contour>
    <contour>
      <point x="238" y="305" type="line"/>
      <point x="258" y="409" type="line"/>
      <point x="332" y="409" type="line"/>
      <point x="312" y="305" type="line"/>
    </contour>
  </outline>
</glyph>
<glyph name="asterisk.tamil" format="2">
  <advance width="544"/>
  <unicode hex="002A"/>
  <outline>
    <contour>
      <point x="343" y="800" type="line"/>
      <point x="201" y="800" type="line"/>
      <point x="219" y="635" type="line"/>
      <point x="56" y="682" type="line"/>
      <point x="35" y="546" type="line"/>
      <point x="182" y="534" type="line"/>
      <point x="85" y="404" type="line"/>
      <point x="212" y="341" type="line"/>
      <point x="270" y="472" type="line"/>
      <point x="337" y="340" type="line"/>
      <point x="459" y="404" type="line"/>
      <point x="362" y="534" type="line"/>
      <point x="509" y="544" type="line"/>
      <point x="492" y="682" type="line"/>
      <point x="325" y="635" type="line"/>
    </contour>
  </outline>
</glyph>
<glyph name="hyphen.tamil" format="2">
  <advance width="338"/>
  <unicode hex="002D"/>
  <outline>
    <contour>
      <point x="36" y="235" type="line"/>
      <point x="302" y="235" type="line"/>
      <point x="302" y="380" type="line"/>
      <point x="36" y="380" type="line"/>
    </contour>
  </outline>
</glyph>
<glyph name="one.tamil" format="2">
  <advance width="496"/>
  <unicode hex="0031"/>
  <outline>
    <contour>
      <point x="397" y="0" type="line"/>
      <point x="397" y="714" type="line"/>
      <point x="246" y="714" type="line"/>
      <point x="34" y="486" type="line"/>
      <point x="135" y="389" type="line"/>
      <point x="196" y="456" type="line" smooth="yes"/>
      <point x="210" y="472"/>
      <point x="222" y="487"/>
      <point x="231" y="501" type="curve"/>
      <point x="230" y="463"/>
      <point x="229" y="421"/>
      <point x="229" y="375" type="curve" smooth="yes"/>
      <point x="229" y="0" type="line"/>
    </contour>
  </outline>
</glyph>
<glyph name="six.tamil" format="2">
  <advance width="496"/>
  <unicode hex="0036"/>
  <outline>
    <contour>
      <point x="256" y="-10" type="curve" smooth="yes"/>
      <point x="389" y="-10"/>
      <point x="468" y="89"/>
      <point x="468" y="244" type="curve" smooth="yes"/>
      <point x="468" y="390"/>
      <point x="408" y="476"/>
      <point x="306" y="476" type="curve" smooth="yes"/>
      <point x="253" y="476"/>
      <point x="212" y="448"/>
      <point x="189" y="393" type="curve"/>
      <point x="185" y="393" type="line"/>
      <point x="189" y="526"/>
      <point x="241" y="579"/>
      <point x="346" y="579" type="curve" smooth="yes"/>
      <point x="376" y="579"/>
      <point x="405" y="576"/>
      <point x="432" y="570" type="curve"/>
      <point x="432" y="716" type="line"/>
      <point x="398" y="721"/>
      <point x="364" y="724"/>
      <point x="330" y="724" type="curve" smooth="yes"/>
      <point x="89" y="724"/>
      <point x="31" y="516"/>
      <point x="31" y="314" type="curve" smooth="yes"/>
      <point x="31" y="106"/>
      <point x="117" y="-10"/>
    </contour>
    <contour>
      <point x="250" y="134" type="curve" smooth="yes"/>
      <point x="216" y="134"/>
      <point x="195" y="179"/>
      <point x="195" y="252" type="curve" smooth="yes"/>
      <point x="195" y="299"/>
      <point x="218" y="336"/>
      <point x="251" y="336" type="curve" smooth="yes"/>
      <point x="288" y="336"/>
      <point x="304" y="304"/>
      <point x="304" y="241" type="curve" smooth="yes"/>
      <point x="304" y="162"/>
      <point x="282" y="134"/>
    </contour>
  </outline>
</glyph>
<glyph name="seven.tamil" format="2">
  <advance width="496"/>
  <unicode hex="0037"/>
  <outline>
    <contour>
      <point x="85" y="0" type="line"/>
      <point x="263" y="0" type="line"/>
      <point x="463" y="599" type="line"/>
      <point x="463" y="714" type="line"/>
      <point x="28" y="714" type="line"/>
      <point x="28" y="566" type="line"/>
      <point x="292" y="566" type="line"/>
    </contour>
  </outline>
</glyph>
<glyph name="eight.tamil" format="2">
  <advance width="496"/>
  <unicode hex="0038"/>
  <outline>
    <contour>
      <point x="246" y="-10" type="curve" smooth="yes"/>
      <point x="384" y="-10"/>
      <point x="468" y="63"/>
      <point x="468" y="190" type="curve" smooth="yes"/>
      <point x="468" y="259"/>
      <point x="435" y="318"/>
      <point x="350" y="376" type="curve"/>
      <point x="418" y="418"/>
      <point x="450" y="474"/>
      <point x="450" y="550" type="curve" smooth="yes"/>
      <point x="450" y="661"/>
      <point x="376" y="724"/>
      <point x="248" y="724" type="curve" smooth="yes"/>
      <point x="124" y="724"/>
      <point x="46" y="661"/>
      <point x="46" y="551" type="curve" smooth="yes"/>
      <point x="46" y="481"/>
      <point x="75" y="424"/>
      <point x="138" y="373" type="curve"/>
      <point x="57" y="321"/>
      <point x="28" y="264"/>
      <point x="28" y="188" type="curve" smooth="yes"/>
      <point x="28" y="61"/>
      <point x="107" y="-10"/>
    </contour>
    <contour>
      <point x="247" y="123" type="curve" smooth="yes"/>
      <point x="208" y="123"/>
      <point x="189" y="148"/>
      <point x="189" y="191" type="curve" smooth="yes"/>
      <point x="189" y="228"/>
      <point x="204" y="259"/>
      <point x="245" y="291" type="curve"/>
      <point x="255" y="283" type="line" smooth="yes"/>
      <point x="298" y="246"/>
      <point x="306" y="218"/>
      <point x="306" y="187" type="curve" smooth="yes"/>
      <point x="306" y="144"/>
      <point x="287" y="123"/>
    </contour>
    <contour>
      <point x="246" y="459" type="curve"/>
      <point x="222" y="483"/>
      <point x="206" y="508"/>
      <point x="206" y="542" type="curve" smooth="yes"/>
      <point x="206" y="571"/>
      <point x="222" y="591"/>
      <point x="249" y="591" type="curve" smooth="yes"/>
      <point x="274" y="591"/>
      <point x="290" y="573"/>
      <point x="290" y="541" type="curve" smooth="yes"/>
      <point x="290" y="508"/>
      <point x="277" y="485"/>
    </contour>
  </outline>
</glyph>
<glyph name="nine.tamil" format="2">
  <advance width="496"/>
  <unicode hex="0039"/>
  <outline>
    <contour>
      <point x="165" y="-10" type="curve" smooth="yes"/>
      <point x="393" y="-10"/>
      <point x="465" y="186"/>
      <point x="465" y="404" type="curve" smooth="yes"/>
      <point x="465" y="608"/>
      <point x="377" y="724"/>
      <point x="238" y="724" type="curve" smooth="yes"/>
      <point x="106" y="724"/>
      <point x="28" y="626"/>
      <point x="28" y="470" type="curve" smooth="yes"/>
      <point x="28" y="326"/>
      <point x="87" y="238"/>
      <point x="189" y="238" type="curve" smooth="yes"/>
      <point x="241" y="238"/>
      <point x="283" y="266"/>
      <point x="306" y="321" type="curve"/>
      <point x="311" y="321" type="line"/>
      <point x="307" y="187"/>
      <point x="252" y="135"/>
      <point x="149" y="135" type="curve" smooth="yes"/>
      <point x="119" y="135"/>
      <point x="90" y="138"/>
      <point x="63" y="145" type="curve"/>
      <point x="63" y="-1" type="line"/>
      <point x="96" y="-7"/>
      <point x="130" y="-10"/>
    </contour>
    <contour>
      <point x="244" y="378" type="curve" smooth="yes"/>
      <point x="212" y="378"/>
      <point x="192" y="406"/>
      <point x="192" y="473" type="curve" smooth="yes"/>
      <point x="192" y="551"/>
      <point x="215" y="580"/>
      <point x="245" y="580" type="curve" smooth="yes"/>
      <point x="296" y="580"/>
      <point x="301" y="494"/>
      <point x="301" y="462" type="curve" smooth="yes"/>
      <point x="301" y="430"/>
      <point x="287" y="378"/>
    </contour>
  </outline>
</glyph>
<glyph name="greater.tamil" format="2">
  <advance width="496"/>
  <unicode hex="003E"/>
  <outline>
    <contour>
      <point x="34" y="115" type="line"/>
      <point x="462" y="316" type="line"/>
      <point x="462" y="406" type="line"/>
      <point x="34" y="606" type="line"/>
      <point x="34" y="461" type="line"/>
      <point x="275" y="361" type="line"/>
      <point x="34" y="259" type="line"/>
    </contour>
  </outline>
</glyph>
<glyph name="question.tamil" format="2">
  <advance width="431"/>
  <unicode hex="003F"/>
  <outline>
    <contour>
      <point x="208" y="724" type="curve" smooth="yes"/>
      <point x="147" y="724"/>
      <point x="91" y="706"/>
      <point x="30" y="673" type="curve"/>
      <point x="90" y="550" type="line"/>
      <point x="117" y="565"/>
      <point x="155" y="579"/>
      <point x="185" y="579" type="curve" smooth="yes"/>
      <point x="225" y="579"/>
      <point x="249" y="561"/>
      <point x="249" y="526" type="curve" smooth="yes"/>
      <point x="249" y="488"/>
      <point x="227" y="463"/>
      <point x="190" y="428" type="curve" smooth="yes"/>
      <point x="144" y="384"/>
      <point x="126" y="348"/>
      <point x="126" y="276" type="curve" smooth="yes"/>
      <point x="126" y="253" type="line"/>
      <point x="263" y="253" type="line"/>
      <point x="263" y="263" type="line" smooth="yes"/>
      <point x="263" y="290"/>
      <point x="269" y="311"/>
      <point x="306" y="345" type="curve" smooth="yes"/>
      <point x="377" y="411"/>
      <point x="408" y="468"/>
      <point x="408" y="551" type="curve" smooth="yes"/>
      <point x="408" y="655"/>
      <point x="339" y="724"/>
    </contour>
    <contour>
      <point x="195" y="-12" type="curve" smooth="yes"/>
      <point x="253" y="-12"/>
      <point x="286" y="22"/>
      <point x="286" y="81" type="curve" smooth="yes"/>
      <point x="286" y="141"/>
      <point x="254" y="176"/>
      <point x="195" y="176" type="curve" smooth="yes"/>
      <point x="135" y="176"/>
      <point x="102" y="141"/>
      <point x="102" y="81" type="curve" smooth="yes"/>
      <point x="102" y="22"/>
      <point x="138" y="-12"/>
    </contour>
  </outline>
</glyph>
<glyph name="bracketleft.tamil" format="2">
  <advance width="348"/>
  <unicode hex="005B"/>
  <outline>
    <contour>
      <point x="62" y="-244" type="line"/>
      <point x="313" y="-244" type="line"/>
      <point x="313" y="-120" type="line"/>
      <point x="212" y="-120" type="line"/>
      <point x="212" y="676" type="line"/>
      <point x="313" y="676" type="line"/>
      <point x="313" y="800" type="line"/>
      <point x="62" y="800" type="line"/>
    </contour>
  </outline>
</glyph>
<glyph name="backslash.tamil" format="2">
  <advance width="450"/>
  <unicode hex="005C"/>
  <outline>
    <contour>
      <point x="280" y="-244" type="line"/>
      <point x="433" y="-244" type="line"/>
      <point x="170" y="800" type="line"/>
      <point x="17" y="800" type="line"/>
    </contour>
  </outline>
</glyph>
<glyph name="underscore.tamil" format="2">
  <advance width="394"/>
  <unicode hex="005F"/>
  <outline>
    <contour>
      <point x="-2" y="-162" type="line"/>
      <point x="396" y="-162" type="line"/>
      <point x="396" y="-90" type="line"/>
      <point x="-2" y="-90" type="line"/>
    </contour>
  </outline>
</glyph>
<glyph name="bar.tamil" format="2">
  <advance width="551"/>
  <unicode hex="007C"/>
  <outline>
    <contour>
      <point x="210" y="-244" type="line"/>
      <point x="341" y="-244" type="line"/>
      <point x="341" y="800" type="line"/>
      <point x="210" y="800" type="line"/>
    </contour>
  </outline>
</glyph>
<glyph name="uni00B2" format="2">
  <advance width="312"/>
  <unicode hex="00B2"/>
  <outline>
    <contour>
      <point x="15" y="369" type="line"/>
      <point x="296" y="369" type="line"/>
      <point x="296" y="469" type="line"/>
      <point x="157" y="469" type="line"/>
      <point x="202" y="518" type="line" smooth="yes"/>
      <point x="278" y="601"/>
      <point x="295" y="633"/>
      <point x="295" y="692" type="curve" smooth="yes"/>
      <point x="295" y="757"/>
      <point x="247" y="808"/>
      <point x="164" y="808" type="curve" smooth="yes"/>
      <point x="107" y="808"/>
      <point x="62" y="789"/>
      <point x="21" y="761" type="curve"/>
      <point x="66" y="680" type="line"/>
      <point x="90" y="698"/>
      <point x="113" y="709"/>
      <point x="135" y="709" type="curve" smooth="yes"/>
      <point x="159" y="709"/>
      <point x="174" y="696"/>
      <point x="174" y="670" type="curve" smooth="yes"/>
      <point x="174" y="641"/>
      <point x="154" y="611"/>
      <point x="93" y="543" type="curve" smooth="yes"/>
      <point x="15" y="457" type="line"/>
    </contour>
  </outline>
</glyph>
<glyph name="uni00B3" format="2">
  <advance width="312"/>
  <unicode hex="00B3"/>
  <outline>
    <contour>
      <point x="142" y="361" type="curve" smooth="yes"/>
      <point x="242" y="361"/>
      <point x="299" y="408"/>
      <point x="299" y="486" type="curve" smooth="yes"/>
      <point x="299" y="546"/>
      <point x="268" y="573"/>
      <point x="224" y="591" type="curve"/>
      <point x="224" y="595" type="line"/>
      <point x="268" y="623"/>
      <point x="288" y="651"/>
      <point x="288" y="700" type="curve" smooth="yes"/>
      <point x="288" y="768"/>
      <point x="229" y="807"/>
      <point x="150" y="807" type="curve" smooth="yes"/>
      <point x="104" y="807"/>
      <point x="59" y="795"/>
      <point x="15" y="767" type="curve"/>
      <point x="65" y="688" type="line"/>
      <point x="92" y="704"/>
      <point x="113" y="710"/>
      <point x="134" y="710" type="curve" smooth="yes"/>
      <point x="164" y="710"/>
      <point x="179" y="696"/>
      <point x="179" y="674" type="curve" smooth="yes"/>
      <point x="179" y="644"/>
      <point x="159" y="630"/>
      <point x="117" y="630" type="curve" smooth="yes"/>
      <point x="78" y="630" type="line"/>
      <point x="78" y="541" type="line"/>
      <point x="127" y="541" type="line" smooth="yes"/>
      <point x="168" y="541"/>
      <point x="186" y="528"/>
      <point x="186" y="502" type="curve" smooth="yes"/>
      <point x="186" y="478"/>
      <point x="169" y="460"/>
      <point x="129" y="460" type="curve" smooth="yes"/>
      <point x="96" y="460"/>
      <point x="56" y="469"/>
      <point x="18" y="486" type="curve"/>
      <point x="18" y="386" type="line"/>
      <point x="50" y="370"/>
      <point x="94" y="361"/>
    </contour>
  </outline>
</glyph>
<glyph name="multiply.tamil" format="2">
  <advance width="496"/>
  <unicode hex="00D7"/>
  <outline>
    <contour>
      <point x="375" y="570" type="line"/>
      <point x="247" y="441" type="line"/>
      <point x="120" y="570" type="line"/>
      <point x="29" y="479" type="line"/>
      <point x="158" y="352" type="line"/>
      <point x="29" y="225" type="line"/>
      <point x="120" y="134" type="line"/>
      <point x="247" y="263" type="line"/>
      <point x="375" y="134" type="line"/>
      <point x="466" y="225" type="line"/>
      <point x="336" y="352" type="line"/>
      <point x="466" y="479" type="line"/>
    </contour>
  </outline>
</glyph>
<glyph name="uni0951" format="2">
  <unicode hex="0951"/>
  <outline>
    <contour>
      <point x="-330" y="870" type="line"/>
      <point x="-330" y="654" type="line"/>
      <point x="-225" y="654" type="line"/>
      <point x="-225" y="870" type="line"/>
    </contour>
  </outline>
</glyph>
<glyph name="uni0952" format="2">
  <unicode hex="0952"/>
  <outline>
    <contour>
      <point x="-66" y="-182" type="line"/>
      <point x="-66" y="-82" type="line"/>
      <point x="-490" y="-82" type="line"/>
      <point x="-490" y="-182" type="line"/>
    </contour>
  </outline>
</glyph>
<glyph name="danda.tamil" format="2">
  <advance width="320"/>
  <unicode hex="0964"/>
  <outline>
    <contour>
      <point x="106" y="-49" type="line"/>
      <point x="267" y="-49" type="line"/>
      <point x="267" y="610" type="line"/>
      <point x="106" y="610" type="line"/>
    </contour>
  </outline>
</glyph>
<glyph name="anusvaratamil" format="2">
  <advance width="319"/>
  <unicode hex="0B82"/>
  <outline>
    <contour>
      <point x="36" y="716" type="curve" smooth="yes"/>
      <point x="36" y="633"/>
      <point x="79" y="584"/>
      <point x="158" y="584" type="curve" smooth="yes"/>
      <point x="238" y="584"/>
      <point x="283" y="632"/>
      <point x="283" y="716" type="curve" smooth="yes"/>
      <point x="283" y="801"/>
      <point x="238" y="851"/>
      <point x="158" y="851" type="curve" smooth="yes"/>
      <point x="79" y="851"/>
      <point x="36" y="801"/>
    </contour>
    <contour>
      <point x="129" y="716" type="curve" smooth="yes"/>
      <point x="129" y="753"/>
      <point x="140" y="772"/>
      <point x="158" y="772" type="curve" smooth="yes"/>
      <point x="180" y="772"/>
      <point x="189" y="753"/>
      <point x="189" y="716" type="curve" smooth="yes"/>
      <point x="189" y="681"/>
      <point x="180" y="663"/>
      <point x="158" y="663" type="curve" smooth="yes"/>
      <point x="140" y="663"/>
      <point x="129" y="682"/>
    </contour>
  </outline>
</glyph>
<glyph name="visargatamil" format="2">
  <advance width="805"/>
  <unicode hex="0B83"/>
  <outline>
    <contour>
      <point x="207" y="-12" type="curve" smooth="yes"/>
      <point x="318" y="-12"/>
      <point x="387" y="56"/>
      <point x="387" y="186" type="curve" smooth="yes"/>
      <point x="387" y="316"/>
      <point x="318" y="384"/>
      <point x="208" y="384" type="curve" smooth="yes"/>
      <point x="97" y="384"/>
      <point x="29" y="316"/>
      <point x="29" y="186" type="curve" smooth="yes"/>
      <point x="29" y="55"/>
      <point x="99" y="-12"/>
    </contour>
    <contour>
      <point x="208" y="105" type="curve" smooth="yes"/>
      <point x="186" y="105"/>
      <point x="170" y="126"/>
      <point x="170" y="186" type="curve" smooth="yes"/>
      <point x="170" y="246"/>
      <point x="184" y="267"/>
      <point x="208" y="267" type="curve" smooth="yes"/>
      <point x="231" y="267"/>
      <point x="246" y="246"/>
      <point x="246" y="186" type="curve" smooth="yes"/>
      <point x="246" y="126"/>
      <point x="230" y="105"/>
    </contour>
    <contour>
      <point x="595" y="-12" type="curve" smooth="yes"/>
      <point x="707" y="-12"/>
      <point x="776" y="56"/>
      <point x="776" y="186" type="curve" smooth="yes"/>
      <point x="776" y="316"/>
      <point x="707" y="384"/>
      <point x="596" y="384" type="curve" smooth="yes"/>
      <point x="486" y="384"/>
      <point x="418" y="316"/>
      <point x="418" y="186" type="curve" smooth="yes"/>
      <point x="418" y="55"/>
      <point x="488" y="-12"/>
    </contour>
    <contour>
      <point x="596" y="105" type="curve" smooth="yes"/>
      <point x="575" y="105"/>
      <point x="559" y="126"/>
      <point x="559" y="186" type="curve" smooth="yes"/>
      <point x="559" y="248"/>
      <point x="574" y="267"/>
      <point x="597" y="267" type="curve" smooth="yes"/>
      <point x="620" y="267"/>
      <point x="635" y="246"/>
      <point x="635" y="186" type="curve" smooth="yes"/>
      <point x="635" y="126"/>
      <point x="619" y="105"/>
    </contour>
    <contour>
      <point x="401" y="455" type="curve" smooth="yes"/>
      <point x="512" y="455"/>
      <point x="581" y="523"/>
      <point x="581" y="653" type="curve" smooth="yes"/>
      <point x="581" y="783"/>
      <point x="512" y="851"/>
      <point x="401" y="851" type="curve" smooth="yes"/>
      <point x="291" y="851"/>
      <point x="223" y="783"/>
      <point x="223" y="653" type="curve" smooth="yes"/>
      <point x="223" y="522"/>
      <point x="293" y="455"/>
    </contour>
    <contour>
      <point x="401" y="572" type="curve" smooth="yes"/>
      <point x="380" y="572"/>
      <point x="364" y="593"/>
      <point x="364" y="653" type="curve" smooth="yes"/>
      <point x="364" y="713"/>
      <point x="379" y="734"/>
      <point x="402" y="734" type="curve" smooth="yes"/>
      <point x="425" y="734"/>
      <point x="440" y="713"/>
      <point x="440" y="653" type="curve" smooth="yes"/>
      <point x="440" y="593"/>
      <point x="424" y="572"/>
    </contour>
  </outline>
</glyph>
<glyph name="atamil" format="2">
  <advance width="987"/>
  <unicode hex="0B85"/>
  <outline>
    <contour>
      <point x="314" y="-146" type="curve" smooth="yes"/>
      <point x="323" y="-146" type="line" smooth="yes"/>
      <point x="538" y="-146"/>
      <point x="661" y="-49"/>
      <point x="706" y="109" type="curve"/>
      <point x="715" y="164" type="line"/>
      <point x="718" y="188"/>
      <point x="720" y="215"/>
      <point x="720" y="242" type="curve" smooth="yes"/>
      <point x="720" y="433"/>
      <point x="629" y="581"/>
      <point x="426" y="581" type="curve" smooth="yes"/>
      <point x="299" y="581"/>
      <point x="204" y="520"/>
      <point x="204" y="395" type="curve" smooth="yes"/>
      <point x="204" y="282"/>
      <point x="273" y="229"/>
      <point x="374" y="229" type="curve" smooth="yes"/>
      <point x="497" y="229"/>
      <point x="530" y="295"/>
      <point x="530" y="377" type="curve" smooth="yes"/>
      <point x="530" y="445"/>
      <point x="487" y="525"/>
      <point x="446" y="568" type="curve"/>
      <point x="356" y="529" type="line"/>
      <point x="397" y="494"/>
      <point x="417" y="446"/>
      <point x="417" y="400" type="curve" smooth="yes"/>
      <point x="417" y="360"/>
      <point x="404" y="346"/>
      <point x="380" y="346" type="curve" smooth="yes"/>
      <point x="357" y="346"/>
      <point x="344" y="363"/>
      <point x="344" y="398" type="curve" smooth="yes"/>
      <point x="344" y="449"/>
      <point x="380" y="468"/>
      <point x="420" y="468" type="curve" smooth="yes"/>
      <point x="439" y="468"/>
      <point x="452" y="467"/>
      <point x="462" y="465" type="curve"/>
      <point x="545" y="446"/>
      <point x="570" y="349"/>
      <point x="570" y="237" type="curve" smooth="yes"/>
      <point x="570" y="213"/>
      <point x="569" y="190"/>
      <point x="566" y="168" type="curve"/>
      <point x="557" y="119" type="line"/>
      <point x="526" y="35"/>
      <point x="456" y="-22"/>
      <point x="315" y="-22" type="curve" smooth="yes"/>
      <point x="311" y="-22" type="line" smooth="yes"/>
      <point x="222" y="-22"/>
      <point x="179" y="6"/>
      <point x="179" y="48" type="curve" smooth="yes"/>
      <point x="179" y="58"/>
      <point x="183" y="66"/>
      <point x="190" y="71" type="curve" smooth="yes"/>
      <point x="198" y="77"/>
      <point x="207" y="78"/>
      <point x="235" y="78" type="curve" smooth="yes"/>
      <point x="793" y="78" type="line"/>
      <point x="798" y="200" type="line"/>
      <point x="229" y="200" type="line" smooth="yes"/>
      <point x="157" y="200"/>
      <point x="116" y="195"/>
      <point x="81" y="175" type="curve" smooth="yes"/>
      <point x="44" y="154"/>
      <point x="23" y="119"/>
      <point x="23" y="67" type="curve" smooth="yes"/>
      <point x="23" y="-56"/>
      <point x="120" y="-146"/>
    </contour>
    <contour>
      <point x="773" y="-154" type="line"/>
      <point x="934" y="-154" type="line"/>
      <point x="934" y="569" type="line"/>
      <point x="773" y="569" type="line"/>
    </contour>
  </outline>
</glyph>
<glyph name="aatamil" format="2">
  <advance width="1176"/>
  <unicode hex="0B86"/>
  <outline>
    <contour>
      <point x="314" y="-146" type="curve" smooth="yes"/>
      <point x="323" y="-146" type="line" smooth="yes"/>
      <point x="533" y="-146"/>
      <point x="658" y="-35"/>
      <point x="706" y="109" type="curve"/>
      <point x="715" y="164" type="line"/>
      <point x="718" y="188"/>
      <point x="720" y="215"/>
      <point x="720" y="242" type="curve" smooth="yes"/>
      <point x="720" y="433"/>
      <point x="629" y="581"/>
      <point x="426" y="581" type="curve" smooth="yes"/>
      <point x="299" y="581"/>
      <point x="204" y="520"/>
      <point x="204" y="395" type="curve" smooth="yes"/>
      <point x="204" y="282"/>
      <point x="273" y="229"/>
      <point x="374" y="229" type="curve" smooth="yes"/>
      <point x="497" y="229"/>
      <point x="530" y="295"/>
      <point x="530" y="377" type="curve" smooth="yes"/>
      <point x="530" y="445"/>
      <point x="487" y="525"/>
      <point x="446" y="568" type="curve"/>
      <point x="356" y="529" type="line"/>
      <point x="397" y="494"/>
      <point x="417" y="446"/>
      <point x="417" y="400" type="curve" smooth="yes"/>
      <point x="417" y="360"/>
      <point x="404" y="346"/>
      <point x="380" y="346" type="curve" smooth="yes"/>
      <point x="357" y="346"/>
      <point x="344" y="363"/>
      <point x="344" y="398" type="curve" smooth="yes"/>
      <point x="344" y="449"/>
      <point x="380" y="468"/>
      <point x="420" y="468" type="curve" smooth="yes"/>
      <point x="439" y="468"/>
      <point x="452" y="467"/>
      <point x="462" y="465" type="curve" smooth="yes"/>
      <point x="545" y="446"/>
      <point x="570" y="349"/>
      <point x="570" y="237" type="curve" smooth="yes"/>
      <point x="570" y="213"/>
      <point x="569" y="190"/>
      <point x="566" y="168" type="curve"/>
      <point x="557" y="119" type="line"/>
      <point x="526" y="35"/>
      <point x="456" y="-22"/>
      <point x="315" y="-22" type="curve" smooth="yes"/>
      <point x="311" y="-22" type="line" smooth="yes"/>
      <point x="222" y="-22"/>
      <point x="179" y="6"/>
      <point x="179" y="48" type="curve" smooth="yes"/>
      <point x="179" y="58"/>
      <point x="183" y="66"/>
      <point x="190" y="71" type="curve" smooth="yes"/>
      <point x="198" y="77"/>
      <point x="207" y="78"/>
      <point x="235" y="78" type="curve" smooth="yes"/>
      <point x="790" y="78" type="line"/>
      <point x="795" y="200" type="line"/>
      <point x="229" y="200" type="line" smooth="yes"/>
      <point x="157" y="200"/>
      <point x="116" y="195"/>
      <point x="81" y="175" type="curve" smooth="yes"/>
      <point x="44" y="154"/>
      <point x="23" y="119"/>
      <point x="23" y="67" type="curve" smooth="yes"/>
      <point x="23" y="-56"/>
      <point x="120" y="-146"/>
    </contour>
    <contour>
      <point x="799" y="-321" type="curve" smooth="yes"/>
      <point x="808" y="-321" type="line" smooth="yes"/>
      <point x="1047" y="-321"/>
      <point x="1175" y="-216"/>
      <point x="1175" y="-51" type="curve" smooth="yes"/>
      <point x="1175" y="72"/>
      <point x="1106" y="130"/>
      <point x="998" y="130" type="curve" smooth="yes"/>
      <point x="950" y="130"/>
      <point x="910" y="114"/>
      <point x="877" y="93" type="curve"/>
      <point x="897" y="-19" type="line"/>
      <point x="921" y="0"/>
      <point x="949" y="10"/>
      <point x="965" y="10" type="curve" smooth="yes"/>
      <point x="1004" y="10"/>
      <point x="1023" y="-12"/>
      <point x="1023" y="-57" type="curve" smooth="yes"/>
      <point x="1023" y="-147"/>
      <point x="936" y="-201"/>
      <point x="813" y="-201" type="curve" smooth="yes"/>
      <point x="806" y="-201" type="line" smooth="yes"/>
      <point x="701" y="-201"/>
      <point x="693" y="-178"/>
      <point x="693" y="-159" type="curve" smooth="yes"/>
      <point x="693" y="-145"/>
      <point x="703" y="-137"/>
      <point x="722" y="-137" type="curve" smooth="yes"/>
      <point x="730" y="-137"/>
      <point x="741" y="-138"/>
      <point x="747" y="-139" type="curve"/>
      <point x="761" y="-33" type="line"/>
      <point x="745" y="-29"/>
      <point x="726" y="-27"/>
      <point x="708" y="-27" type="curve" smooth="yes"/>
      <point x="619" y="-27"/>
      <point x="560" y="-78"/>
      <point x="560" y="-154" type="curve" smooth="yes"/>
      <point x="560" y="-256"/>
      <point x="629" y="-321"/>
    </contour>
    <contour>
      <point x="773" y="-124" type="line"/>
      <point x="934" y="-124" type="line"/>
      <point x="934" y="569" type="line"/>
      <point x="773" y="569" type="line"/>
    </contour>
  </outline>
</glyph>
<glyph name="itamil" format="2">
  <advance width="978"/>
  <unicode hex="0B87"/>
  <outline>
    <contour>
      <point x="228" y="-321" type="curve" smooth="yes"/>
      <point x="334" y="-321"/>
      <point x="394" y="-294"/>
      <point x="461" y="-250" type="curve"/>
      <point x="561" y="-188"/>
      <point x="621" y="-102"/>
      <point x="667" y="14" type="curve"/>
      <point x="703" y="91"/>
      <point x="717" y="173"/>
      <point x="717" y="250" type="curve" smooth="yes"/>
      <point x="717" y="439"/>
      <point x="627" y="581"/>
      <point x="439" y="581" type="curve" smooth="yes"/>
      <point x="319" y="581"/>
      <point x="224" y="519"/>
      <point x="224" y="395" type="curve" smooth="yes"/>
      <point x="224" y="282"/>
      <point x="294" y="229"/>
      <point x="399" y="229" type="curve" smooth="yes"/>
      <point x="491" y="229"/>
      <point x="542" y="276"/>
      <point x="542" y="377" type="curve" smooth="yes"/>
      <point x="542" y="431"/>
      <point x="506" y="518"/>
      <point x="474" y="547" type="curve"/>
      <point x="376" y="529" type="line"/>
      <point x="417" y="494"/>
      <point x="436" y="447"/>
      <point x="436" y="400" type="curve" smooth="yes"/>
      <point x="436" y="360"/>
      <point x="423" y="346"/>
      <point x="399" y="346" type="curve" smooth="yes"/>
      <point x="377" y="346"/>
      <point x="363" y="363"/>
      <point x="363" y="398" type="curve" smooth="yes"/>
      <point x="363" y="449"/>
      <point x="399" y="468"/>
      <point x="431" y="468" type="curve" smooth="yes"/>
      <point x="436" y="468"/>
      <point x="445" y="467"/>
      <point x="451" y="466" type="curve"/>
      <point x="462" y="467" type="line"/>
      <point x="553" y="445"/>
      <point x="570" y="347"/>
      <point x="570" y="254" type="curve" smooth="yes"/>
      <point x="570" y="204"/>
      <point x="565" y="148"/>
      <point x="548" y="92" type="curve"/>
      <point x="514" y="-22"/>
      <point x="441" y="-132"/>
      <point x="340" y="-177" type="curve"/>
      <point x="310" y="-190"/>
      <point x="277" y="-200"/>
      <point x="242" y="-200" type="curve" smooth="yes"/>
      <point x="180" y="-200"/>
      <point x="149" y="-158"/>
      <point x="149" y="-112" type="curve" smooth="yes"/>
      <point x="149" y="-71"/>
      <point x="169" y="-38"/>
      <point x="197" y="-12" type="curve"/>
      <point x="248" y="38"/>
      <point x="313" y="55"/>
      <point x="400" y="55" type="curve" smooth="yes"/>
      <point x="466" y="55"/>
      <point x="524" y="42"/>
      <point x="573" y="7" type="curve"/>
      <point x="617" y="-21"/>
      <point x="649" y="-60"/>
      <point x="649" y="-111" type="curve" smooth="yes"/>
      <point x="649" y="-162"/>
      <point x="616" y="-200"/>
      <point x="548" y="-200" type="curve" smooth="yes"/>
      <point x="508" y="-200"/>
      <point x="471" y="-183"/>
      <point x="438" y="-165" type="curve"/>
      <point x="350" y="-117"/>
      <point x="285" y="-12"/>
      <point x="251" y="96" type="curve"/>
      <point x="215" y="193"/>
      <point x="194" y="287"/>
      <point x="194" y="384" type="curve" smooth="yes"/>
      <point x="194" y="600"/>
      <point x="310" y="724"/>
      <point x="486" y="724" type="curve" smooth="yes"/>
      <point x="564" y="724"/>
      <point x="624" y="701"/>
      <point x="667" y="661" type="curve" smooth="yes"/>
      <point x="747" y="586"/>
      <point x="766" y="454"/>
      <point x="766" y="276" type="curve" smooth="yes"/>
      <point x="766" y="0" type="line"/>
      <point x="927" y="0" type="line"/>
      <point x="927" y="347" type="line" smooth="yes"/>
      <point x="927" y="568"/>
      <point x="870" y="690"/>
      <point x="766" y="769" type="curve" smooth="yes"/>
      <point x="694" y="824"/>
      <point x="599" y="851"/>
      <point x="489" y="851" type="curve" smooth="yes"/>
      <point x="175" y="851"/>
      <point x="40" y="632"/>
      <point x="40" y="393" type="curve" smooth="yes"/>
      <point x="40" y="249"/>
      <point x="67" y="137"/>
      <point x="133" y="14" type="curve"/>
      <point x="180" y="-99"/>
      <point x="242" y="-188"/>
      <point x="338" y="-248" type="curve"/>
      <point x="406" y="-294"/>
      <point x="475" y="-321"/>
      <point x="571" y="-321" type="curve" smooth="yes"/>
      <point x="705" y="-321"/>
      <point x="787" y="-245"/>
      <point x="787" y="-110" type="curve" smooth="yes"/>
      <point x="787" y="7"/>
      <point x="718" y="82"/>
      <point x="626" y="126" type="curve"/>
      <point x="549" y="166"/>
      <point x="474" y="178"/>
      <point x="400" y="178" type="curve" smooth="yes"/>
      <point x="310" y="178"/>
      <point x="217" y="157"/>
      <point x="144" y="110" type="curve"/>
      <point x="65" y="63"/>
      <point x="12" y="-6"/>
      <point x="12" y="-110" type="curve" smooth="yes"/>
      <point x="12" y="-227"/>
      <point x="69" y="-321"/>
    </contour>
  </outline>
</glyph>
<glyph name="iitamil" format="2">
  <advance width="726"/>
  <unicode hex="0B88"/>
  <outline>
    <contour>
      <point x="52" y="0" type="line"/>
      <point x="213" y="0" type="line"/>
      <point x="213" y="445" type="line"/>
      <point x="377" y="445" type="line"/>
      <point x="377" y="0" type="line"/>
      <point x="538" y="0" type="line"/>
      <point x="538" y="445" type="line"/>
      <point x="707" y="445" type="line"/>
      <point x="707" y="569" type="line"/>
      <point x="52" y="569" type="line"/>
    </contour>
    <contour>
      <point x="295" y="198" type="curve" smooth="yes"/>
      <point x="335" y="198"/>
      <point x="361" y="223"/>
      <point x="361" y="272" type="curve" smooth="yes"/>
      <point x="361" y="320"/>
      <point x="335" y="345"/>
      <point x="295" y="345" type="curve" smooth="yes"/>
      <point x="255" y="345"/>
      <point x="229" y="320"/>
      <point x="229" y="272" type="curve" smooth="yes"/>
      <point x="229" y="223"/>
      <point x="255" y="198"/>
    </contour>
    <contour>
      <point x="620" y="198" type="curve" smooth="yes"/>
      <point x="660" y="198"/>
      <point x="686" y="223"/>
      <point x="686" y="272" type="curve" smooth="yes"/>
      <point x="686" y="320"/>
      <point x="660" y="345"/>
      <point x="620" y="345" type="curve" smooth="yes"/>
      <point x="580" y="345"/>
      <point x="554" y="320"/>
      <point x="554" y="272" type="curve" smooth="yes"/>
      <point x="554" y="223"/>
      <point x="580" y="198"/>
    </contour>
  </outline>
</glyph>
<glyph name="utamil" format="2">
  <advance width="821"/>
  <unicode hex="0B89"/>
  <outline>
    <contour>
      <point x="256" y="581" type="curve" smooth="yes"/>
      <point x="120" y="581"/>
      <point x="29" y="519"/>
      <point x="29" y="414" type="curve" smooth="yes"/>
      <point x="29" y="303"/>
      <point x="105" y="265"/>
      <point x="193" y="265" type="curve" smooth="yes"/>
      <point x="297" y="265"/>
      <point x="355" y="311"/>
      <point x="355" y="408" type="curve" smooth="yes"/>
      <point x="355" y="460"/>
      <point x="326" y="511"/>
      <point x="301" y="542" type="curve"/>
      <point x="200" y="523" type="line"/>
      <point x="232" y="487"/>
      <point x="242" y="457"/>
      <point x="242" y="417" type="curve" smooth="yes"/>
      <point x="242" y="380"/>
      <point x="225" y="369"/>
      <point x="205" y="369" type="curve" smooth="yes"/>
      <point x="183" y="369"/>
      <point x="169" y="383"/>
      <point x="169" y="413" type="curve" smooth="yes"/>
      <point x="169" y="444"/>
      <point x="185" y="463"/>
      <point x="221" y="463" type="curve" smooth="yes"/>
      <point x="229" y="463"/>
      <point x="245" y="463"/>
      <point x="257" y="461" type="curve"/>
      <point x="280" y="464" type="line"/>
      <point x="337" y="464"/>
      <point x="389" y="435"/>
      <point x="389" y="371" type="curve" smooth="yes"/>
      <point x="389" y="309"/>
      <point x="349" y="279"/>
      <point x="247" y="267" type="curve" smooth="yes"/>
      <point x="172" y="258" type="line" smooth="yes"/>
      <point x="63" y="245"/>
      <point x="27" y="189"/>
      <point x="27" y="130" type="curve" smooth="yes"/>
      <point x="27" y="64"/>
      <point x="58" y="0"/>
      <point x="209" y="0" type="curve" smooth="yes"/>
      <point x="805" y="0" type="line"/>
      <point x="805" y="124" type="line"/>
      <point x="203" y="124" type="line" smooth="yes"/>
      <point x="183" y="124"/>
      <point x="180" y="130"/>
      <point x="180" y="138" type="curve" smooth="yes"/>
      <point x="180" y="146"/>
      <point x="186" y="150"/>
      <point x="209" y="153" type="curve" smooth="yes"/>
      <point x="278" y="161" type="line" smooth="yes"/>
      <point x="401" y="175"/>
      <point x="547" y="216"/>
      <point x="547" y="374" type="curve" smooth="yes"/>
      <point x="547" y="496"/>
      <point x="454" y="581"/>
    </contour>
  </outline>
</glyph>
<glyph name="uutamil" format="2">
  <advance width="1332"/>
  <unicode hex="0B8A"/>
  <outline>
    <contour>
      <point x="256" y="581" type="curve" smooth="yes"/>
      <point x="120" y="581"/>
      <point x="29" y="519"/>
      <point x="29" y="414" type="curve" smooth="yes"/>
      <point x="29" y="303"/>
      <point x="105" y="265"/>
      <point x="193" y="265" type="curve" smooth="yes"/>
      <point x="297" y="265"/>
      <point x="355" y="311"/>
      <point x="355" y="408" type="curve" smooth="yes"/>
      <point x="355" y="460"/>
      <point x="326" y="511"/>
      <point x="301" y="542" type="curve"/>
      <point x="200" y="523" type="line"/>
      <point x="232" y="487"/>
      <point x="242" y="457"/>
      <point x="242" y="417" type="curve" smooth="yes"/>
      <point x="242" y="380"/>
      <point x="225" y="369"/>
      <point x="205" y="369" type="curve" smooth="yes"/>
      <point x="183" y="369"/>
      <point x="169" y="383"/>
      <point x="169" y="413" type="curve" smooth="yes"/>
      <point x="169" y="444"/>
      <point x="185" y="463"/>
      <point x="221" y="463" type="curve" smooth="yes"/>
      <point x="229" y="463"/>
      <point x="245" y="463"/>
      <point x="257" y="461" type="curve"/>
      <point x="280" y="464" type="line"/>
      <point x="337" y="464"/>
      <point x="389" y="435"/>
      <point x="389" y="371" type="curve" smooth="yes"/>
      <point x="389" y="309"/>
      <point x="349" y="279"/>
      <point x="247" y="267" type="curve" smooth="yes"/>
      <point x="172" y="258" type="line" smooth="yes"/>
      <point x="63" y="245"/>
      <point x="27" y="189"/>
      <point x="27" y="130" type="curve" smooth="yes"/>
      <point x="27" y="64"/>
      <point x="58" y="0"/>
      <point x="209" y="0" type="curve" smooth="yes"/>
      <point x="1303" y="0" type="line"/>
      <point x="1303" y="124" type="line"/>
      <point x="203" y="124" type="line" smooth="yes"/>
      <point x="183" y="124"/>
      <point x="180" y="130"/>
      <point x="180" y="138" type="curve" smooth="yes"/>
      <point x="180" y="146"/>
      <point x="186" y="150"/>
      <point x="209" y="153" type="curve" smooth="yes"/>
      <point x="278" y="161" type="line" smooth="yes"/>
      <point x="401" y="175"/>
      <point x="547" y="216"/>
      <point x="547" y="374" type="curve" smooth="yes"/>
      <point x="547" y="496"/>
      <point x="454" y="581"/>
    </contour>
    <contour>
      <point x="734" y="155" type="curve" smooth="yes"/>
      <point x="833" y="155"/>
      <point x="881" y="207"/>
      <point x="881" y="295" type="curve" smooth="yes"/>
      <point x="881" y="382"/>
      <point x="831" y="424"/>
      <point x="766" y="424" type="curve" smooth="yes"/>
      <point x="708" y="424"/>
      <point x="675" y="395"/>
      <point x="636" y="361" type="curve"/>
      <point x="658" y="285" type="line"/>
      <point x="688" y="317"/>
      <point x="704" y="331"/>
      <point x="727" y="331" type="curve" smooth="yes"/>
      <point x="749" y="331"/>
      <point x="758" y="314"/>
      <point x="758" y="291" type="curve" smooth="yes"/>
      <point x="758" y="264"/>
      <point x="750" y="250"/>
      <point x="729" y="250" type="curve" smooth="yes"/>
      <point x="701" y="250"/>
      <point x="689" y="285"/>
      <point x="691" y="330" type="curve" smooth="yes"/>
      <point x="693" y="372" type="line"/>
      <point x="701" y="440"/>
      <point x="749" y="469"/>
      <point x="796" y="469" type="curve" smooth="yes"/>
      <point x="856" y="469"/>
      <point x="893" y="440"/>
      <point x="926" y="405" type="curve"/>
      <point x="962" y="516" type="line"/>
      <point x="908" y="557"/>
      <point x="864" y="581"/>
      <point x="799" y="581" type="curve" smooth="yes"/>
      <point x="661" y="581"/>
      <point x="576" y="480"/>
      <point x="576" y="344" type="curve" smooth="yes"/>
      <point x="576" y="209"/>
      <point x="641" y="155"/>
    </contour>
    <contour>
      <point x="906" y="162" type="line"/>
      <point x="1042" y="162" type="line"/>
      <point x="1042" y="457" type="line"/>
      <point x="1091" y="457" type="line"/>
      <point x="1091" y="162" type="line"/>
      <point x="1227" y="162" type="line"/>
      <point x="1227" y="457" type="line"/>
      <point x="1290" y="457" type="line"/>
      <point x="1290" y="569" type="line"/>
      <point x="922" y="569" type="line"/>
      <point x="922" y="510" type="line"/>
      <point x="906" y="494" type="line"/>
    </contour>
  </outline>
</glyph>
<glyph name="etamil" format="2">
  <advance width="719"/>
  <unicode hex="0B8E"/>
  <outline>
    <contour>
      <point x="223" y="-12" type="curve" smooth="yes"/>
      <point x="352" y="-12"/>
      <point x="407" y="60"/>
      <point x="407" y="175" type="curve" smooth="yes"/>
      <point x="407" y="290"/>
      <point x="351" y="352"/>
      <point x="253" y="352" type="curve" smooth="yes"/>
      <point x="192" y="352"/>
      <point x="151" y="319"/>
      <point x="106" y="272" type="curve"/>
      <point x="132" y="179" type="line"/>
      <point x="163" y="218"/>
      <point x="189" y="237"/>
      <point x="212" y="237" type="curve" smooth="yes"/>
      <point x="239" y="237"/>
      <point x="258" y="221"/>
      <point x="258" y="172" type="curve" smooth="yes"/>
      <point x="258" y="124"/>
      <point x="246" y="107"/>
      <point x="219" y="107" type="curve" smooth="yes"/>
      <point x="187" y="107"/>
      <point x="172" y="142"/>
      <point x="172" y="216" type="curve" smooth="yes"/>
      <point x="172" y="320"/>
      <point x="200" y="373"/>
      <point x="249" y="408" type="curve" smooth="yes"/>
      <point x="284" y="433"/>
      <point x="330" y="445"/>
      <point x="412" y="445" type="curve" smooth="yes"/>
      <point x="441" y="445" type="line"/>
      <point x="462" y="569" type="line"/>
      <point x="446" y="569" type="line" smooth="yes"/>
      <point x="278" y="569"/>
      <point x="197" y="540"/>
      <point x="134" y="488" type="curve" smooth="yes"/>
      <point x="69" y="434"/>
      <point x="30" y="355"/>
      <point x="30" y="245" type="curve" smooth="yes"/>
      <point x="30" y="77"/>
      <point x="99" y="-12"/>
    </contour>
    <contour>
      <point x="451" y="0" type="line"/>
      <point x="612" y="0" type="line"/>
      <point x="612" y="445" type="line"/>
      <point x="703" y="445" type="line"/>
      <point x="703" y="569" type="line"/>
      <point x="453" y="569" type="line"/>
      <point x="425" y="445" type="line"/>
      <point x="451" y="445" type="line"/>
    </contour>
  </outline>
</glyph>
<glyph name="aitamil" format="2">
  <advance width="877"/>
  <unicode hex="0B90"/>
  <outline>
    <contour>
      <point x="263" y="-321" type="curve" smooth="yes"/>
      <point x="393" y="-321"/>
      <point x="459" y="-262"/>
      <point x="501" y="-191" type="curve"/>
      <point x="439" y="-177" type="line"/>
      <point x="481" y="-281"/>
      <point x="544" y="-321"/>
      <point x="647" y="-321" type="curve" smooth="yes"/>
      <point x="798" y="-321"/>
      <point x="846" y="-222"/>
      <point x="846" y="-98" type="curve" smooth="yes"/>
      <point x="846" y="-38"/>
      <point x="833" y="14"/>
      <point x="816" y="57" type="curve"/>
      <point x="664" y="18" type="line"/>
      <point x="675" y="-14"/>
      <point x="685" y="-54"/>
      <point x="685" y="-95" type="curve" smooth="yes"/>
      <point x="685" y="-148"/>
      <point x="673" y="-195"/>
      <point x="622" y="-195" type="curve" smooth="yes"/>
      <point x="596" y="-195"/>
      <point x="580" y="-185"/>
      <point x="569" y="-168" type="curve" smooth="yes"/>
      <point x="555" y="-145"/>
      <point x="551" y="-112"/>
      <point x="551" y="-49" type="curve" smooth="yes"/>
      <point x="551" y="-12" type="line"/>
      <point x="394" y="-12" type="line"/>
      <point x="394" y="-48" type="line" smooth="yes"/>
      <point x="394" y="-95"/>
      <point x="388" y="-133"/>
      <point x="368" y="-160" type="curve" smooth="yes"/>
      <point x="352" y="-181"/>
      <point x="326" y="-195"/>
      <point x="288" y="-195" type="curve" smooth="yes"/>
      <point x="218" y="-195"/>
      <point x="192" y="-151"/>
      <point x="192" y="-90" type="curve" smooth="yes"/>
      <point x="192" y="-44"/>
      <point x="206" y="-12"/>
      <point x="235" y="8" type="curve" smooth="yes"/>
      <point x="264" y="28"/>
      <point x="298" y="37"/>
      <point x="387" y="37" type="curve" smooth="yes"/>
      <point x="511" y="37" type="line" smooth="yes"/>
      <point x="626" y="37"/>
      <point x="697" y="54"/>
      <point x="761" y="108" type="curve"/>
      <point x="815" y="155"/>
      <point x="846" y="220"/>
      <point x="846" y="329" type="curve" smooth="yes"/>
      <point x="846" y="458"/>
      <point x="781" y="581"/>
      <point x="632" y="581" type="curve" smooth="yes"/>
      <point x="534" y="581"/>
      <point x="472" y="525"/>
      <point x="438" y="438" type="curve"/>
      <point x="501" y="433" type="line"/>
      <point x="460" y="522"/>
      <point x="392" y="581"/>
      <point x="264" y="581" type="curve" smooth="yes"/>
      <point x="121" y="581"/>
      <point x="31" y="490"/>
      <point x="31" y="357" type="curve" smooth="yes"/>
      <point x="31" y="249"/>
      <point x="74" y="164"/>
      <point x="199" y="164" type="curve" smooth="yes"/>
      <point x="309" y="164"/>
      <point x="359" y="228"/>
      <point x="359" y="325" type="curve" smooth="yes"/>
      <point x="359" y="412"/>
      <point x="316" y="464"/>
      <point x="262" y="486" type="curve"/>
      <point x="146" y="435" type="line"/>
      <point x="211" y="420"/>
      <point x="235" y="376"/>
      <point x="235" y="331" type="curve" smooth="yes"/>
      <point x="235" y="295"/>
      <point x="221" y="278"/>
      <point x="199" y="278" type="curve" smooth="yes"/>
      <point x="171" y="278"/>
      <point x="159" y="304"/>
      <point x="159" y="343" type="curve" smooth="yes"/>
      <point x="159" y="383"/>
      <point x="169" y="414"/>
      <point x="192" y="444" type="curve"/>
      <point x="216" y="454" type="line"/>
      <point x="240" y="462"/>
      <point x="257" y="466"/>
      <point x="281" y="466" type="curve" smooth="yes"/>
      <point x="358" y="466"/>
      <point x="394" y="420"/>
      <point x="394" y="314" type="curve" smooth="yes"/>
      <point x="394" y="204" type="line"/>
      <point x="552" y="204" type="line"/>
      <point x="552" y="334" type="line" smooth="yes"/>
      <point x="552" y="390"/>
      <point x="559" y="418"/>
      <point x="575" y="437" type="curve" smooth="yes"/>
      <point x="585" y="449"/>
      <point x="599" y="455"/>
      <point x="617" y="455" type="curve" smooth="yes"/>
      <point x="659" y="455"/>
      <point x="685" y="413"/>
      <point x="685" y="340" type="curve" smooth="yes"/>
      <point x="685" y="276"/>
      <point x="674" y="231"/>
      <point x="644" y="203" type="curve" smooth="yes"/>
      <point x="611" y="171"/>
      <point x="572" y="160"/>
      <point x="472" y="160" type="curve" smooth="yes"/>
      <point x="397" y="160" type="line" smooth="yes"/>
      <point x="266" y="160"/>
      <point x="196" y="145"/>
      <point x="137" y="112" type="curve" smooth="yes"/>
      <point x="69" y="74"/>
      <point x="31" y="10"/>
      <point x="31" y="-84" type="curve" smooth="yes"/>
      <point x="31" y="-241"/>
      <point x="118" y="-321"/>
    </contour>
  </outline>
</glyph>
<glyph name="otamil" format="2">
  <advance width="938"/>
  <unicode hex="0B92"/>
  <outline>
    <contour>
      <point x="725" y="37" type="curve" smooth="yes"/>
      <point x="846" y="37"/>
      <point x="909" y="124"/>
      <point x="909" y="242" type="curve" smooth="yes"/>
      <point x="909" y="350"/>
      <point x="865" y="430"/>
      <point x="797" y="485" type="curve" smooth="yes"/>
      <point x="715" y="551"/>
      <point x="599" y="581"/>
      <point x="468" y="581" type="curve" smooth="yes"/>
      <point x="331" y="581"/>
      <point x="233" y="556"/>
      <point x="151" y="499" type="curve" smooth="yes"/>
      <point x="79" y="448"/>
      <point x="29" y="373"/>
      <point x="29" y="265" type="curve" smooth="yes"/>
      <point x="29" y="133"/>
      <point x="90" y="48"/>
      <point x="209" y="48" type="curve" smooth="yes"/>
      <point x="310" y="48"/>
      <point x="377" y="97"/>
      <point x="377" y="230" type="curve" smooth="yes"/>
      <point x="377" y="337"/>
      <point x="313" y="393"/>
      <point x="243" y="393" type="curve" smooth="yes"/>
      <point x="207" y="393"/>
      <point x="167" y="383"/>
      <point x="120" y="351" type="curve"/>
      <point x="133" y="251" type="line"/>
      <point x="160" y="282"/>
      <point x="179" y="294"/>
      <point x="205" y="294" type="curve" smooth="yes"/>
      <point x="231" y="294"/>
      <point x="246" y="273"/>
      <point x="246" y="228" type="curve" smooth="yes"/>
      <point x="246" y="183"/>
      <point x="234" y="166"/>
      <point x="207" y="166" type="curve" smooth="yes"/>
      <point x="172" y="166"/>
      <point x="161" y="208"/>
      <point x="161" y="254" type="curve" smooth="yes"/>
      <point x="161" y="283"/>
      <point x="164" y="298"/>
      <point x="168" y="313" type="curve"/>
      <point x="175" y="343" type="line"/>
      <point x="252" y="428"/>
      <point x="360" y="452"/>
      <point x="467" y="452" type="curve" smooth="yes"/>
      <point x="656" y="452"/>
      <point x="750" y="365"/>
      <point x="750" y="231" type="curve" smooth="yes"/>
      <point x="750" y="167"/>
      <point x="732" y="156"/>
      <point x="711" y="156" type="curve" smooth="yes"/>
      <point x="682" y="156"/>
      <point x="670" y="183"/>
      <point x="670" y="233" type="curve" smooth="yes"/>
      <point x="670" y="262"/>
      <point x="675" y="291"/>
      <point x="686" y="326" type="curve"/>
      <point x="556" y="394" type="line"/>
      <point x="456" y="336"/>
      <point x="385" y="257"/>
      <point x="385" y="130" type="curve" smooth="yes"/>
      <point x="385" y="28"/>
      <point x="437" y="-66"/>
      <point x="563" y="-107" type="curve"/>
      <point x="596" y="-119"/>
      <point x="645" y="-135"/>
      <point x="748" y="-135" type="curve" smooth="yes"/>
      <point x="831" y="-135" type="line"/>
      <point x="831" y="-12" type="line"/>
      <point x="754" y="-12" type="line" smooth="yes"/>
      <point x="659" y="-12"/>
      <point x="615" y="1"/>
      <point x="579" y="24" type="curve" smooth="yes"/>
      <point x="537" y="52"/>
      <point x="518" y="94"/>
      <point x="518" y="147" type="curve" smooth="yes"/>
      <point x="518" y="192"/>
      <point x="530" y="233"/>
      <point x="571" y="274" type="curve"/>
      <point x="566" y="277" type="line"/>
      <point x="554" y="247"/>
      <point x="548" y="224"/>
      <point x="548" y="190" type="curve" smooth="yes"/>
      <point x="548" y="107"/>
      <point x="589" y="37"/>
    </contour>
    <contour>
      <point x="391" y="-321" type="curve" smooth="yes"/>
      <point x="510" y="-321"/>
      <point x="590" y="-282"/>
      <point x="668" y="-154" type="curve" smooth="yes"/>
      <point x="683" y="-129"/>
      <point x="702" y="-106"/>
      <point x="718" y="-88" type="curve"/>
      <point x="563" y="-53" type="line"/>
      <point x="546" y="-69"/>
      <point x="526" y="-94"/>
      <point x="510" y="-118" type="curve" smooth="yes"/>
      <point x="471" y="-177"/>
      <point x="442" y="-197"/>
      <point x="400" y="-197" type="curve" smooth="yes"/>
      <point x="356" y="-197"/>
      <point x="330" y="-172"/>
      <point x="330" y="-126" type="curve" smooth="yes"/>
      <point x="330" y="-97"/>
      <point x="340" y="-69"/>
      <point x="359" y="-41" type="curve"/>
      <point x="223" y="29" type="line"/>
      <point x="190" y="-21"/>
      <point x="174" y="-69"/>
      <point x="174" y="-125" type="curve" smooth="yes"/>
      <point x="174" y="-259"/>
      <point x="273" y="-321"/>
    </contour>
  </outline>
</glyph>
<glyph name="ootamil" format="2">
  <advance width="938"/>
  <unicode hex="0B93"/>
  <outline>
    <contour>
      <point x="725" y="37" type="curve" smooth="yes"/>
      <point x="846" y="37"/>
      <point x="909" y="124"/>
      <point x="909" y="242" type="curve" smooth="yes"/>
      <point x="909" y="350"/>
      <point x="865" y="430"/>
      <point x="797" y="485" type="curve" smooth="yes"/>
      <point x="715" y="551"/>
      <point x="599" y="581"/>
      <point x="468" y="581" type="curve" smooth="yes"/>
      <point x="331" y="581"/>
      <point x="233" y="556"/>
      <point x="151" y="499" type="curve" smooth="yes"/>
      <point x="79" y="448"/>
      <point x="29" y="373"/>
      <point x="29" y="265" type="curve" smooth="yes"/>
      <point x="29" y="133"/>
      <point x="90" y="48"/>
      <point x="209" y="48" type="curve" smooth="yes"/>
      <point x="310" y="48"/>
      <point x="377" y="97"/>
      <point x="377" y="230" type="curve" smooth="yes"/>
      <point x="377" y="337"/>
      <point x="313" y="393"/>
      <point x="243" y="393" type="curve" smooth="yes"/>
      <point x="207" y="393"/>
      <point x="167" y="383"/>
      <point x="120" y="351" type="curve"/>
      <point x="133" y="251" type="line"/>
      <point x="160" y="282"/>
      <point x="179" y="294"/>
      <point x="205" y="294" type="curve" smooth="yes"/>
      <point x="231" y="294"/>
      <point x="246" y="273"/>
      <point x="246" y="228" type="curve" smooth="yes"/>
      <point x="246" y="183"/>
      <point x="234" y="166"/>
      <point x="207" y="166" type="curve" smooth="yes"/>
      <point x="172" y="166"/>
      <point x="161" y="208"/>
      <point x="161" y="254" type="curve" smooth="yes"/>
      <point x="161" y="283"/>
      <point x="164" y="298"/>
      <point x="168" y="313" type="curve" smooth="yes"/>
      <point x="175" y="343" type="line"/>
      <point x="252" y="428"/>
      <point x="360" y="452"/>
      <point x="467" y="452" type="curve" smooth="yes"/>
      <point x="656" y="452"/>
      <point x="750" y="365"/>
      <point x="750" y="231" type="curve" smooth="yes"/>
      <point x="750" y="167"/>
      <point x="732" y="156"/>
      <point x="711" y="156" type="curve" smooth="yes"/>
      <point x="682" y="156"/>
      <point x="670" y="183"/>
      <point x="670" y="233" type="curve" smooth="yes"/>
      <point x="670" y="262"/>
      <point x="675" y="291"/>
      <point x="686" y="326" type="curve"/>
      <point x="556" y="394" type="line"/>
      <point x="456" y="336"/>
      <point x="385" y="257"/>
      <point x="385" y="130" type="curve" smooth="yes"/>
      <point x="385" y="28"/>
      <point x="437" y="-66"/>
      <point x="563" y="-107" type="curve"/>
      <point x="596" y="-119"/>
      <point x="645" y="-135"/>
      <point x="748" y="-135" type="curve" smooth="yes"/>
      <point x="831" y="-135" type="line"/>
      <point x="831" y="-12" type="line"/>
      <point x="754" y="-12" type="line" smooth="yes"/>
      <point x="659" y="-12"/>
      <point x="615" y="1"/>
      <point x="579" y="24" type="curve" smooth="yes"/>
      <point x="537" y="52"/>
      <point x="518" y="94"/>
      <point x="518" y="147" type="curve" smooth="yes"/>
      <point x="518" y="192"/>
      <point x="530" y="233"/>
      <point x="571" y="274" type="curve"/>
      <point x="566" y="277" type="line"/>
      <point x="554" y="247"/>
      <point x="548" y="224"/>
      <point x="548" y="190" type="curve" smooth="yes"/>
      <point x="548" y="107"/>
      <point x="589" y="37"/>
    </contour>
    <contour>
      <point x="269" y="33" type="curve" smooth="yes"/>
      <point x="159" y="33"/>
      <point x="104" y="-41"/>
      <point x="104" y="-131" type="curve" smooth="yes"/>
      <point x="104" y="-205"/>
      <point x="133" y="-249"/>
      <point x="176" y="-279" type="curve" smooth="yes"/>
      <point x="218" y="-308"/>
      <point x="270" y="-321"/>
      <point x="359" y="-321" type="curve" smooth="yes"/>
      <point x="377" y="-321" type="line" smooth="yes"/>
      <point x="515" y="-321"/>
      <point x="592" y="-280"/>
      <point x="668" y="-154" type="curve" smooth="yes"/>
      <point x="683" y="-129"/>
      <point x="702" y="-106"/>
      <point x="718" y="-88" type="curve"/>
      <point x="563" y="-53" type="line"/>
      <point x="546" y="-69"/>
      <point x="526" y="-94"/>
      <point x="510" y="-118" type="curve" smooth="yes"/>
      <point x="471" y="-177"/>
      <point x="441" y="-207"/>
      <point x="356" y="-207" type="curve" smooth="yes"/>
      <point x="326" y="-207" type="line" smooth="yes"/>
      <point x="244" y="-207"/>
      <point x="235" y="-172"/>
      <point x="235" y="-135" type="curve" smooth="yes"/>
      <point x="235" y="-103"/>
      <point x="247" y="-85"/>
      <point x="267" y="-85" type="curve" smooth="yes"/>
      <point x="285" y="-85"/>
      <point x="297" y="-101"/>
      <point x="297" y="-136" type="curve" smooth="yes"/>
      <point x="297" y="-165"/>
      <point x="291" y="-187"/>
      <point x="277" y="-211" type="curve"/>
      <point x="380" y="-241" type="line"/>
      <point x="402" y="-213"/>
      <point x="420" y="-182"/>
      <point x="420" y="-115" type="curve" smooth="yes"/>
      <point x="420" y="-41"/>
      <point x="377" y="33"/>
    </contour>
  </outline>
</glyph>
<glyph name="katamil" format="2">
  <advance width="762"/>
  <unicode hex="0B95"/>
  <outline>
    <contour>
      <point x="248" y="-12" type="curve" smooth="yes"/>
      <point x="335" y="-12"/>
      <point x="396" y="10"/>
      <point x="433" y="52" type="curve" smooth="yes"/>
      <point x="473" y="96"/>
      <point x="488" y="151"/>
      <point x="488" y="253" type="curve" smooth="yes"/>
      <point x="488" y="445" type="line"/>
      <point x="626" y="445" type="line"/>
      <point x="626" y="569" type="line"/>
      <point x="95" y="569" type="line"/>
      <point x="95" y="286" type="line"/>
      <point x="240" y="302" type="line"/>
      <point x="240" y="445" type="line"/>
      <point x="331" y="445" type="line"/>
      <point x="331" y="218" type="line" smooth="yes"/>
      <point x="331" y="139"/>
      <point x="298" y="112"/>
      <point x="246" y="112" type="curve" smooth="yes"/>
      <point x="210" y="112"/>
      <point x="183" y="129"/>
      <point x="183" y="170" type="curve" smooth="yes"/>
      <point x="183" y="191"/>
      <point x="189" y="206"/>
      <point x="201" y="217" type="curve" smooth="yes"/>
      <point x="217" y="232"/>
      <point x="240" y="237"/>
      <point x="291" y="237" type="curve" smooth="yes"/>
      <point x="461" y="237" type="line" smooth="yes"/>
      <point x="539" y="237"/>
      <point x="582" y="229"/>
      <point x="582" y="167" type="curve" smooth="yes"/>
      <point x="582" y="131"/>
      <point x="561" y="113"/>
      <point x="528" y="113" type="curve" smooth="yes"/>
      <point x="517" y="113"/>
      <point x="506" y="114"/>
      <point x="493" y="117" type="curve"/>
      <point x="471" y="-1" type="line"/>
      <point x="495" y="-8"/>
      <point x="527" y="-12"/>
      <point x="562" y="-12" type="curve" smooth="yes"/>
      <point x="675" y="-12"/>
      <point x="734" y="53"/>
      <point x="734" y="163" type="curve" smooth="yes"/>
      <point x="734" y="224"/>
      <point x="714" y="268"/>
      <point x="680" y="298" type="curve" smooth="yes"/>
      <point x="636" y="337"/>
      <point x="584" y="352"/>
      <point x="485" y="352" type="curve" smooth="yes"/>
      <point x="313" y="352" type="line" smooth="yes"/>
      <point x="121" y="352"/>
      <point x="28" y="278"/>
      <point x="28" y="167" type="curve" smooth="yes"/>
      <point x="28" y="52"/>
      <point x="102" y="-12"/>
    </contour>
  </outline>
</glyph>
<glyph name="catamil" format="2">
  <advance width="674"/>
  <unicode hex="0B9A"/>
  <outline>
    <contour>
      <point x="248" y="-12" type="curve" smooth="yes"/>
      <point x="335" y="-12"/>
      <point x="396" y="10"/>
      <point x="433" y="52" type="curve" smooth="yes"/>
      <point x="473" y="96"/>
      <point x="488" y="151"/>
      <point x="488" y="253" type="curve" smooth="yes"/>
      <point x="488" y="445" type="line"/>
      <point x="630" y="445" type="line"/>
      <point x="630" y="569" type="line"/>
      <point x="95" y="569" type="line"/>
      <point x="95" y="286" type="line"/>
      <point x="240" y="302" type="line"/>
      <point x="240" y="445" type="line"/>
      <point x="331" y="445" type="line"/>
      <point x="331" y="218" type="line" smooth="yes"/>
      <point x="331" y="139"/>
      <point x="298" y="112"/>
      <point x="246" y="112" type="curve" smooth="yes"/>
      <point x="210" y="112"/>
      <point x="183" y="129"/>
      <point x="183" y="170" type="curve" smooth="yes"/>
      <point x="183" y="191"/>
      <point x="189" y="206"/>
      <point x="201" y="217" type="curve" smooth="yes"/>
      <point x="217" y="232"/>
      <point x="240" y="237"/>
      <point x="291" y="237" type="curve" smooth="yes"/>
      <point x="630" y="237" type="line"/>
      <point x="630" y="352" type="line"/>
      <point x="313" y="352" type="line" smooth="yes"/>
      <point x="121" y="352"/>
      <point x="28" y="278"/>
      <point x="28" y="167" type="curve" smooth="yes"/>
      <point x="28" y="52"/>
      <point x="102" y="-12"/>
    </contour>
  </outline>
</glyph>
<glyph name="jatamil" format="2">
  <advance width="877"/>
  <unicode hex="0B9C"/>
  <outline>
    <contour>
      <point x="264" y="581" type="curve" smooth="yes"/>
      <point x="121" y="581"/>
      <point x="31" y="490"/>
      <point x="31" y="357" type="curve" smooth="yes"/>
      <point x="31" y="249"/>
      <point x="74" y="164"/>
      <point x="199" y="164" type="curve" smooth="yes"/>
      <point x="309" y="164"/>
      <point x="359" y="228"/>
      <point x="359" y="325" type="curve" smooth="yes"/>
      <point x="359" y="412"/>
      <point x="316" y="464"/>
      <point x="262" y="486" type="curve"/>
      <point x="146" y="435" type="line"/>
      <point x="211" y="420"/>
      <point x="235" y="377"/>
      <point x="235" y="331" type="curve" smooth="yes"/>
      <point x="235" y="295"/>
      <point x="221" y="278"/>
      <point x="199" y="278" type="curve" smooth="yes"/>
      <point x="171" y="278"/>
      <point x="159" y="304"/>
      <point x="159" y="343" type="curve" smooth="yes"/>
      <point x="159" y="383"/>
      <point x="169" y="414"/>
      <point x="192" y="444" type="curve"/>
      <point x="216" y="454" type="line"/>
      <point x="240" y="462"/>
      <point x="257" y="466"/>
      <point x="281" y="466" type="curve" smooth="yes"/>
      <point x="358" y="466"/>
      <point x="394" y="420"/>
      <point x="394" y="314" type="curve" smooth="yes"/>
      <point x="394" y="204" type="line"/>
      <point x="552" y="204" type="line"/>
      <point x="552" y="334" type="line" smooth="yes"/>
      <point x="552" y="390"/>
      <point x="559" y="418"/>
      <point x="575" y="437" type="curve" smooth="yes"/>
      <point x="585" y="449"/>
      <point x="599" y="455"/>
      <point x="617" y="455" type="curve" smooth="yes"/>
      <point x="659" y="455"/>
      <point x="685" y="413"/>
      <point x="685" y="340" type="curve" smooth="yes"/>
      <point x="685" y="276"/>
      <point x="674" y="231"/>
      <point x="644" y="203" type="curve" smooth="yes"/>
      <point x="611" y="171"/>
      <point x="572" y="160"/>
      <point x="472" y="160" type="curve" smooth="yes"/>
      <point x="397" y="160" type="line" smooth="yes"/>
      <point x="266" y="160"/>
      <point x="196" y="145"/>
      <point x="137" y="112" type="curve" smooth="yes"/>
      <point x="69" y="74"/>
      <point x="31" y="10"/>
      <point x="31" y="-92" type="curve" smooth="yes"/>
      <point x="31" y="-215"/>
      <point x="94" y="-321"/>
      <point x="255" y="-321" type="curve" smooth="yes"/>
      <point x="376" y="-321"/>
      <point x="441" y="-281"/>
      <point x="504" y="-186" type="curve" smooth="yes"/>
      <point x="547" y="-121"/>
      <point x="558" y="-108"/>
      <point x="589" y="-86" type="curve"/>
      <point x="603" y="-77"/>
      <point x="622" y="-73"/>
      <point x="638" y="-73" type="curve" smooth="yes"/>
      <point x="676" y="-73"/>
      <point x="697" y="-109"/>
      <point x="697" y="-150" type="curve" smooth="yes"/>
      <point x="697" y="-181"/>
      <point x="688" y="-203"/>
      <point x="662" y="-203" type="curve" smooth="yes"/>
      <point x="635" y="-203"/>
      <point x="624" y="-181"/>
      <point x="624" y="-151" type="curve" smooth="yes"/>
      <point x="624" y="-114"/>
      <point x="642" y="-78"/>
      <point x="685" y="-40" type="curve"/>
      <point x="563" y="-21" type="line"/>
      <point x="533" y="-58"/>
      <point x="505" y="-106"/>
      <point x="505" y="-165" type="curve" smooth="yes"/>
      <point x="505" y="-229"/>
      <point x="539" y="-321"/>
      <point x="669" y="-321" type="curve" smooth="yes"/>
      <point x="793" y="-321"/>
      <point x="835" y="-245"/>
      <point x="835" y="-149" type="curve" smooth="yes"/>
      <point x="835" y="-50"/>
      <point x="778" y="43"/>
      <point x="638" y="43" type="curve" smooth="yes"/>
      <point x="568" y="43"/>
      <point x="487" y="30"/>
      <point x="406" y="-95" type="curve" smooth="yes"/>
      <point x="351" y="-178"/>
      <point x="318" y="-197"/>
      <point x="269" y="-197" type="curve" smooth="yes"/>
      <point x="215" y="-197"/>
      <point x="192" y="-155"/>
      <point x="192" y="-94" type="curve" smooth="yes"/>
      <point x="192" y="-44"/>
      <point x="206" y="-12"/>
      <point x="235" y="8" type="curve" smooth="yes"/>
      <point x="264" y="28"/>
      <point x="298" y="37"/>
      <point x="387" y="37" type="curve" smooth="yes"/>
      <point x="511" y="37" type="line" smooth="yes"/>
      <point x="626" y="37"/>
      <point x="697" y="54"/>
      <point x="761" y="108" type="curve" smooth="yes"/>
      <point x="815" y="155"/>
      <point x="846" y="220"/>
      <point x="846" y="329" type="curve" smooth="yes"/>
      <point x="846" y="458"/>
      <point x="781" y="581"/>
      <point x="632" y="581" type="curve" smooth="yes"/>
      <point x="534" y="581"/>
      <point x="472" y="525"/>
      <point x="438" y="438" type="curve"/>
      <point x="501" y="433" type="line"/>
      <point x="460" y="522"/>
      <point x="392" y="581"/>
    </contour>
  </outline>
</glyph>
<glyph name="nyatamil" format="2">
  <advance width="1104"/>
  <unicode hex="0B9E"/>
  <outline>
    <contour>
      <point x="907" y="346" type="curve" smooth="yes"/>
      <point x="870" y="346"/>
      <point x="833" y="336"/>
      <point x="803" y="315" type="curve"/>
      <point x="815" y="206" type="line"/>
      <point x="829" y="216"/>
      <point x="843" y="222"/>
      <point x="861" y="222" type="curve" smooth="yes"/>
      <point x="893" y="222"/>
      <point x="916" y="190"/>
      <point x="916" y="96" type="curve" smooth="yes"/>
      <point x="916" y="-106"/>
      <point x="788" y="-192"/>
      <point x="571" y="-192" type="curve" smooth="yes"/>
      <point x="559" y="-192" type="line" smooth="yes"/>
      <point x="286" y="-192"/>
      <point x="189" y="-51"/>
      <point x="189" y="162" type="curve" smooth="yes"/>
      <point x="189" y="172" type="line" smooth="yes"/>
      <point x="189" y="277"/>
      <point x="222" y="400"/>
      <point x="288" y="515" type="curve"/>
      <point x="152" y="582" type="line"/>
      <point x="87" y="466"/>
      <point x="39" y="331"/>
      <point x="39" y="175" type="curve" smooth="yes"/>
      <point x="39" y="165" type="line" smooth="yes"/>
      <point x="39" y="-106"/>
      <point x="176" y="-321"/>
      <point x="554" y="-321" type="curve" smooth="yes"/>
      <point x="573" y="-321" type="line" smooth="yes"/>
      <point x="844" y="-321"/>
      <point x="1076" y="-215"/>
      <point x="1076" y="102" type="curve" smooth="yes"/>
      <point x="1076" y="255"/>
      <point x="1015" y="346"/>
    </contour>
    <contour>
      <point x="448" y="-12" type="curve" smooth="yes"/>
      <point x="577" y="-12"/>
      <point x="632" y="60"/>
      <point x="632" y="175" type="curve" smooth="yes"/>
      <point x="632" y="290"/>
      <point x="576" y="352"/>
      <point x="478" y="352" type="curve" smooth="yes"/>
      <point x="417" y="352"/>
      <point x="376" y="319"/>
      <point x="331" y="272" type="curve"/>
      <point x="357" y="179" type="line"/>
      <point x="388" y="218"/>
      <point x="414" y="237"/>
      <point x="437" y="237" type="curve" smooth="yes"/>
      <point x="464" y="237"/>
      <point x="483" y="221"/>
      <point x="483" y="172" type="curve" smooth="yes"/>
      <point x="483" y="124"/>
      <point x="471" y="107"/>
      <point x="444" y="107" type="curve" smooth="yes"/>
      <point x="412" y="107"/>
      <point x="397" y="142"/>
      <point x="397" y="216" type="curve" smooth="yes"/>
      <point x="397" y="320"/>
      <point x="425" y="373"/>
      <point x="474" y="408" type="curve" smooth="yes"/>
      <point x="509" y="433"/>
      <point x="555" y="445"/>
      <point x="637" y="445" type="curve" smooth="yes"/>
      <point x="666" y="445" type="line"/>
      <point x="687" y="569" type="line"/>
      <point x="671" y="569" type="line" smooth="yes"/>
      <point x="503" y="569"/>
      <point x="422" y="540"/>
      <point x="359" y="488" type="curve" smooth="yes"/>
      <point x="294" y="434"/>
      <point x="255" y="355"/>
      <point x="255" y="245" type="curve" smooth="yes"/>
      <point x="255" y="77"/>
      <point x="324" y="-12"/>
    </contour>
    <contour>
      <point x="676" y="0" type="line"/>
      <point x="837" y="0" type="line"/>
      <point x="837" y="445" type="line"/>
      <point x="928" y="445" type="line"/>
      <point x="928" y="569" type="line"/>
      <point x="678" y="569" type="line"/>
      <point x="650" y="445" type="line"/>
      <point x="676" y="445" type="line"/>
    </contour>
  </outline>
</glyph>
<glyph name="ttatamil" format="2">
  <advance width="576"/>
  <unicode hex="0B9F"/>
  <outline>
    <contour>
      <point x="53" y="0" type="line"/>
      <point x="560" y="0" type="line"/>
      <point x="560" y="124" type="line"/>
      <point x="214" y="124" type="line"/>
      <point x="214" y="569" type="line"/>
      <point x="53" y="569" type="line"/>
    </contour>
  </outline>
</glyph>
<glyph name="nnatamil" format="2">
  <advance width="1476"/>
  <unicode hex="0BA3"/>
  <outline>
    <contour>
      <point x="223" y="-12" type="curve" smooth="yes"/>
      <point x="352" y="-12"/>
      <point x="407" y="60"/>
      <point x="407" y="175" type="curve" smooth="yes"/>
      <point x="407" y="290"/>
      <point x="351" y="352"/>
      <point x="253" y="352" type="curve" smooth="yes"/>
      <point x="192" y="352"/>
      <point x="151" y="319"/>
      <point x="106" y="272" type="curve"/>
      <point x="132" y="179" type="line"/>
      <point x="163" y="218"/>
      <point x="189" y="237"/>
      <point x="212" y="237" type="curve" smooth="yes"/>
      <point x="239" y="237"/>
      <point x="258" y="221"/>
      <point x="258" y="172" type="curve" smooth="yes"/>
      <point x="258" y="124"/>
      <point x="246" y="107"/>
      <point x="219" y="107" type="curve" smooth="yes"/>
      <point x="187" y="107"/>
      <point x="172" y="141"/>
      <point x="172" y="221" type="curve" smooth="yes"/>
      <point x="172" y="238"/>
      <point x="173" y="259"/>
      <point x="175" y="270" type="curve"/>
      <point x="188" y="377"/>
      <point x="267" y="457"/>
      <point x="380" y="457" type="curve" smooth="yes"/>
      <point x="458" y="457"/>
      <point x="515" y="432"/>
      <point x="562" y="389" type="curve"/>
      <point x="615" y="343"/>
      <point x="638" y="273"/>
      <point x="638" y="185" type="curve" smooth="yes"/>
      <point x="638" y="124"/>
      <point x="628" y="108"/>
      <point x="604" y="108" type="curve" smooth="yes"/>
      <point x="585" y="108"/>
      <point x="572" y="126"/>
      <point x="572" y="187" type="curve" smooth="yes"/>
      <point x="572" y="272"/>
      <point x="593" y="345"/>
      <point x="636" y="394" type="curve"/>
      <point x="677" y="434"/>
      <point x="717" y="457"/>
      <point x="786" y="457" type="curve" smooth="yes"/>
      <point x="861" y="457"/>
      <point x="910" y="434"/>
      <point x="948" y="396" type="curve"/>
      <point x="998" y="341"/>
      <point x="1017" y="281"/>
      <point x="1017" y="190" type="curve" smooth="yes"/>
      <point x="1017" y="124"/>
      <point x="1007" y="108"/>
      <point x="983" y="108" type="curve" smooth="yes"/>
      <point x="964" y="108"/>
      <point x="951" y="126"/>
      <point x="951" y="187" type="curve" smooth="yes"/>
      <point x="951" y="271"/>
      <point x="971" y="358"/>
      <point x="1025" y="384" type="curve"/>
      <point x="1066" y="422"/>
      <point x="1123" y="445"/>
      <point x="1204" y="445" type="curve" smooth="yes"/>
      <point x="1208" y="445" type="line"/>
      <point x="1208" y="0" type="line"/>
      <point x="1369" y="0" type="line"/>
      <point x="1369" y="445" type="line"/>
      <point x="1460" y="445" type="line"/>
      <point x="1460" y="569" type="line"/>
      <point x="1257" y="569" type="line" smooth="yes"/>
      <point x="1093" y="569"/>
      <point x="1025" y="542"/>
      <point x="962" y="498" type="curve"/>
      <point x="926" y="457" type="line"/>
      <point x="849" y="386"/>
      <point x="808" y="311"/>
      <point x="808" y="197" type="curve" smooth="yes"/>
      <point x="808" y="58"/>
      <point x="879" y="-12"/>
      <point x="981" y="-12" type="curve" smooth="yes"/>
      <point x="1097" y="-12"/>
      <point x="1158" y="49"/>
      <point x="1158" y="191" type="curve" smooth="yes"/>
      <point x="1158" y="307"/>
      <point x="1121" y="393"/>
      <point x="1050" y="467" type="curve"/>
      <point x="1019" y="500" type="line"/>
      <point x="952" y="559"/>
      <point x="880" y="581"/>
      <point x="791" y="581" type="curve" smooth="yes"/>
      <point x="704" y="581"/>
      <point x="626" y="560"/>
      <point x="564" y="507" type="curve"/>
      <point x="527" y="462" type="line"/>
      <point x="467" y="391"/>
      <point x="429" y="311"/>
      <point x="429" y="197" type="curve" smooth="yes"/>
      <point x="429" y="58"/>
      <point x="500" y="-12"/>
      <point x="602" y="-12" type="curve" smooth="yes"/>
      <point x="714" y="-12"/>
      <point x="779" y="49"/>
      <point x="779" y="191" type="curve" smooth="yes"/>
      <point x="779" y="303"/>
      <point x="739" y="393"/>
      <point x="661" y="458" type="curve"/>
      <point x="630" y="502" type="line"/>
      <point x="543" y="563"/>
      <point x="481" y="581"/>
      <point x="383" y="581" type="curve" smooth="yes"/>
      <point x="167" y="581"/>
      <point x="30" y="451"/>
      <point x="30" y="249" type="curve" smooth="yes"/>
      <point x="30" y="77"/>
      <point x="99" y="-12"/>
    </contour>
  </outline>
</glyph>
<glyph name="tatamil" format="2">
  <advance width="759"/>
  <unicode hex="0BA4"/>
  <outline>
    <contour>
      <point x="248" y="-12" type="curve" smooth="yes"/>
      <point x="335" y="-12"/>
      <point x="396" y="10"/>
      <point x="433" y="52" type="curve" smooth="yes"/>
      <point x="473" y="96"/>
      <point x="488" y="151"/>
      <point x="488" y="253" type="curve" smooth="yes"/>
      <point x="488" y="445" type="line"/>
      <point x="626" y="445" type="line"/>
      <point x="626" y="569" type="line"/>
      <point x="95" y="569" type="line"/>
      <point x="95" y="286" type="line"/>
      <point x="240" y="302" type="line"/>
      <point x="240" y="445" type="line"/>
      <point x="331" y="445" type="line"/>
      <point x="331" y="218" type="line" smooth="yes"/>
      <point x="331" y="139"/>
      <point x="298" y="112"/>
      <point x="246" y="112" type="curve" smooth="yes"/>
      <point x="210" y="112"/>
      <point x="183" y="129"/>
      <point x="183" y="170" type="curve" smooth="yes"/>
      <point x="183" y="191"/>
      <point x="189" y="206"/>
      <point x="201" y="217" type="curve" smooth="yes"/>
      <point x="217" y="232"/>
      <point x="240" y="237"/>
      <point x="291" y="237" type="curve" smooth="yes"/>
      <point x="422" y="237" type="line" smooth="yes"/>
      <point x="534" y="237"/>
      <point x="575" y="183"/>
      <point x="575" y="105" type="curve" smooth="yes"/>
      <point x="575" y="51"/>
      <point x="561" y="15"/>
      <point x="535" y="-9" type="curve" smooth="yes"/>
      <point x="501" y="-40"/>
      <point x="462" y="-50"/>
      <point x="369" y="-50" type="curve" smooth="yes"/>
      <point x="286" y="-50" type="line" smooth="yes"/>
      <point x="180" y="-50"/>
      <point x="133" y="-61"/>
      <point x="95" y="-85" type="curve" smooth="yes"/>
      <point x="50" y="-114"/>
      <point x="28" y="-161"/>
      <point x="28" y="-233" type="curve" smooth="yes"/>
      <point x="28" y="-262"/>
      <point x="31" y="-291"/>
      <point x="35" y="-322" type="curve"/>
      <point x="193" y="-313" type="line"/>
      <point x="191" y="-300"/>
      <point x="189" y="-278"/>
      <point x="189" y="-263" type="curve" smooth="yes"/>
      <point x="189" y="-230"/>
      <point x="198" y="-208"/>
      <point x="216" y="-194" type="curve" smooth="yes"/>
      <point x="234" y="-180"/>
      <point x="254" y="-174"/>
      <point x="316" y="-174" type="curve" smooth="yes"/>
      <point x="392" y="-174" type="line" smooth="yes"/>
      <point x="505" y="-174"/>
      <point x="577" y="-156"/>
      <point x="637" y="-113" type="curve" smooth="yes"/>
      <point x="696" y="-71"/>
      <point x="733" y="-2"/>
      <point x="733" y="101" type="curve" smooth="yes"/>
      <point x="733" y="265"/>
      <point x="632" y="352"/>
      <point x="424" y="352" type="curve" smooth="yes"/>
      <point x="313" y="352" type="line" smooth="yes"/>
      <point x="121" y="352"/>
      <point x="28" y="278"/>
      <point x="28" y="167" type="curve" smooth="yes"/>
      <point x="28" y="52"/>
      <point x="102" y="-12"/>
    </contour>
  </outline>
</glyph>
<glyph name="natamil" format="2">
  <advance width="731"/>
  <unicode hex="0BA8"/>
  <outline>
    <contour>
      <point x="531" y="370" type="curve" smooth="yes"/>
      <point x="494" y="370"/>
      <point x="456" y="361"/>
      <point x="419" y="338" type="curve"/>
      <point x="434" y="227" type="line"/>
      <point x="450" y="238"/>
      <point x="467" y="246"/>
      <point x="483" y="246" type="curve" smooth="yes"/>
      <point x="520" y="246"/>
      <point x="543" y="213"/>
      <point x="543" y="127" type="curve" smooth="yes"/>
      <point x="543" y="56"/>
      <point x="533" y="9"/>
      <point x="506" y="-18" type="curve" smooth="yes"/>
      <point x="483" y="-40"/>
      <point x="455" y="-50"/>
      <point x="377" y="-50" type="curve" smooth="yes"/>
      <point x="287" y="-50" type="line" smooth="yes"/>
      <point x="181" y="-50"/>
      <point x="134" y="-61"/>
      <point x="96" y="-85" type="curve" smooth="yes"/>
      <point x="51" y="-114"/>
      <point x="29" y="-161"/>
      <point x="29" y="-233" type="curve" smooth="yes"/>
      <point x="29" y="-262"/>
      <point x="32" y="-291"/>
      <point x="36" y="-322" type="curve"/>
      <point x="194" y="-313" type="line"/>
      <point x="192" y="-300"/>
      <point x="190" y="-279"/>
      <point x="190" y="-264" type="curve" smooth="yes"/>
      <point x="190" y="-231"/>
      <point x="199" y="-208"/>
      <point x="217" y="-194" type="curve" smooth="yes"/>
      <point x="235" y="-180"/>
      <point x="254" y="-174"/>
      <point x="316" y="-174" type="curve" smooth="yes"/>
      <point x="360" y="-174" type="line" smooth="yes"/>
      <point x="494" y="-174"/>
      <point x="558" y="-162"/>
      <point x="615" y="-114" type="curve" smooth="yes"/>
      <point x="671" y="-67"/>
      <point x="701" y="10"/>
      <point x="701" y="133" type="curve" smooth="yes"/>
      <point x="701" y="261"/>
      <point x="650" y="370"/>
    </contour>
    <contour>
      <point x="53" y="0" type="line"/>
      <point x="214" y="0" type="line"/>
      <point x="214" y="445" type="line"/>
      <point x="293" y="445" type="line"/>
      <point x="293" y="0" type="line"/>
      <point x="454" y="0" type="line"/>
      <point x="454" y="445" type="line"/>
      <point x="544" y="445" type="line"/>
      <point x="544" y="569" type="line"/>
      <point x="53" y="569" type="line"/>
    </contour>
  </outline>
</glyph>
<glyph name="nnnatamil" format="2">
  <advance width="1097"/>
  <unicode hex="0BA9"/>
  <outline>
    <contour>
      <point x="223" y="-12" type="curve" smooth="yes"/>
      <point x="352" y="-12"/>
      <point x="407" y="60"/>
      <point x="407" y="175" type="curve" smooth="yes"/>
      <point x="407" y="290"/>
      <point x="351" y="352"/>
      <point x="253" y="352" type="curve" smooth="yes"/>
      <point x="192" y="352"/>
      <point x="151" y="319"/>
      <point x="106" y="272" type="curve"/>
      <point x="132" y="179" type="line"/>
      <point x="163" y="218"/>
      <point x="189" y="237"/>
      <point x="212" y="237" type="curve" smooth="yes"/>
      <point x="239" y="237"/>
      <point x="258" y="221"/>
      <point x="258" y="172" type="curve" smooth="yes"/>
      <point x="258" y="124"/>
      <point x="246" y="107"/>
      <point x="219" y="107" type="curve" smooth="yes"/>
      <point x="187" y="107"/>
      <point x="172" y="141"/>
      <point x="172" y="221" type="curve" smooth="yes"/>
      <point x="172" y="238"/>
      <point x="173" y="259"/>
      <point x="175" y="270" type="curve"/>
      <point x="188" y="377"/>
      <point x="267" y="457"/>
      <point x="380" y="457" type="curve" smooth="yes"/>
      <point x="458" y="457"/>
      <point x="515" y="432"/>
      <point x="562" y="389" type="curve"/>
      <point x="615" y="343"/>
      <point x="638" y="273"/>
      <point x="638" y="190" type="curve" smooth="yes"/>
      <point x="638" y="124"/>
      <point x="628" y="108"/>
      <point x="604" y="108" type="curve" smooth="yes"/>
      <point x="585" y="108"/>
      <point x="572" y="126"/>
      <point x="572" y="187" type="curve" smooth="yes"/>
      <point x="572" y="271"/>
      <point x="592" y="358"/>
      <point x="646" y="384" type="curve"/>
      <point x="687" y="422"/>
      <point x="744" y="445"/>
      <point x="825" y="445" type="curve" smooth="yes"/>
      <point x="829" y="445" type="line"/>
      <point x="829" y="0" type="line"/>
      <point x="990" y="0" type="line"/>
      <point x="990" y="445" type="line"/>
      <point x="1081" y="445" type="line"/>
      <point x="1081" y="569" type="line"/>
      <point x="878" y="569" type="line" smooth="yes"/>
      <point x="714" y="569"/>
      <point x="646" y="542"/>
      <point x="583" y="498" type="curve"/>
      <point x="547" y="457" type="line"/>
      <point x="470" y="386"/>
      <point x="429" y="309"/>
      <point x="429" y="197" type="curve" smooth="yes"/>
      <point x="429" y="58"/>
      <point x="500" y="-12"/>
      <point x="602" y="-12" type="curve" smooth="yes"/>
      <point x="714" y="-12"/>
      <point x="779" y="49"/>
      <point x="779" y="191" type="curve" smooth="yes"/>
      <point x="779" y="303"/>
      <point x="739" y="393"/>
      <point x="661" y="458" type="curve"/>
      <point x="630" y="502" type="line"/>
      <point x="543" y="563"/>
      <point x="483" y="581"/>
      <point x="383" y="581" type="curve" smooth="yes"/>
      <point x="167" y="581"/>
      <point x="30" y="451"/>
      <point x="30" y="249" type="curve" smooth="yes"/>
      <point x="30" y="77"/>
      <point x="99" y="-12"/>
    </contour>
  </outline>
</glyph>
<glyph name="patamil" format="2">
  <advance width="658"/>
  <unicode hex="0BAA"/>
  <outline>
    <contour>
      <point x="53" y="0" type="line"/>
      <point x="605" y="0" type="line"/>
      <point x="605" y="569" type="line"/>
      <point x="444" y="569" type="line"/>
      <point x="444" y="124" type="line"/>
      <point x="214" y="124" type="line"/>
      <point x="214" y="569" type="line"/>
      <point x="53" y="569" type="line"/>
    </contour>
  </outline>
</glyph>
<glyph name="matamil" format="2">
  <advance width="753"/>
  <unicode hex="0BAE"/>
  <outline>
    <contour>
      <point x="496" y="581" type="curve" smooth="yes"/>
      <point x="441" y="581"/>
      <point x="399" y="566"/>
      <point x="370" y="540" type="curve" smooth="yes"/>
      <point x="332" y="506"/>
      <point x="313" y="460"/>
      <point x="313" y="384" type="curve" smooth="yes"/>
      <point x="313" y="124" type="line"/>
      <point x="214" y="124" type="line"/>
      <point x="214" y="569" type="line"/>
      <point x="53" y="569" type="line"/>
      <point x="53" y="0" type="line"/>
      <point x="450" y="0" type="line" smooth="yes"/>
      <point x="546" y="0"/>
      <point x="594" y="15"/>
      <point x="636" y="47" type="curve" smooth="yes"/>
      <point x="690" y="88"/>
      <point x="721" y="161"/>
      <point x="721" y="276" type="curve" smooth="yes"/>
      <point x="721" y="460"/>
      <point x="657" y="581"/>
    </contour>
    <contour>
      <point x="506" y="457" type="curve" smooth="yes"/>
      <point x="543" y="457"/>
      <point x="560" y="386"/>
      <point x="560" y="275" type="curve" smooth="yes"/>
      <point x="560" y="153"/>
      <point x="530" y="124"/>
      <point x="475" y="124" type="curve"/>
      <point x="474" y="124" type="line"/>
      <point x="474" y="394" type="line" smooth="yes"/>
      <point x="474" y="431"/>
      <point x="478" y="440"/>
      <point x="485" y="448" type="curve" smooth="yes"/>
      <point x="491" y="455"/>
      <point x="499" y="457"/>
    </contour>
  </outline>
</glyph>
<glyph name="yatamil" format="2">
  <advance width="832"/>
  <unicode hex="0BAF"/>
  <outline>
    <contour>
      <point x="293" y="0" type="line"/>
      <point x="779" y="0" type="line"/>
      <point x="779" y="569" type="line"/>
      <point x="618" y="569" type="line"/>
      <point x="618" y="124" type="line"/>
      <point x="454" y="124" type="line"/>
      <point x="454" y="569" type="line"/>
      <point x="293" y="569" type="line"/>
    </contour>
    <contour>
      <point x="199" y="-12" type="curve" smooth="yes"/>
      <point x="264" y="-12"/>
      <point x="296" y="14"/>
      <point x="324" y="48" type="curve"/>
      <point x="315" y="152" type="line"/>
      <point x="299" y="127"/>
      <point x="282" y="111"/>
      <point x="256" y="111" type="curve" smooth="yes"/>
      <point x="243" y="111"/>
      <point x="235" y="114"/>
      <point x="228" y="120" type="curve" smooth="yes"/>
      <point x="216" y="131"/>
      <point x="213" y="151"/>
      <point x="213" y="189" type="curve" smooth="yes"/>
      <point x="213" y="569" type="line"/>
      <point x="52" y="569" type="line"/>
      <point x="52" y="215" type="line" smooth="yes"/>
      <point x="52" y="119"/>
      <point x="64" y="70"/>
      <point x="94" y="33" type="curve" smooth="yes"/>
      <point x="117" y="5"/>
      <point x="151" y="-12"/>
    </contour>
  </outline>
</glyph>
<glyph name="ratamil" format="2">
  <advance width="567"/>
  <unicode hex="0BB0"/>
  <outline>
    <contour>
      <point x="284" y="-214" type="line"/>
      <point x="459" y="0" type="line"/>
      <point x="459" y="445" type="line"/>
      <point x="551" y="445" type="line"/>
      <point x="551" y="569" type="line"/>
      <point x="53" y="569" type="line"/>
      <point x="53" y="0" type="line"/>
      <point x="214" y="0" type="line"/>
      <point x="214" y="445" type="line"/>
      <point x="298" y="445" type="line"/>
      <point x="298" y="40" type="line"/>
      <point x="164" y="-118" type="line"/>
    </contour>
  </outline>
</glyph>
<glyph name="rratamil" format="2">
  <advance width="810"/>
  <unicode hex="0BB1"/>
  <outline>
    <contour>
      <point x="548" y="581" type="curve" smooth="yes"/>
      <point x="450" y="581"/>
      <point x="393" y="533"/>
      <point x="349" y="445" type="curve"/>
      <point x="408" y="439" type="line"/>
      <point x="382" y="528"/>
      <point x="330" y="581"/>
      <point x="237" y="581" type="curve" smooth="yes"/>
      <point x="181" y="581"/>
      <point x="148" y="568"/>
      <point x="118" y="542" type="curve" smooth="yes"/>
      <point x="71" y="501"/>
      <point x="52" y="449"/>
      <point x="52" y="329" type="curve" smooth="yes"/>
      <point x="52" y="0" type="line"/>
      <point x="213" y="0" type="line"/>
      <point x="213" y="354" type="line" smooth="yes"/>
      <point x="213" y="410"/>
      <point x="218" y="431"/>
      <point x="230" y="445" type="curve" smooth="yes"/>
      <point x="237" y="453"/>
      <point x="247" y="457"/>
      <point x="258" y="457" type="curve" smooth="yes"/>
      <point x="269" y="457"/>
      <point x="278" y="453"/>
      <point x="285" y="445" type="curve" smooth="yes"/>
      <point x="298" y="429"/>
      <point x="300" y="408"/>
      <point x="300" y="355" type="curve" smooth="yes"/>
      <point x="300" y="0" type="line"/>
      <point x="461" y="0" type="line"/>
      <point x="461" y="335" type="line" smooth="yes"/>
      <point x="461" y="389"/>
      <point x="469" y="418"/>
      <point x="484" y="437" type="curve" smooth="yes"/>
      <point x="495" y="451"/>
      <point x="510" y="457"/>
      <point x="529" y="457" type="curve" smooth="yes"/>
      <point x="584" y="457"/>
      <point x="613" y="391"/>
      <point x="613" y="236" type="curve" smooth="yes"/>
      <point x="613" y="-16"/>
      <point x="548" y="-50"/>
      <point x="365" y="-50" type="curve" smooth="yes"/>
      <point x="287" y="-50" type="line" smooth="yes"/>
      <point x="181" y="-50"/>
      <point x="134" y="-61"/>
      <point x="96" y="-85" type="curve" smooth="yes"/>
      <point x="51" y="-114"/>
      <point x="29" y="-161"/>
      <point x="29" y="-233" type="curve" smooth="yes"/>
      <point x="29" y="-262"/>
      <point x="32" y="-291"/>
      <point x="36" y="-322" type="curve"/>
      <point x="194" y="-313" type="line"/>
      <point x="192" y="-300"/>
      <point x="190" y="-279"/>
      <point x="190" y="-264" type="curve" smooth="yes"/>
      <point x="190" y="-231"/>
      <point x="199" y="-208"/>
      <point x="217" y="-194" type="curve" smooth="yes"/>
      <point x="235" y="-180"/>
      <point x="254" y="-174"/>
      <point x="316" y="-174" type="curve" smooth="yes"/>
      <point x="393" y="-174" type="line" smooth="yes"/>
      <point x="556" y="-174"/>
      <point x="633" y="-142"/>
      <point x="692" y="-75" type="curve" smooth="yes"/>
      <point x="751" y="-8"/>
      <point x="777" y="96"/>
      <point x="777" y="247" type="curve" smooth="yes"/>
      <point x="777" y="459"/>
      <point x="695" y="581"/>
    </contour>
  </outline>
</glyph>
<glyph name="llatamil" format="2">
  <advance width="958"/>
  <unicode hex="0BB3"/>
  <outline>
    <contour>
      <point x="223" y="-12" type="curve" smooth="yes"/>
      <point x="352" y="-12"/>
      <point x="407" y="60"/>
      <point x="407" y="175" type="curve" smooth="yes"/>
      <point x="407" y="290"/>
      <point x="351" y="352"/>
      <point x="253" y="352" type="curve" smooth="yes"/>
      <point x="192" y="352"/>
      <point x="151" y="319"/>
      <point x="106" y="272" type="curve"/>
      <point x="132" y="179" type="line"/>
      <point x="163" y="218"/>
      <point x="189" y="237"/>
      <point x="212" y="237" type="curve" smooth="yes"/>
      <point x="239" y="237"/>
      <point x="258" y="221"/>
      <point x="258" y="172" type="curve" smooth="yes"/>
      <point x="258" y="124"/>
      <point x="246" y="107"/>
      <point x="219" y="107" type="curve" smooth="yes"/>
      <point x="187" y="107"/>
      <point x="172" y="141"/>
      <point x="172" y="224" type="curve" smooth="yes"/>
      <point x="172" y="385"/>
      <point x="227" y="457"/>
      <point x="319" y="457" type="curve" smooth="yes"/>
      <point x="386" y="457"/>
      <point x="436" y="411"/>
      <point x="479" y="358" type="curve"/>
      <point x="532" y="473" type="line"/>
      <point x="452" y="549"/>
      <point x="398" y="581"/>
      <point x="313" y="581" type="curve" smooth="yes"/>
      <point x="168" y="581"/>
      <point x="30" y="479"/>
      <point x="30" y="249" type="curve" smooth="yes"/>
      <point x="30" y="77"/>
      <point x="99" y="-12"/>
    </contour>
    <contour>
      <point x="451" y="0" type="line"/>
      <point x="612" y="0" type="line"/>
      <point x="612" y="445" type="line"/>
      <point x="691" y="445" type="line"/>
      <point x="691" y="0" type="line"/>
      <point x="852" y="0" type="line"/>
      <point x="852" y="445" type="line"/>
      <point x="942" y="445" type="line"/>
      <point x="942" y="569" type="line"/>
      <point x="461" y="569" type="line"/>
      <point x="460" y="469" type="line"/>
      <point x="451" y="478" type="line"/>
    </contour>
  </outline>
</glyph>
<glyph name="lllatamil" format="2">
  <advance width="753"/>
  <unicode hex="0BB4"/>
  <outline>
    <contour>
      <point x="496" y="581" type="curve" smooth="yes"/>
      <point x="441" y="581"/>
      <point x="399" y="566"/>
      <point x="370" y="540" type="curve" smooth="yes"/>
      <point x="332" y="506"/>
      <point x="313" y="460"/>
      <point x="313" y="384" type="curve" smooth="yes"/>
      <point x="313" y="124" type="line"/>
      <point x="214" y="124" type="line"/>
      <point x="214" y="569" type="line"/>
      <point x="53" y="569" type="line"/>
      <point x="53" y="0" type="line"/>
      <point x="450" y="0" type="line" smooth="yes"/>
      <point x="546" y="0"/>
      <point x="594" y="15"/>
      <point x="636" y="47" type="curve" smooth="yes"/>
      <point x="690" y="88"/>
      <point x="721" y="161"/>
      <point x="721" y="276" type="curve" smooth="yes"/>
      <point x="721" y="460"/>
      <point x="657" y="581"/>
    </contour>
    <contour>
      <point x="506" y="457" type="curve" smooth="yes"/>
      <point x="543" y="457"/>
      <point x="560" y="386"/>
      <point x="560" y="275" type="curve" smooth="yes"/>
      <point x="560" y="153"/>
      <point x="530" y="124"/>
      <point x="475" y="124" type="curve"/>
      <point x="474" y="124" type="line"/>
      <point x="474" y="394" type="line" smooth="yes"/>
      <point x="474" y="431"/>
      <point x="478" y="440"/>
      <point x="485" y="448" type="curve" smooth="yes"/>
      <point x="491" y="455"/>
      <point x="499" y="457"/>
    </contour>
    <contour>
      <point x="195" y="-30" type="curve" smooth="yes"/>
      <point x="84" y="-30"/>
      <point x="34" y="-88"/>
      <point x="34" y="-167" type="curve" smooth="yes"/>
      <point x="34" y="-223"/>
      <point x="52" y="-254"/>
      <point x="79" y="-278" type="curve" smooth="yes"/>
      <point x="114" y="-309"/>
      <point x="161" y="-321"/>
      <point x="232" y="-321" type="curve" smooth="yes"/>
      <point x="237" y="-321" type="line" smooth="yes"/>
      <point x="348" y="-321"/>
      <point x="422" y="-288"/>
      <point x="479" y="-174" type="curve" smooth="yes"/>
      <point x="489" y="-153"/>
      <point x="510" y="-121"/>
      <point x="543" y="-100" type="curve"/>
      <point x="436" y="-68" type="line"/>
      <point x="378" y="-75"/>
      <point x="352" y="-106"/>
      <point x="338" y="-132" type="curve" smooth="yes"/>
      <point x="314" y="-176"/>
      <point x="290" y="-201"/>
      <point x="239" y="-201" type="curve" smooth="yes"/>
      <point x="234" y="-201" type="line" smooth="yes"/>
      <point x="200" y="-201"/>
      <point x="185" y="-190"/>
      <point x="185" y="-170" type="curve" smooth="yes"/>
      <point x="185" y="-155"/>
      <point x="194" y="-143"/>
      <point x="219" y="-143" type="curve" smooth="yes"/>
      <point x="229" y="-143"/>
      <point x="238" y="-144"/>
      <point x="249" y="-146" type="curve"/>
      <point x="260" y="-37" type="line"/>
      <point x="239" y="-32"/>
      <point x="215" y="-30"/>
    </contour>
    <contour>
      <point x="456" y="-189" type="line"/>
      <point x="615" y="-189" type="line"/>
      <point x="615" y="-67" type="line"/>
      <point x="559" y="-67" type="line" smooth="yes"/>
      <point x="512" y="-67"/>
      <point x="497" y="-62"/>
      <point x="485" y="-50" type="curve" smooth="yes"/>
      <point x="473" y="-38"/>
      <point x="470" y="-21"/>
      <point x="470" y="3" type="curve"/>
      <point x="313" y="2" type="line"/>
      <point x="316" y="-110"/>
      <point x="381" y="-159"/>
      <point x="445" y="-176" type="curve"/>
    </contour>
  </outline>
</glyph>
<glyph name="shatamil" format="2">
  <advance width="1022"/>
  <unicode hex="0BB6"/>
  <outline>
    <contour>
      <point x="268" y="-12" type="curve" smooth="yes"/>
      <point x="331" y="-12"/>
      <point x="378" y="2"/>
      <point x="411" y="28" type="curve" smooth="yes"/>
      <point x="461" y="68"/>
      <point x="481" y="130"/>
      <point x="481" y="244" type="curve" smooth="yes"/>
      <point x="481" y="445" type="line"/>
      <point x="537" y="445" type="line"/>
      <point x="537" y="247" type="line" smooth="yes"/>
      <point x="537" y="142"/>
      <point x="555" y="79"/>
      <point x="603" y="36" type="curve" smooth="yes"/>
      <point x="637" y="5"/>
      <point x="688" y="-12"/>
      <point x="756" y="-12" type="curve" smooth="yes"/>
      <point x="822" y="-12"/>
      <point x="870" y="2"/>
      <point x="904" y="30" type="curve" smooth="yes"/>
      <point x="953" y="70"/>
      <point x="972" y="133"/>
      <point x="972" y="244" type="curve" smooth="yes"/>
      <point x="972" y="569" type="line"/>
      <point x="320" y="569" type="line"/>
      <point x="320" y="241" type="line" smooth="yes"/>
      <point x="320" y="187"/>
      <point x="318" y="146"/>
      <point x="298" y="127" type="curve" smooth="yes"/>
      <point x="290" y="119"/>
      <point x="280" y="115"/>
      <point x="266" y="115" type="curve" smooth="yes"/>
      <point x="251" y="115"/>
      <point x="240" y="119"/>
      <point x="232" y="127" type="curve" smooth="yes"/>
      <point x="211" y="147"/>
      <point x="211" y="189"/>
      <point x="211" y="238" type="curve" smooth="yes"/>
      <point x="211" y="569" type="line"/>
      <point x="50" y="569" type="line"/>
      <point x="50" y="245" type="line" smooth="yes"/>
      <point x="50" y="140"/>
      <point x="68" y="74"/>
      <point x="121" y="31" type="curve" smooth="yes"/>
      <point x="155" y="4"/>
      <point x="202" y="-12"/>
    </contour>
    <contour>
      <point x="755" y="115" type="curve" smooth="yes"/>
      <point x="739" y="115"/>
      <point x="727" y="119"/>
      <point x="719" y="127" type="curve" smooth="yes"/>
      <point x="700" y="145"/>
      <point x="698" y="181"/>
      <point x="698" y="241" type="curve" smooth="yes"/>
      <point x="698" y="445" type="line"/>
      <point x="811" y="445" type="line"/>
      <point x="811" y="238" type="line" smooth="yes"/>
      <point x="811" y="184"/>
      <point x="809" y="145"/>
      <point x="789" y="127" type="curve" smooth="yes"/>
      <point x="781" y="120"/>
      <point x="771" y="115"/>
    </contour>
  </outline>
</glyph>
<glyph name="ssatamil" format="2">
  <advance width="1262"/>
  <unicode hex="0BB7"/>
  <outline>
    <contour>
      <point x="840" y="581" type="curve" smooth="yes"/>
      <point x="712" y="581"/>
      <point x="656" y="484"/>
      <point x="656" y="389" type="curve" smooth="yes"/>
      <point x="656" y="275"/>
      <point x="709" y="182"/>
      <point x="889" y="182" type="curve" smooth="yes"/>
      <point x="931" y="182" type="line" smooth="yes"/>
      <point x="990" y="182"/>
      <point x="1036" y="199"/>
      <point x="1079" y="226" type="curve"/>
      <point x="1078" y="210"/>
      <point x="1078" y="192"/>
      <point x="1078" y="178" type="curve" smooth="yes"/>
      <point x="1078" y="124" type="line"/>
      <point x="708" y="124" type="line"/>
      <point x="704" y="0" type="line"/>
      <point x="1221" y="0" type="line"/>
      <point x="1221" y="362" type="line"/>
      <point x="1079" y="362" type="line"/>
      <point x="1046" y="325"/>
      <point x="1003" y="298"/>
      <point x="941" y="298" type="curve" smooth="yes"/>
      <point x="882" y="298" type="line" smooth="yes"/>
      <point x="818" y="298"/>
      <point x="798" y="333"/>
      <point x="798" y="388" type="curve" smooth="yes"/>
      <point x="798" y="436"/>
      <point x="813" y="459"/>
      <point x="832" y="459" type="curve" smooth="yes"/>
      <point x="853" y="459"/>
      <point x="857" y="442"/>
      <point x="857" y="413" type="curve" smooth="yes"/>
      <point x="857" y="385"/>
      <point x="852" y="353"/>
      <point x="843" y="310" type="curve" smooth="yes"/>
      <point x="794" y="65" type="line"/>
      <point x="792" y="40" type="line"/>
      <point x="727" y="-254" type="line"/>
      <point x="886" y="-284" type="line"/>
      <point x="992" y="231" type="line"/>
      <point x="995" y="272" type="line"/>
      <point x="1006" y="318"/>
      <point x="1018" y="363"/>
      <point x="1018" y="416" type="curve" smooth="yes"/>
      <point x="1018" y="501"/>
      <point x="973" y="581"/>
    </contour>
    <contour>
      <point x="222" y="-12" type="curve" smooth="yes"/>
      <point x="352" y="-12"/>
      <point x="407" y="60"/>
      <point x="407" y="175" type="curve" smooth="yes"/>
      <point x="407" y="291"/>
      <point x="351" y="352"/>
      <point x="253" y="352" type="curve" smooth="yes"/>
      <point x="192" y="352"/>
      <point x="151" y="319"/>
      <point x="106" y="272" type="curve"/>
      <point x="132" y="179" type="line"/>
      <point x="163" y="218"/>
      <point x="189" y="237"/>
      <point x="212" y="237" type="curve" smooth="yes"/>
      <point x="233" y="237"/>
      <point x="258" y="221"/>
      <point x="258" y="172" type="curve" smooth="yes"/>
      <point x="258" y="124"/>
      <point x="246" y="107"/>
      <point x="219" y="107" type="curve" smooth="yes"/>
      <point x="187" y="107"/>
      <point x="172" y="141"/>
      <point x="172" y="224" type="curve" smooth="yes"/>
      <point x="172" y="384"/>
      <point x="228" y="457"/>
      <point x="322" y="457" type="curve" smooth="yes"/>
      <point x="399" y="457"/>
      <point x="459" y="398"/>
      <point x="459" y="265" type="curve" smooth="yes"/>
      <point x="459" y="199"/>
      <point x="445" y="131"/>
      <point x="431" y="94" type="curve"/>
      <point x="446" y="0" type="line"/>
      <point x="744" y="0" type="line"/>
      <point x="744" y="124" type="line"/>
      <point x="593" y="124" type="line"/>
      <point x="610" y="172"/>
      <point x="620" y="236"/>
      <point x="620" y="288" type="curve" smooth="yes"/>
      <point x="620" y="448"/>
      <point x="531" y="581"/>
      <point x="328" y="581" type="curve" smooth="yes"/>
      <point x="166" y="581"/>
      <point x="30" y="477"/>
      <point x="30" y="249" type="curve" smooth="yes"/>
      <point x="30" y="77"/>
      <point x="100" y="-12"/>
    </contour>
  </outline>
</glyph>
<glyph name="satamil" format="2">
  <advance width="1166"/>
  <unicode hex="0BB8"/>
  <outline>
    <contour>
      <point x="223" y="-12" type="curve" smooth="yes"/>
      <point x="352" y="-12"/>
      <point x="407" y="60"/>
      <point x="407" y="175" type="curve" smooth="yes"/>
      <point x="407" y="290"/>
      <point x="351" y="352"/>
      <point x="253" y="352" type="curve" smooth="yes"/>
      <point x="192" y="352"/>
      <point x="151" y="319"/>
      <point x="106" y="272" type="curve"/>
      <point x="132" y="179" type="line"/>
      <point x="163" y="218"/>
      <point x="189" y="237"/>
      <point x="212" y="237" type="curve" smooth="yes"/>
      <point x="239" y="237"/>
      <point x="258" y="221"/>
      <point x="258" y="172" type="curve" smooth="yes"/>
      <point x="258" y="124"/>
      <point x="246" y="107"/>
      <point x="219" y="107" type="curve" smooth="yes"/>
      <point x="187" y="107"/>
      <point x="172" y="141"/>
      <point x="172" y="224" type="curve" smooth="yes"/>
      <point x="172" y="385"/>
      <point x="227" y="457"/>
      <point x="321" y="457" type="curve" smooth="yes"/>
      <point x="361" y="457"/>
      <point x="390" y="443"/>
      <point x="411" y="420" type="curve" smooth="yes"/>
      <point x="444" y="383"/>
      <point x="456" y="328"/>
      <point x="456" y="227" type="curve" smooth="yes"/>
      <point x="456" y="0" type="line"/>
      <point x="617" y="0" type="line"/>
      <point x="617" y="355" type="line" smooth="yes"/>
      <point x="617" y="408"/>
      <point x="620" y="431"/>
      <point x="632" y="445" type="curve" smooth="yes"/>
      <point x="638" y="453"/>
      <point x="648" y="457"/>
      <point x="660" y="457" type="curve" smooth="yes"/>
      <point x="672" y="457"/>
      <point x="681" y="453"/>
      <point x="687" y="445" type="curve" smooth="yes"/>
      <point x="700" y="428"/>
      <point x="700" y="402"/>
      <point x="700" y="357" type="curve" smooth="yes"/>
      <point x="700" y="258" type="line" smooth="yes"/>
      <point x="700" y="133"/>
      <point x="723" y="76"/>
      <point x="767" y="35" type="curve" smooth="yes"/>
      <point x="802" y="3"/>
      <point x="844" y="-12"/>
      <point x="916" y="-12" type="curve" smooth="yes"/>
      <point x="1076" y="-12"/>
      <point x="1134" y="101"/>
      <point x="1134" y="262" type="curve" smooth="yes"/>
      <point x="1134" y="389"/>
      <point x="1104" y="501"/>
      <point x="1031" y="615" type="curve"/>
      <point x="888" y="540" type="line"/>
      <point x="941" y="453"/>
      <point x="973" y="342"/>
      <point x="973" y="237" type="curve" smooth="yes"/>
      <point x="973" y="144"/>
      <point x="959" y="112"/>
      <point x="918" y="112" type="curve" smooth="yes"/>
      <point x="903" y="112"/>
      <point x="890" y="117"/>
      <point x="882" y="128" type="curve" smooth="yes"/>
      <point x="867" y="147"/>
      <point x="860" y="183"/>
      <point x="860" y="248" type="curve" smooth="yes"/>
      <point x="860" y="338" type="line" smooth="yes"/>
      <point x="860" y="440"/>
      <point x="848" y="496"/>
      <point x="806" y="538" type="curve" smooth="yes"/>
      <point x="780" y="565"/>
      <point x="739" y="581"/>
      <point x="686" y="581" type="curve" smooth="yes"/>
      <point x="592" y="581"/>
      <point x="522" y="525"/>
      <point x="489" y="426" type="curve"/>
      <point x="550" y="427" type="line"/>
      <point x="493" y="533"/>
      <point x="429" y="581"/>
      <point x="316" y="581" type="curve" smooth="yes"/>
      <point x="168" y="581"/>
      <point x="30" y="479"/>
      <point x="30" y="249" type="curve" smooth="yes"/>
      <point x="30" y="77"/>
      <point x="99" y="-12"/>
    </contour>
  </outline>
</glyph>
<glyph name="hatamil" format="2">
  <advance width="1458"/>
  <unicode hex="0BB9"/>
  <outline>
    <contour>
      <point x="1197" y="581" type="curve" smooth="yes"/>
      <point x="1098" y="581"/>
      <point x="1041" y="533"/>
      <point x="997" y="445" type="curve"/>
      <point x="1056" y="439" type="line"/>
      <point x="1030" y="528"/>
      <point x="978" y="581"/>
      <point x="885" y="581" type="curve" smooth="yes"/>
      <point x="829" y="581"/>
      <point x="796" y="568"/>
      <point x="766" y="542" type="curve" smooth="yes"/>
      <point x="719" y="501"/>
      <point x="700" y="449"/>
      <point x="700" y="329" type="curve" smooth="yes"/>
      <point x="700" y="0" type="line"/>
      <point x="861" y="0" type="line"/>
      <point x="861" y="354" type="line" smooth="yes"/>
      <point x="861" y="410"/>
      <point x="866" y="431"/>
      <point x="878" y="445" type="curve" smooth="yes"/>
      <point x="885" y="453"/>
      <point x="895" y="457"/>
      <point x="906" y="457" type="curve" smooth="yes"/>
      <point x="917" y="457"/>
      <point x="926" y="453"/>
      <point x="933" y="445" type="curve" smooth="yes"/>
      <point x="946" y="429"/>
      <point x="948" y="408"/>
      <point x="948" y="355" type="curve" smooth="yes"/>
      <point x="948" y="0" type="line"/>
      <point x="1109" y="0" type="line"/>
      <point x="1109" y="335" type="line" smooth="yes"/>
      <point x="1109" y="389"/>
      <point x="1117" y="418"/>
      <point x="1132" y="437" type="curve" smooth="yes"/>
      <point x="1143" y="451"/>
      <point x="1158" y="457"/>
      <point x="1177" y="457" type="curve" smooth="yes"/>
      <point x="1232" y="457"/>
      <point x="1261" y="391"/>
      <point x="1261" y="236" type="curve" smooth="yes"/>
      <point x="1261" y="-16"/>
      <point x="1196" y="-50"/>
      <point x="1013" y="-50" type="curve" smooth="yes"/>
      <point x="287" y="-50" type="line" smooth="yes"/>
      <point x="181" y="-50"/>
      <point x="134" y="-61"/>
      <point x="96" y="-85" type="curve" smooth="yes"/>
      <point x="51" y="-114"/>
      <point x="29" y="-161"/>
      <point x="29" y="-233" type="curve" smooth="yes"/>
      <point x="29" y="-262"/>
      <point x="32" y="-291"/>
      <point x="36" y="-322" type="curve"/>
      <point x="194" y="-313" type="line"/>
      <point x="192" y="-300"/>
      <point x="190" y="-279"/>
      <point x="190" y="-264" type="curve" smooth="yes"/>
      <point x="190" y="-231"/>
      <point x="199" y="-208"/>
      <point x="217" y="-194" type="curve" smooth="yes"/>
      <point x="235" y="-180"/>
      <point x="254" y="-174"/>
      <point x="316" y="-174" type="curve" smooth="yes"/>
      <point x="1041" y="-174" type="line" smooth="yes"/>
      <point x="1204" y="-174"/>
      <point x="1281" y="-142"/>
      <point x="1340" y="-75" type="curve" smooth="yes"/>
      <point x="1399" y="-8"/>
      <point x="1425" y="96"/>
      <point x="1425" y="247" type="curve" smooth="yes"/>
      <point x="1425" y="459"/>
      <point x="1343" y="581"/>
    </contour>
    <contour>
      <point x="222" y="-12" type="curve" smooth="yes"/>
      <point x="352" y="-12"/>
      <point x="407" y="60"/>
      <point x="407" y="175" type="curve" smooth="yes"/>
      <point x="407" y="291"/>
      <point x="351" y="352"/>
      <point x="253" y="352" type="curve" smooth="yes"/>
      <point x="192" y="352"/>
      <point x="151" y="319"/>
      <point x="106" y="272" type="curve"/>
      <point x="132" y="179" type="line"/>
      <point x="163" y="218"/>
      <point x="189" y="237"/>
      <point x="212" y="237" type="curve" smooth="yes"/>
      <point x="233" y="237"/>
      <point x="258" y="221"/>
      <point x="258" y="172" type="curve" smooth="yes"/>
      <point x="258" y="124"/>
      <point x="246" y="107"/>
      <point x="219" y="107" type="curve" smooth="yes"/>
      <point x="187" y="107"/>
      <point x="172" y="141"/>
      <point x="172" y="224" type="curve" smooth="yes"/>
      <point x="172" y="384"/>
      <point x="228" y="457"/>
      <point x="322" y="457" type="curve" smooth="yes"/>
      <point x="399" y="457"/>
      <point x="459" y="398"/>
      <point x="459" y="265" type="curve" smooth="yes"/>
      <point x="459" y="199"/>
      <point x="445" y="131"/>
      <point x="431" y="94" type="curve"/>
      <point x="446" y="0" type="line"/>
      <point x="764" y="0" type="line"/>
      <point x="741" y="124" type="line"/>
      <point x="593" y="124" type="line"/>
      <point x="610" y="172"/>
      <point x="620" y="236"/>
      <point x="620" y="288" type="curve" smooth="yes"/>
      <point x="620" y="448"/>
      <point x="531" y="581"/>
      <point x="328" y="581" type="curve" smooth="yes"/>
      <point x="166" y="581"/>
      <point x="30" y="477"/>
      <point x="30" y="249" type="curve" smooth="yes"/>
      <point x="30" y="77"/>
      <point x="100" y="-12"/>
    </contour>
  </outline>
</glyph>
<glyph name="aavowelsigntamil" format="2">
  <advance width="567"/>
  <unicode hex="0BBE"/>
  <outline>
    <contour>
      <point x="53" y="0" type="line"/>
      <point x="214" y="0" type="line"/>
      <point x="214" y="445" type="line"/>
      <point x="298" y="445" type="line"/>
      <point x="298" y="0" type="line"/>
      <point x="459" y="0" type="line"/>
      <point x="459" y="445" type="line"/>
      <point x="551" y="445" type="line"/>
      <point x="551" y="569" type="line"/>
      <point x="53" y="569" type="line"/>
    </contour>
  </outline>
</glyph>
<glyph name="ivowelsigntamil" format="2">
  <advance width="267"/>
  <unicode hex="0BBF"/>
  <outline>
    <contour>
      <point x="-46" y="851" type="curve" smooth="yes"/>
      <point x="-156" y="851"/>
      <point x="-283" y="792"/>
      <point x="-283" y="635" type="curve" smooth="yes"/>
      <point x="-283" y="594"/>
      <point x="-273" y="546"/>
      <point x="-261" y="515" type="curve"/>
      <point x="-106" y="515" type="line"/>
      <point x="-120" y="557"/>
      <point x="-129" y="594"/>
      <point x="-129" y="633" type="curve" smooth="yes"/>
      <point x="-129" y="684"/>
      <point x="-106" y="729"/>
      <point x="-49" y="729" type="curve" smooth="yes"/>
      <point x="-19" y="729"/>
      <point x="1" y="717"/>
      <point x="16" y="698" type="curve" smooth="yes"/>
      <point x="46" y="659"/>
      <point x="53" y="581"/>
      <point x="53" y="483" type="curve" smooth="yes"/>
      <point x="53" y="0" type="line"/>
      <point x="214" y="0" type="line"/>
      <point x="214" y="502" type="line" smooth="yes"/>
      <point x="214" y="680"/>
      <point x="185" y="749"/>
      <point x="119" y="801" type="curve" smooth="yes"/>
      <point x="78" y="833"/>
      <point x="27" y="851"/>
    </contour>
  </outline>
</glyph>
<glyph name="iivowelsigntamil" format="2">
  <unicode hex="0BC0"/>
  <outline>
    <contour>
      <point x="-185" y="851" type="curve" smooth="yes"/>
      <point x="-353" y="851"/>
      <point x="-424" y="747"/>
      <point x="-424" y="646" type="curve" smooth="yes"/>
      <point x="-424" y="586"/>
      <point x="-412" y="536"/>
      <point x="-392" y="497" type="curve"/>
      <point x="-266" y="536" type="line"/>
      <point x="-281" y="562"/>
      <point x="-291" y="591"/>
      <point x="-291" y="626" type="curve" smooth="yes"/>
      <point x="-291" y="678"/>
      <point x="-274" y="711"/>
      <point x="-245" y="732" type="curve"/>
      <point x="-227" y="747"/>
      <point x="-195" y="750"/>
      <point x="-163" y="750" type="curve" smooth="yes"/>
      <point x="-128" y="750"/>
      <point x="-113" y="734"/>
      <point x="-113" y="707" type="curve" smooth="yes"/>
      <point x="-113" y="682"/>
      <point x="-123" y="669"/>
      <point x="-140" y="669" type="curve" smooth="yes"/>
      <point x="-161" y="669"/>
      <point x="-170" y="682"/>
      <point x="-170" y="706" type="curve" smooth="yes"/>
      <point x="-170" y="747"/>
      <point x="-148" y="771"/>
      <point x="-112" y="808" type="curve"/>
      <point x="-178" y="842" type="line"/>
      <point x="-228" y="795"/>
      <point x="-263" y="747"/>
      <point x="-263" y="697" type="curve" smooth="yes"/>
      <point x="-263" y="633"/>
      <point x="-230" y="582"/>
      <point x="-132" y="582" type="curve" smooth="yes"/>
      <point x="-42" y="582"/>
      <point x="6" y="626"/>
      <point x="6" y="707" type="curve" smooth="yes"/>
      <point x="6" y="791"/>
      <point x="-53" y="851"/>
    </contour>
  </outline>
</glyph>
<glyph name="uvowelsigntamil" format="2">
  <advance width="444"/>
  <unicode hex="0BC1"/>
  <outline>
    <contour>
      <point x="241" y="196" type="curve" smooth="yes"/>
      <point x="384" y="196"/>
      <point x="419" y="291"/>
      <point x="419" y="376" type="curve" smooth="yes"/>
      <point x="419" y="445"/>
      <point x="392" y="494"/>
      <point x="347" y="526" type="curve" smooth="yes"/>
      <point x="306" y="555"/>
      <point x="248" y="569"/>
      <point x="149" y="569" type="curve" smooth="yes"/>
      <point x="-194" y="569" type="line"/>
      <point x="-194" y="445" type="line"/>
      <point x="177" y="445" type="line" smooth="yes"/>
      <point x="221" y="445"/>
      <point x="240" y="437"/>
      <point x="254" y="424" type="curve" smooth="yes"/>
      <point x="268" y="411"/>
      <point x="276" y="395"/>
      <point x="276" y="367" type="curve" smooth="yes"/>
      <point x="276" y="329"/>
      <point x="261" y="316"/>
      <point x="240" y="316" type="curve" smooth="yes"/>
      <point x="215" y="316"/>
      <point x="197" y="332"/>
      <point x="197" y="379" type="curve" smooth="yes"/>
      <point x="197" y="437"/>
      <point x="223" y="486"/>
      <point x="243" y="512" type="curve"/>
      <point x="103" y="550" type="line"/>
      <point x="83" y="513"/>
      <point x="53" y="455"/>
      <point x="53" y="384" type="curve" smooth="yes"/>
      <point x="53" y="284"/>
      <point x="94" y="196"/>
    </contour>
  </outline>
</glyph>
<glyph name="uuvowelsigntamil" format="2">
  <advance width="700"/>
  <unicode hex="0BC2"/>
  <outline>
    <contour>
      <point x="315" y="-12" type="curve" smooth="yes"/>
      <point x="552" y="-12"/>
      <point x="667" y="129"/>
      <point x="667" y="409" type="curve" smooth="yes"/>
      <point x="667" y="609"/>
      <point x="584" y="784"/>
      <point x="361" y="784" type="curve" smooth="yes"/>
      <point x="197" y="784"/>
      <point x="99" y="680"/>
      <point x="68" y="535" type="curve"/>
      <point x="68" y="504" type="line"/>
      <point x="64" y="477"/>
      <point x="61" y="450"/>
      <point x="61" y="422" type="curve" smooth="yes"/>
      <point x="61" y="300"/>
      <point x="115" y="196"/>
      <point x="256" y="196" type="curve" smooth="yes"/>
      <point x="390" y="196"/>
      <point x="428" y="286"/>
      <point x="428" y="376" type="curve" smooth="yes"/>
      <point x="428" y="445"/>
      <point x="401" y="494"/>
      <point x="356" y="526" type="curve" smooth="yes"/>
      <point x="315" y="555"/>
      <point x="258" y="569"/>
      <point x="158" y="569" type="curve" smooth="yes"/>
      <point x="-194" y="569" type="line"/>
      <point x="-194" y="445" type="line"/>
      <point x="185" y="445" type="line" smooth="yes"/>
      <point x="230" y="445"/>
      <point x="249" y="437"/>
      <point x="263" y="424" type="curve" smooth="yes"/>
      <point x="277" y="411"/>
      <point x="285" y="394"/>
      <point x="285" y="367" type="curve" smooth="yes"/>
      <point x="285" y="329"/>
      <point x="270" y="316"/>
      <point x="252" y="316" type="curve" smooth="yes"/>
      <point x="219" y="316"/>
      <point x="204" y="347"/>
      <point x="204" y="402" type="curve" smooth="yes"/>
      <point x="204" y="437"/>
      <point x="207" y="474"/>
      <point x="214" y="509" type="curve"/>
      <point x="215" y="535" type="line"/>
      <point x="234" y="606"/>
      <point x="279" y="658"/>
      <point x="353" y="658" type="curve" smooth="yes"/>
      <point x="448" y="658"/>
      <point x="506" y="577"/>
      <point x="506" y="405" type="curve" smooth="yes"/>
      <point x="506" y="206"/>
      <point x="451" y="115"/>
      <point x="311" y="115" type="curve" smooth="yes"/>
      <point x="218" y="115"/>
      <point x="155" y="143"/>
      <point x="103" y="180" type="curve"/>
      <point x="41" y="67" type="line"/>
      <point x="122" y="13"/>
      <point x="218" y="-12"/>
    </contour>
  </outline>
</glyph>
<glyph name="evowelsigntamil" format="2">
  <advance width="802"/>
  <unicode hex="0BC6"/>
  <outline>
    <contour>
      <point x="333" y="-12" type="curve" smooth="yes"/>
      <point x="471" y="-12"/>
      <point x="544" y="67"/>
      <point x="544" y="194" type="curve" smooth="yes"/>
      <point x="544" y="290"/>
      <point x="494" y="384"/>
      <point x="374" y="384" type="curve" smooth="yes"/>
      <point x="267" y="384"/>
      <point x="213" y="314"/>
      <point x="213" y="219" type="curve" smooth="yes"/>
      <point x="213" y="159"/>
      <point x="232" y="114"/>
      <point x="250" y="88" type="curve"/>
      <point x="354" y="81" type="line"/>
      <point x="337" y="111"/>
      <point x="321" y="142"/>
      <point x="321" y="195" type="curve" smooth="yes"/>
      <point x="321" y="242"/>
      <point x="337" y="266"/>
      <point x="363" y="266" type="curve" smooth="yes"/>
      <point x="390" y="266"/>
      <point x="401" y="238"/>
      <point x="401" y="195" type="curve" smooth="yes"/>
      <point x="401" y="140"/>
      <point x="380" y="105"/>
      <point x="342" y="105" type="curve" smooth="yes"/>
      <point x="329" y="105"/>
      <point x="306" y="107"/>
      <point x="293" y="110" type="curve"/>
      <point x="255" y="103" type="line"/>
      <point x="217" y="143"/>
      <point x="188" y="197"/>
      <point x="188" y="368" type="curve" smooth="yes"/>
      <point x="188" y="612"/>
      <point x="312" y="724"/>
      <point x="430" y="724" type="curve" smooth="yes"/>
      <point x="475" y="724"/>
      <point x="507" y="715"/>
      <point x="531" y="694" type="curve" smooth="yes"/>
      <point x="576" y="654"/>
      <point x="588" y="575"/>
      <point x="588" y="464" type="curve" smooth="yes"/>
      <point x="588" y="0" type="line"/>
      <point x="749" y="0" type="line"/>
      <point x="749" y="483" type="line" smooth="yes"/>
      <point x="749" y="657"/>
      <point x="725" y="729"/>
      <point x="649" y="789" type="curve" smooth="yes"/>
      <point x="597" y="830"/>
      <point x="532" y="851"/>
      <point x="446" y="851" type="curve" smooth="yes"/>
      <point x="198" y="851"/>
      <point x="33" y="658"/>
      <point x="33" y="382" type="curve" smooth="yes"/>
      <point x="33" y="142"/>
      <point x="131" y="-12"/>
    </contour>
  </outline>
</glyph>
<glyph name="eevowelsigntamil" format="2">
  <advance width="640"/>
  <unicode hex="0BC7"/>
  <outline>
    <contour>
      <point x="380" y="-12" type="curve" smooth="yes"/>
      <point x="548" y="-12"/>
      <point x="611" y="84"/>
      <point x="611" y="197" type="curve" smooth="yes"/>
      <point x="611" y="295"/>
      <point x="563" y="384"/>
      <point x="430" y="384" type="curve" smooth="yes"/>
      <point x="310" y="384"/>
      <point x="258" y="309"/>
      <point x="258" y="219" type="curve" smooth="yes"/>
      <point x="258" y="162"/>
      <point x="275" y="120"/>
      <point x="290" y="87" type="curve"/>
      <point x="416" y="80" type="line"/>
      <point x="399" y="111"/>
      <point x="383" y="142"/>
      <point x="383" y="195" type="curve" smooth="yes"/>
      <point x="383" y="242"/>
      <point x="399" y="266"/>
      <point x="425" y="266" type="curve" smooth="yes"/>
      <point x="452" y="266"/>
      <point x="463" y="236"/>
      <point x="463" y="194" type="curve" smooth="yes"/>
      <point x="463" y="160"/>
      <point x="454" y="105"/>
      <point x="395" y="105" type="curve" smooth="yes"/>
      <point x="395" y="105"/>
      <point x="377" y="106"/>
      <point x="359" y="109" type="curve"/>
      <point x="280" y="109"/>
      <point x="191" y="191"/>
      <point x="191" y="419" type="curve" smooth="yes"/>
      <point x="191" y="622"/>
      <point x="282" y="724"/>
      <point x="350" y="728" type="curve"/>
      <point x="379" y="735"/>
      <point x="389" y="734"/>
      <point x="402" y="734" type="curve" smooth="yes"/>
      <point x="462" y="734"/>
      <point x="471" y="679"/>
      <point x="471" y="645" type="curve" smooth="yes"/>
      <point x="471" y="602"/>
      <point x="459" y="576"/>
      <point x="434" y="576" type="curve" smooth="yes"/>
      <point x="407" y="576"/>
      <point x="391" y="597"/>
      <point x="391" y="644" type="curve" smooth="yes"/>
      <point x="391" y="699"/>
      <point x="407" y="728"/>
      <point x="424" y="759" type="curve"/>
      <point x="298" y="752" type="line"/>
      <point x="282" y="720"/>
      <point x="266" y="677"/>
      <point x="266" y="625" type="curve" smooth="yes"/>
      <point x="266" y="528"/>
      <point x="317" y="458"/>
      <point x="439" y="458" type="curve" smooth="yes"/>
      <point x="569" y="458"/>
      <point x="619" y="544"/>
      <point x="619" y="642" type="curve" smooth="yes"/>
      <point x="619" y="776"/>
      <point x="537" y="851"/>
      <point x="390" y="851" type="curve" smooth="yes"/>
      <point x="187" y="851"/>
      <point x="36" y="698"/>
      <point x="36" y="418" type="curve" smooth="yes"/>
      <point x="36" y="124"/>
      <point x="182" y="-12"/>
    </contour>
  </outline>
</glyph>
<glyph name="aivowelsigntamil" format="2">
  <advance width="1053"/>
  <unicode hex="0BC8"/>
  <outline>
    <contour>
      <point x="223" y="-12" type="curve" smooth="yes"/>
      <point x="352" y="-12"/>
      <point x="407" y="60"/>
      <point x="407" y="175" type="curve" smooth="yes"/>
      <point x="407" y="290"/>
      <point x="351" y="352"/>
      <point x="253" y="352" type="curve" smooth="yes"/>
      <point x="192" y="352"/>
      <point x="151" y="319"/>
      <point x="106" y="272" type="curve"/>
      <point x="132" y="179" type="line"/>
      <point x="163" y="218"/>
      <point x="189" y="237"/>
      <point x="212" y="237" type="curve" smooth="yes"/>
      <point x="239" y="237"/>
      <point x="258" y="221"/>
      <point x="258" y="172" type="curve" smooth="yes"/>
      <point x="258" y="124"/>
      <point x="246" y="107"/>
      <point x="219" y="107" type="curve" smooth="yes"/>
      <point x="187" y="107"/>
      <point x="172" y="141"/>
      <point x="172" y="221" type="curve" smooth="yes"/>
      <point x="172" y="238"/>
      <point x="173" y="259"/>
      <point x="175" y="270" type="curve"/>
      <point x="188" y="377"/>
      <point x="267" y="457"/>
      <point x="380" y="457" type="curve" smooth="yes"/>
      <point x="458" y="457"/>
      <point x="515" y="432"/>
      <point x="562" y="389" type="curve"/>
      <point x="615" y="343"/>
      <point x="638" y="273"/>
      <point x="638" y="187" type="curve" smooth="yes"/>
      <point x="638" y="124"/>
      <point x="628" y="108"/>
      <point x="604" y="108" type="curve" smooth="yes"/>
      <point x="584" y="108"/>
      <point x="572" y="128"/>
      <point x="572" y="183" type="curve" smooth="yes"/>
      <point x="572" y="249"/>
      <point x="584" y="344"/>
      <point x="629" y="397" type="curve"/>
      <point x="654" y="431"/>
      <point x="690" y="456"/>
      <point x="740" y="456" type="curve" smooth="yes"/>
      <point x="803" y="456"/>
      <point x="860" y="402"/>
      <point x="860" y="265" type="curve" smooth="yes"/>
      <point x="860" y="176"/>
      <point x="837" y="104"/>
      <point x="811" y="48" type="curve"/>
      <point x="957" y="-9" type="line"/>
      <point x="993" y="73"/>
      <point x="1021" y="166"/>
      <point x="1021" y="288" type="curve" smooth="yes"/>
      <point x="1021" y="452"/>
      <point x="934" y="581"/>
      <point x="755" y="581" type="curve" smooth="yes"/>
      <point x="662" y="581"/>
      <point x="597" y="546"/>
      <point x="549" y="500" type="curve"/>
      <point x="520" y="462" type="line"/>
      <point x="458" y="387"/>
      <point x="429" y="309"/>
      <point x="429" y="208" type="curve" smooth="yes"/>
      <point x="429" y="56"/>
      <point x="500" y="-12"/>
      <point x="602" y="-12" type="curve" smooth="yes"/>
      <point x="714" y="-12"/>
      <point x="779" y="49"/>
      <point x="779" y="191" type="curve" smooth="yes"/>
      <point x="779" y="303"/>
      <point x="741" y="396"/>
      <point x="661" y="459" type="curve"/>
      <point x="630" y="502" type="line"/>
      <point x="543" y="563"/>
      <point x="483" y="581"/>
      <point x="383" y="581" type="curve" smooth="yes"/>
      <point x="167" y="581"/>
      <point x="30" y="451"/>
      <point x="30" y="249" type="curve" smooth="yes"/>
      <point x="30" y="77"/>
      <point x="99" y="-12"/>
    </contour>
  </outline>
</glyph>
<glyph name="viramatamil" format="2">
  <unicode hex="0BCD"/>
  <outline>
    <contour>
      <point x="-274" y="661" type="curve" smooth="yes"/>
      <point x="-222" y="661"/>
      <point x="-188" y="693"/>
      <point x="-188" y="751" type="curve" smooth="yes"/>
      <point x="-188" y="809"/>
      <point x="-222" y="841"/>
      <point x="-274" y="841" type="curve" smooth="yes"/>
      <point x="-325" y="841"/>
      <point x="-359" y="809"/>
      <point x="-359" y="751" type="curve" smooth="yes"/>
      <point x="-359" y="693"/>
      <point x="-325" y="661"/>
    </contour>
  </outline>
</glyph>
<glyph name="ohmsigntamil" format="2">
  <advance width="1057"/>
  <unicode hex="0BD0"/>
  <outline>
    <contour>
      <point x="528" y="622" type="curve" smooth="yes"/>
      <point x="380" y="622"/>
      <point x="255" y="602"/>
      <point x="157" y="539" type="curve" smooth="yes"/>
      <point x="81" y="491"/>
      <point x="29" y="418"/>
      <point x="29" y="306" type="curve" smooth="yes"/>
      <point x="29" y="174"/>
      <point x="90" y="89"/>
      <point x="209" y="89" type="curve" smooth="yes"/>
      <point x="310" y="89"/>
      <point x="377" y="138"/>
      <point x="377" y="271" type="curve" smooth="yes"/>
      <point x="377" y="378"/>
      <point x="312" y="431"/>
      <point x="246" y="431" type="curve" smooth="yes"/>
      <point x="206" y="431"/>
      <point x="166" y="421"/>
      <point x="121" y="387" type="curve"/>
      <point x="133" y="292" type="line"/>
      <point x="160" y="323"/>
      <point x="179" y="335"/>
      <point x="205" y="335" type="curve" smooth="yes"/>
      <point x="231" y="335"/>
      <point x="246" y="314"/>
      <point x="246" y="269" type="curve" smooth="yes"/>
      <point x="246" y="224"/>
      <point x="234" y="207"/>
      <point x="207" y="207" type="curve" smooth="yes"/>
      <point x="172" y="207"/>
      <point x="161" y="249"/>
      <point x="161" y="295" type="curve" smooth="yes"/>
      <point x="161" y="328"/>
      <point x="170" y="366"/>
      <point x="175" y="383" type="curve"/>
      <point x="252" y="468"/>
      <point x="391" y="492"/>
      <point x="527" y="492" type="curve" smooth="yes"/>
      <point x="784" y="492"/>
      <point x="869" y="402"/>
      <point x="869" y="272" type="curve" smooth="yes"/>
      <point x="869" y="208"/>
      <point x="851" y="197"/>
      <point x="830" y="197" type="curve" smooth="yes"/>
      <point x="801" y="197"/>
      <point x="789" y="224"/>
      <point x="789" y="274" type="curve" smooth="yes"/>
      <point x="789" y="303"/>
      <point x="794" y="332"/>
      <point x="805" y="367" type="curve"/>
      <point x="675" y="435" type="line"/>
      <point x="575" y="377"/>
      <point x="504" y="298"/>
      <point x="504" y="171" type="curve" smooth="yes"/>
      <point x="504" y="69"/>
      <point x="556" y="-25"/>
      <point x="682" y="-66" type="curve"/>
      <point x="715" y="-78"/>
      <point x="764" y="-94"/>
      <point x="867" y="-94" type="curve" smooth="yes"/>
      <point x="950" y="-94" type="line"/>
      <point x="950" y="29" type="line"/>
      <point x="872" y="29" type="line" smooth="yes"/>
      <point x="778" y="29"/>
      <point x="734" y="42"/>
      <point x="698" y="65" type="curve"/>
      <point x="656" y="93"/>
      <point x="637" y="135"/>
      <point x="637" y="188" type="curve" smooth="yes"/>
      <point x="637" y="233"/>
      <point x="649" y="274"/>
      <point x="690" y="315" type="curve"/>
      <point x="685" y="318" type="line"/>
      <point x="673" y="288"/>
      <point x="667" y="265"/>
      <point x="667" y="231" type="curve" smooth="yes"/>
      <point x="667" y="138"/>
      <point x="715" y="78"/>
      <point x="844" y="78" type="curve" smooth="yes"/>
      <point x="965" y="78"/>
      <point x="1028" y="165"/>
      <point x="1028" y="283" type="curve" smooth="yes"/>
      <point x="1028" y="393"/>
      <point x="981" y="473"/>
      <point x="910" y="525" type="curve" smooth="yes"/>
      <point x="808" y="600"/>
      <point x="665" y="622"/>
    </contour>
    <contour>
      <point x="48" y="-101" type="curve" smooth="yes"/>
      <point x="48" y="-238"/>
      <point x="158" y="-321"/>
      <point x="344" y="-321" type="curve" smooth="yes"/>
      <point x="364" y="-321" type="line" smooth="yes"/>
      <point x="529" y="-321"/>
      <point x="699" y="-279"/>
      <point x="787" y="-66" type="curve"/>
      <point x="795" y="-47" type="line"/>
      <point x="643" y="-12" type="line"/>
      <point x="574" y="-165"/>
      <point x="484" y="-197"/>
      <point x="352" y="-197" type="curve" smooth="yes"/>
      <point x="243" y="-197"/>
      <point x="182" y="-167"/>
      <point x="182" y="-89" type="curve" smooth="yes"/>
      <point x="182" y="-54"/>
      <point x="193" y="-21"/>
      <point x="209" y="7" type="curve"/>
      <point x="95" y="65" type="line"/>
      <point x="61" y="9"/>
      <point x="48" y="-42"/>
    </contour>
    <contour>
      <point x="427" y="98" type="curve" smooth="yes"/>
      <point x="400" y="98"/>
      <point x="379" y="90"/>
      <point x="365" y="75" type="curve" smooth="yes"/>
      <point x="349" y="59"/>
      <point x="341" y="34"/>
      <point x="341" y="-2" type="curve" smooth="yes"/>
      <point x="341" y="-82" type="line"/>
      <point x="305" y="-82" type="line"/>
      <point x="305" y="73" type="line"/>
      <point x="226" y="73" type="line"/>
      <point x="226" y="-143" type="line"/>
      <point x="407" y="-143" type="line" smooth="yes"/>
      <point x="445" y="-143"/>
      <point x="469" y="-138"/>
      <point x="488" y="-125" type="curve" smooth="yes"/>
      <point x="514" y="-107"/>
      <point x="531" y="-77"/>
      <point x="531" y="-22" type="curve" smooth="yes"/>
      <point x="531" y="10"/>
      <point x="522" y="39"/>
      <point x="503" y="63" type="curve" smooth="yes"/>
      <point x="486" y="84"/>
      <point x="461" y="98"/>
    </contour>
    <contour>
      <point x="433" y="38" type="curve" smooth="yes"/>
      <point x="447" y="38"/>
      <point x="456" y="14"/>
      <point x="456" y="-23" type="curve" smooth="yes"/>
      <point x="456" y="-59"/>
      <point x="449" y="-82"/>
      <point x="428" y="-82" type="curve" smooth="yes"/>
      <point x="418" y="-82" type="line"/>
      <point x="418" y="16" type="line" smooth="yes"/>
      <point x="418" y="33"/>
      <point x="424" y="38"/>
    </contour>
    <contour>
      <point x="432" y="117" type="curve" smooth="yes"/>
      <point x="457" y="117"/>
      <point x="481" y="135"/>
      <point x="481" y="175" type="curve" smooth="yes"/>
      <point x="481" y="214"/>
      <point x="458" y="231"/>
      <point x="432" y="231" type="curve" smooth="yes"/>
      <point x="407" y="231"/>
      <point x="386" y="214"/>
      <point x="386" y="175" type="curve" smooth="yes"/>
      <point x="386" y="135"/>
      <point x="405" y="117"/>
    </contour>
  </outline>
</glyph>
<glyph name="zerotamil" format="2">
  <advance width="547"/>
  <unicode hex="0BE6"/>
  <outline>
    <contour>
      <point x="271" y="-12" type="curve" smooth="yes"/>
      <point x="415" y="-12"/>
      <point x="513" y="85"/>
      <point x="513" y="285" type="curve" smooth="yes"/>
      <point x="513" y="484"/>
      <point x="419" y="581"/>
      <point x="275" y="581" type="curve" smooth="yes"/>
      <point x="131" y="581"/>
      <point x="34" y="484"/>
      <point x="34" y="285" type="curve" smooth="yes"/>
      <point x="34" y="85"/>
      <point x="127" y="-12"/>
    </contour>
    <contour>
      <point x="273" y="455" type="curve" smooth="yes"/>
      <point x="328" y="455"/>
      <point x="348" y="399"/>
      <point x="348" y="285" type="curve" smooth="yes"/>
      <point x="348" y="171"/>
      <point x="329" y="114"/>
      <point x="274" y="114" type="curve" smooth="yes"/>
      <point x="219" y="114"/>
      <point x="199" y="171"/>
      <point x="199" y="285" type="curve" smooth="yes"/>
      <point x="199" y="399"/>
      <point x="218" y="455"/>
    </contour>
  </outline>
</glyph>
<glyph name="twotamil" format="2">
  <advance width="818"/>
  <unicode hex="0BE8"/>
  <outline>
    <contour>
      <point x="280" y="581" type="curve" smooth="yes"/>
      <point x="110" y="581"/>
      <point x="32" y="492"/>
      <point x="32" y="393" type="curve" smooth="yes"/>
      <point x="32" y="298"/>
      <point x="83" y="238"/>
      <point x="139" y="186" type="curve"/>
      <point x="275" y="222" type="line"/>
      <point x="224" y="269"/>
      <point x="184" y="314"/>
      <point x="184" y="377" type="curve" smooth="yes"/>
      <point x="184" y="421"/>
      <point x="215" y="455"/>
      <point x="284" y="455" type="curve" smooth="yes"/>
      <point x="342" y="455"/>
      <point x="383" y="429"/>
      <point x="383" y="371" type="curve" smooth="yes"/>
      <point x="383" y="305"/>
      <point x="346" y="279"/>
      <point x="244" y="267" type="curve" smooth="yes"/>
      <point x="169" y="258" type="line" smooth="yes"/>
      <point x="60" y="245"/>
      <point x="24" y="189"/>
      <point x="24" y="130" type="curve" smooth="yes"/>
      <point x="24" y="64"/>
      <point x="55" y="0"/>
      <point x="206" y="0" type="curve" smooth="yes"/>
      <point x="802" y="0" type="line"/>
      <point x="802" y="124" type="line"/>
      <point x="200" y="124" type="line" smooth="yes"/>
      <point x="180" y="124"/>
      <point x="177" y="130"/>
      <point x="177" y="138" type="curve" smooth="yes"/>
      <point x="177" y="146"/>
      <point x="183" y="150"/>
      <point x="206" y="153" type="curve" smooth="yes"/>
      <point x="275" y="161" type="line" smooth="yes"/>
      <point x="398" y="175"/>
      <point x="544" y="216"/>
      <point x="544" y="374" type="curve" smooth="yes"/>
      <point x="544" y="473"/>
      <point x="476" y="581"/>
    </contour>
  </outline>
</glyph>
<glyph name="fivetamil" format="2">
  <advance width="945"/>
  <unicode hex="0BEB"/>
  <outline>
    <contour>
      <point x="487" y="-321" type="curve" smooth="yes"/>
      <point x="497" y="-321" type="line" smooth="yes"/>
      <point x="754" y="-321"/>
      <point x="916" y="-189"/>
      <point x="916" y="93" type="curve" smooth="yes"/>
      <point x="916" y="255"/>
      <point x="854" y="346"/>
      <point x="747" y="346" type="curve" smooth="yes"/>
      <point x="710" y="346"/>
      <point x="673" y="336"/>
      <point x="643" y="315" type="curve"/>
      <point x="655" y="206" type="line"/>
      <point x="669" y="216"/>
      <point x="684" y="222"/>
      <point x="701" y="222" type="curve" smooth="yes"/>
      <point x="733" y="222"/>
      <point x="756" y="190"/>
      <point x="756" y="93" type="curve" smooth="yes"/>
      <point x="756" y="-95"/>
      <point x="669" y="-193"/>
      <point x="495" y="-193" type="curve" smooth="yes"/>
      <point x="489" y="-193" type="line" smooth="yes"/>
      <point x="308" y="-193"/>
      <point x="190" y="-86"/>
      <point x="190" y="231" type="curve" smooth="yes"/>
      <point x="190" y="250" type="line" smooth="yes"/>
      <point x="190" y="603"/>
      <point x="320" y="724"/>
      <point x="527" y="724" type="curve" smooth="yes"/>
      <point x="621" y="724"/>
      <point x="713" y="697"/>
      <point x="812" y="627" type="curve"/>
      <point x="874" y="750" type="line"/>
      <point x="762" y="817"/>
      <point x="666" y="851"/>
      <point x="530" y="851" type="curve" smooth="yes"/>
      <point x="190" y="851"/>
      <point x="40" y="597"/>
      <point x="40" y="264" type="curve" smooth="yes"/>
      <point x="40" y="222" type="line" smooth="yes"/>
      <point x="40" y="-117"/>
      <point x="185" y="-321"/>
    </contour>
    <contour>
      <point x="276" y="0" type="line"/>
      <point x="437" y="0" type="line"/>
      <point x="437" y="445" type="line"/>
      <point x="516" y="445" type="line"/>
      <point x="516" y="0" type="line"/>
      <point x="677" y="0" type="line"/>
      <point x="677" y="445" type="line"/>
      <point x="767" y="445" type="line"/>
      <point x="767" y="569" type="line"/>
      <point x="276" y="569" type="line"/>
    </contour>
  </outline>
</glyph>
<glyph name="eighttamil" format="2">
  <advance width="987"/>
  <unicode hex="0BEE"/>
  <outline>
    <contour>
      <point x="314" y="-146" type="curve" smooth="yes"/>
      <point x="323" y="-146" type="line"/>
      <point x="538" y="-146"/>
      <point x="661" y="-49"/>
      <point x="706" y="109" type="curve"/>
      <point x="715" y="164" type="line"/>
      <point x="718" y="188"/>
      <point x="720" y="215"/>
      <point x="720" y="242" type="curve" smooth="yes"/>
      <point x="720" y="428"/>
      <point x="626" y="581"/>
      <point x="437" y="581" type="curve" smooth="yes"/>
      <point x="289" y="581"/>
      <point x="204" y="499"/>
      <point x="204" y="372" type="curve" smooth="yes"/>
      <point x="204" y="256"/>
      <point x="265" y="184"/>
      <point x="350" y="108" type="curve"/>
      <point x="448" y="178" type="line"/>
      <point x="397" y="228"/>
      <point x="355" y="288"/>
      <point x="355" y="357" type="curve" smooth="yes"/>
      <point x="355" y="427"/>
      <point x="395" y="455"/>
      <point x="444" y="455" type="curve" smooth="yes"/>
      <point x="533" y="455"/>
      <point x="566" y="358"/>
      <point x="566" y="242" type="curve" smooth="yes"/>
      <point x="566" y="218"/>
      <point x="565" y="190"/>
      <point x="562" y="168" type="curve"/>
      <point x="553" y="119" type="line"/>
      <point x="522" y="35"/>
      <point x="454" y="-22"/>
      <point x="315" y="-22" type="curve" smooth="yes"/>
      <point x="311" y="-22" type="line" smooth="yes"/>
      <point x="222" y="-22"/>
      <point x="179" y="6"/>
      <point x="179" y="48" type="curve" smooth="yes"/>
      <point x="179" y="58"/>
      <point x="183" y="66"/>
      <point x="190" y="71" type="curve" smooth="yes"/>
      <point x="198" y="77"/>
      <point x="207" y="78"/>
      <point x="235" y="78" type="curve" smooth="yes"/>
      <point x="793" y="78" type="line"/>
      <point x="798" y="200" type="line"/>
      <point x="229" y="200" type="line" smooth="yes"/>
      <point x="157" y="200"/>
      <point x="116" y="195"/>
      <point x="81" y="175" type="curve" smooth="yes"/>
      <point x="44" y="154"/>
      <point x="23" y="119"/>
      <point x="23" y="67" type="curve" smooth="yes"/>
      <point x="23" y="-56"/>
      <point x="120" y="-146"/>
    </contour>
    <contour>
      <point x="773" y="-154" type="line"/>
      <point x="934" y="-154" type="line"/>
      <point x="934" y="569" type="line"/>
      <point x="773" y="569" type="line"/>
    </contour>
  </outline>
</glyph>
<glyph name="ninetamil" format="2">
  <advance width="1109"/>
  <unicode hex="0BEF"/>
  <outline>
    <contour>
      <point x="248" y="-12" type="curve" smooth="yes"/>
      <point x="335" y="-12"/>
      <point x="396" y="10"/>
      <point x="433" y="52" type="curve" smooth="yes"/>
      <point x="473" y="96"/>
      <point x="488" y="151"/>
      <point x="488" y="253" type="curve" smooth="yes"/>
      <point x="488" y="445" type="line"/>
      <point x="630" y="445" type="line"/>
      <point x="630" y="569" type="line"/>
      <point x="95" y="569" type="line"/>
      <point x="95" y="286" type="line"/>
      <point x="240" y="302" type="line"/>
      <point x="240" y="445" type="line"/>
      <point x="331" y="445" type="line"/>
      <point x="331" y="218" type="line" smooth="yes"/>
      <point x="331" y="139"/>
      <point x="298" y="112"/>
      <point x="246" y="112" type="curve" smooth="yes"/>
      <point x="210" y="112"/>
      <point x="183" y="129"/>
      <point x="183" y="170" type="curve" smooth="yes"/>
      <point x="183" y="191"/>
      <point x="189" y="206"/>
      <point x="201" y="217" type="curve" smooth="yes"/>
      <point x="217" y="232"/>
      <point x="240" y="237"/>
      <point x="291" y="237" type="curve" smooth="yes"/>
      <point x="528" y="237" type="line"/>
      <point x="528" y="352" type="line"/>
      <point x="313" y="352" type="line" smooth="yes"/>
      <point x="121" y="352"/>
      <point x="28" y="278"/>
      <point x="28" y="167" type="curve" smooth="yes"/>
      <point x="28" y="52"/>
      <point x="102" y="-12"/>
    </contour>
    <contour>
      <point x="710" y="-12" type="curve" smooth="yes"/>
      <point x="822" y="-12"/>
      <point x="872" y="55"/>
      <point x="874" y="159" type="curve" smooth="yes"/>
      <point x="876" y="274"/>
      <point x="813" y="329"/>
      <point x="696" y="347" type="curve"/>
      <point x="664" y="350" type="line" smooth="yes"/>
      <point x="658" y="351"/>
      <point x="634" y="352"/>
      <point x="605" y="352" type="curve" smooth="yes"/>
      <point x="510" y="352" type="line"/>
      <point x="509" y="237" type="line"/>
      <point x="667" y="237" type="line" smooth="yes"/>
      <point x="731" y="237"/>
      <point x="741" y="186"/>
      <point x="741" y="154" type="curve" smooth="yes"/>
      <point x="741" y="117"/>
      <point x="730" y="103"/>
      <point x="710" y="103" type="curve" smooth="yes"/>
      <point x="685" y="103"/>
      <point x="676" y="133"/>
      <point x="676" y="169" type="curve" smooth="yes"/>
      <point x="676" y="222"/>
      <point x="689" y="251"/>
      <point x="697" y="273" type="curve"/>
      <point x="703" y="293" type="line"/>
      <point x="722" y="329"/>
      <point x="755" y="360"/>
      <point x="810" y="360" type="curve" smooth="yes"/>
      <point x="890" y="360"/>
      <point x="927" y="294"/>
      <point x="927" y="220" type="curve" smooth="yes"/>
      <point x="927" y="149"/>
      <point x="904" y="92"/>
      <point x="878" y="51" type="curve"/>
      <point x="1009" y="-12" type="line"/>
      <point x="1048" y="60"/>
      <point x="1079" y="143"/>
      <point x="1079" y="244" type="curve" smooth="yes"/>
      <point x="1079" y="331"/>
      <point x="1039" y="478"/>
      <point x="823" y="478" type="curve" smooth="yes"/>
      <point x="688" y="478"/>
      <point x="598" y="402"/>
      <point x="561" y="310" type="curve"/>
      <point x="555" y="283" type="line"/>
      <point x="545" y="248"/>
      <point x="539" y="212"/>
      <point x="539" y="181" type="curve" smooth="yes"/>
      <point x="539" y="51"/>
      <point x="600" y="-12"/>
    </contour>
  </outline>
</glyph>
<glyph name="tentamil" format="2">
  <advance width="814"/>
  <unicode hex="0BF0"/>
  <outline>
    <contour>
      <point x="237" y="-12" type="curve" smooth="yes"/>
      <point x="330" y="-12"/>
      <point x="382" y="41"/>
      <point x="408" y="130" type="curve"/>
      <point x="349" y="124" type="line"/>
      <point x="393" y="36"/>
      <point x="449" y="-12"/>
      <point x="546" y="-12" type="curve" smooth="yes"/>
      <point x="725" y="-12"/>
      <point x="774" y="145"/>
      <point x="774" y="352" type="curve" smooth="yes"/>
      <point x="774" y="402" type="line" smooth="yes"/>
      <point x="774" y="576"/>
      <point x="754" y="702"/>
      <point x="678" y="780" type="curve" smooth="yes"/>
      <point x="634" y="825"/>
      <point x="571" y="851"/>
      <point x="490" y="851" type="curve" smooth="yes"/>
      <point x="413" y="851"/>
      <point x="354" y="833"/>
      <point x="299" y="808" type="curve"/>
      <point x="339" y="694" type="line"/>
      <point x="381" y="716"/>
      <point x="423" y="727"/>
      <point x="463" y="727" type="curve" smooth="yes"/>
      <point x="567" y="727"/>
      <point x="612" y="640"/>
      <point x="612" y="378" type="curve" smooth="yes"/>
      <point x="612" y="172"/>
      <point x="580" y="112"/>
      <point x="526" y="112" type="curve" smooth="yes"/>
      <point x="510" y="112"/>
      <point x="495" y="118"/>
      <point x="484" y="132" type="curve" smooth="yes"/>
      <point x="469" y="151"/>
      <point x="461" y="180"/>
      <point x="461" y="234" type="curve" smooth="yes"/>
      <point x="461" y="569" type="line"/>
      <point x="300" y="569" type="line"/>
      <point x="300" y="214" type="line" smooth="yes"/>
      <point x="300" y="161"/>
      <point x="298" y="140"/>
      <point x="285" y="124" type="curve" smooth="yes"/>
      <point x="278" y="116"/>
      <point x="269" y="112"/>
      <point x="258" y="112" type="curve" smooth="yes"/>
      <point x="247" y="112"/>
      <point x="237" y="116"/>
      <point x="230" y="124" type="curve" smooth="yes"/>
      <point x="218" y="138"/>
      <point x="213" y="159"/>
      <point x="213" y="215" type="curve" smooth="yes"/>
      <point x="213" y="569" type="line"/>
      <point x="52" y="569" type="line"/>
      <point x="52" y="240" type="line" smooth="yes"/>
      <point x="52" y="120"/>
      <point x="71" y="68"/>
      <point x="118" y="27" type="curve" smooth="yes"/>
      <point x="148" y="1"/>
      <point x="181" y="-12"/>
    </contour>
  </outline>
</glyph>
<glyph name="hundredtamil" format="2">
  <advance width="799"/>
  <unicode hex="0BF1"/>
  <outline>
    <contour>
      <point x="292" y="0" type="line"/>
      <point x="453" y="0" type="line"/>
      <point x="453" y="445" type="line"/>
      <point x="532" y="445" type="line"/>
      <point x="532" y="0" type="line"/>
      <point x="693" y="0" type="line"/>
      <point x="693" y="445" type="line"/>
      <point x="783" y="445" type="line"/>
      <point x="783" y="569" type="line"/>
      <point x="292" y="569" type="line"/>
    </contour>
    <contour>
      <point x="198" y="581" type="curve" smooth="yes"/>
      <point x="150" y="581"/>
      <point x="116" y="564"/>
      <point x="93" y="536" type="curve" smooth="yes"/>
      <point x="63" y="499"/>
      <point x="51" y="450"/>
      <point x="51" y="354" type="curve" smooth="yes"/>
      <point x="51" y="0" type="line"/>
      <point x="212" y="0" type="line"/>
      <point x="212" y="380" type="line" smooth="yes"/>
      <point x="212" y="418"/>
      <point x="215" y="438"/>
      <point x="227" y="449" type="curve" smooth="yes"/>
      <point x="234" y="455"/>
      <point x="242" y="458"/>
      <point x="255" y="458" type="curve" smooth="yes"/>
      <point x="281" y="458"/>
      <point x="298" y="442"/>
      <point x="314" y="417" type="curve"/>
      <point x="323" y="521" type="line"/>
      <point x="295" y="555"/>
      <point x="263" y="581"/>
    </contour>
  </outline>
</glyph>
<glyph name="thousandtamil" format="2">
  <advance width="932"/>
  <unicode hex="0BF2"/>
  <outline>
    <contour>
      <point x="772" y="202" type="curve" smooth="yes"/>
      <point x="725" y="202"/>
      <point x="691" y="187"/>
      <point x="660" y="169" type="curve"/>
      <point x="675" y="61" type="line"/>
      <point x="699" y="77"/>
      <point x="713" y="82"/>
      <point x="729" y="82" type="curve" smooth="yes"/>
      <point x="755" y="82"/>
      <point x="767" y="63"/>
      <point x="767" y="29" type="curve" smooth="yes"/>
      <point x="767" y="-1"/>
      <point x="758" y="-20"/>
      <point x="743" y="-32" type="curve" smooth="yes"/>
      <point x="724" y="-47"/>
      <point x="700" y="-50"/>
      <point x="643" y="-50" type="curve" smooth="yes"/>
      <point x="287" y="-50" type="line" smooth="yes"/>
      <point x="181" y="-50"/>
      <point x="134" y="-61"/>
      <point x="96" y="-85" type="curve" smooth="yes"/>
      <point x="51" y="-114"/>
      <point x="29" y="-161"/>
      <point x="29" y="-233" type="curve" smooth="yes"/>
      <point x="29" y="-262"/>
      <point x="32" y="-291"/>
      <point x="36" y="-322" type="curve"/>
      <point x="194" y="-313" type="line"/>
      <point x="192" y="-300"/>
      <point x="190" y="-279"/>
      <point x="190" y="-264" type="curve" smooth="yes"/>
      <point x="190" y="-231"/>
      <point x="199" y="-208"/>
      <point x="217" y="-194" type="curve" smooth="yes"/>
      <point x="235" y="-180"/>
      <point x="254" y="-174"/>
      <point x="316" y="-174" type="curve" smooth="yes"/>
      <point x="630" y="-174" type="line" smooth="yes"/>
      <point x="738" y="-174"/>
      <point x="810" y="-166"/>
      <point x="861" y="-125" type="curve" smooth="yes"/>
      <point x="900" y="-94"/>
      <point x="924" y="-43"/>
      <point x="924" y="38" type="curve" smooth="yes"/>
      <point x="924" y="137"/>
      <point x="867" y="202"/>
    </contour>
    <contour>
      <point x="248" y="-12" type="curve" smooth="yes"/>
      <point x="335" y="-12"/>
      <point x="396" y="10"/>
      <point x="433" y="52" type="curve" smooth="yes"/>
      <point x="473" y="96"/>
      <point x="488" y="151"/>
      <point x="488" y="253" type="curve" smooth="yes"/>
      <point x="488" y="445" type="line"/>
      <point x="630" y="445" type="line"/>
      <point x="630" y="569" type="line"/>
      <point x="95" y="569" type="line"/>
      <point x="95" y="286" type="line"/>
      <point x="240" y="302" type="line"/>
      <point x="240" y="445" type="line"/>
      <point x="331" y="445" type="line"/>
      <point x="331" y="218" type="line" smooth="yes"/>
      <point x="331" y="139"/>
      <point x="298" y="112"/>
      <point x="246" y="112" type="curve" smooth="yes"/>
      <point x="210" y="112"/>
      <point x="183" y="129"/>
      <point x="183" y="170" type="curve" smooth="yes"/>
      <point x="183" y="191"/>
      <point x="189" y="206"/>
      <point x="201" y="217" type="curve" smooth="yes"/>
      <point x="217" y="232"/>
      <point x="240" y="237"/>
      <point x="291" y="237" type="curve" smooth="yes"/>
      <point x="766" y="237" type="line"/>
      <point x="766" y="352" type="line"/>
      <point x="313" y="352" type="line" smooth="yes"/>
      <point x="121" y="352"/>
      <point x="28" y="278"/>
      <point x="28" y="167" type="curve" smooth="yes"/>
      <point x="28" y="52"/>
      <point x="102" y="-12"/>
    </contour>
    <contour>
      <point x="542" y="0" type="line"/>
      <point x="696" y="0" type="line"/>
      <point x="696" y="267" type="line"/>
      <point x="542" y="275" type="line"/>
    </contour>
  </outline>
</glyph>
<glyph name="daysigntamil" format="2">
  <advance width="851"/>
  <unicode hex="0BF3"/>
  <outline>
    <contour>
      <point x="222" y="-12" type="curve" smooth="yes"/>
      <point x="352" y="-12"/>
      <point x="407" y="60"/>
      <point x="407" y="175" type="curve" smooth="yes"/>
      <point x="407" y="291"/>
      <point x="351" y="352"/>
      <point x="253" y="352" type="curve" smooth="yes"/>
      <point x="192" y="352"/>
      <point x="151" y="319"/>
      <point x="106" y="272" type="curve"/>
      <point x="132" y="179" type="line"/>
      <point x="163" y="218"/>
      <point x="189" y="237"/>
      <point x="212" y="237" type="curve" smooth="yes"/>
      <point x="233" y="237"/>
      <point x="258" y="221"/>
      <point x="258" y="172" type="curve" smooth="yes"/>
      <point x="258" y="124"/>
      <point x="246" y="107"/>
      <point x="219" y="107" type="curve" smooth="yes"/>
      <point x="187" y="107"/>
      <point x="172" y="141"/>
      <point x="172" y="224" type="curve" smooth="yes"/>
      <point x="172" y="384"/>
      <point x="228" y="457"/>
      <point x="322" y="457" type="curve" smooth="yes"/>
      <point x="399" y="457"/>
      <point x="459" y="398"/>
      <point x="459" y="265" type="curve" smooth="yes"/>
      <point x="459" y="199"/>
      <point x="445" y="131"/>
      <point x="431" y="94" type="curve"/>
      <point x="446" y="0" type="line"/>
      <point x="835" y="0" type="line"/>
      <point x="835" y="124" type="line"/>
      <point x="593" y="124" type="line"/>
      <point x="610" y="172"/>
      <point x="620" y="236"/>
      <point x="620" y="288" type="curve" smooth="yes"/>
      <point x="620" y="448"/>
      <point x="531" y="581"/>
      <point x="328" y="581" type="curve" smooth="yes"/>
      <point x="166" y="581"/>
      <point x="30" y="477"/>
      <point x="30" y="249" type="curve" smooth="yes"/>
      <point x="30" y="77"/>
      <point x="100" y="-12"/>
    </contour>
  </outline>
</glyph>
<glyph name="monthsigntamil" format="2">
  <advance width="1111"/>
  <unicode hex="0BF4"/>
  <outline>
    <contour>
      <point x="496" y="581" type="curve" smooth="yes"/>
      <point x="441" y="581"/>
      <point x="399" y="566"/>
      <point x="370" y="540" type="curve" smooth="yes"/>
      <point x="332" y="506"/>
      <point x="313" y="460"/>
      <point x="313" y="384" type="curve" smooth="yes"/>
      <point x="313" y="124" type="line"/>
      <point x="214" y="124" type="line"/>
      <point x="214" y="569" type="line"/>
      <point x="53" y="569" type="line"/>
      <point x="53" y="0" type="line"/>
      <point x="450" y="0" type="line" smooth="yes"/>
      <point x="546" y="0"/>
      <point x="594" y="15"/>
      <point x="636" y="47" type="curve" smooth="yes"/>
      <point x="690" y="88"/>
      <point x="721" y="161"/>
      <point x="721" y="276" type="curve" smooth="yes"/>
      <point x="721" y="460"/>
      <point x="657" y="581"/>
    </contour>
    <contour>
      <point x="506" y="457" type="curve" smooth="yes"/>
      <point x="543" y="457"/>
      <point x="560" y="386"/>
      <point x="560" y="275" type="curve" smooth="yes"/>
      <point x="560" y="153"/>
      <point x="530" y="124"/>
      <point x="475" y="124" type="curve"/>
      <point x="474" y="124" type="line"/>
      <point x="474" y="394" type="line" smooth="yes"/>
      <point x="474" y="431"/>
      <point x="478" y="440"/>
      <point x="485" y="448" type="curve" smooth="yes"/>
      <point x="491" y="455"/>
      <point x="499" y="457"/>
    </contour>
    <contour>
      <point x="776" y="472" type="curve" smooth="yes"/>
      <point x="832" y="472"/>
      <point x="887" y="500"/>
      <point x="887" y="595" type="curve" smooth="yes"/>
      <point x="887" y="638"/>
      <point x="873" y="669"/>
      <point x="849" y="689" type="curve" smooth="yes"/>
      <point x="827" y="707"/>
      <point x="802" y="717"/>
      <point x="755" y="717" type="curve" smooth="yes"/>
      <point x="690" y="717" type="line" smooth="yes"/>
      <point x="573" y="717"/>
      <point x="503" y="663"/>
      <point x="503" y="551" type="curve"/>
      <point x="612" y="516" type="line"/>
      <point x="612" y="540" type="line" smooth="yes"/>
      <point x="612" y="579"/>
      <point x="620" y="624"/>
      <point x="683" y="624" type="curve" smooth="yes"/>
      <point x="749" y="624" type="line" smooth="yes"/>
      <point x="768" y="624"/>
      <point x="778" y="621"/>
      <point x="785" y="614" type="curve" smooth="yes"/>
      <point x="791" y="608"/>
      <point x="794" y="600"/>
      <point x="794" y="588" type="curve" smooth="yes"/>
      <point x="794" y="571"/>
      <point x="788" y="563"/>
      <point x="774" y="563" type="curve" smooth="yes"/>
      <point x="756" y="563"/>
      <point x="751" y="583"/>
      <point x="751" y="610" type="curve" smooth="yes"/>
      <point x="751" y="624"/>
      <point x="751" y="637"/>
      <point x="753" y="657" type="curve"/>
      <point x="762" y="709"/>
      <point x="789" y="744"/>
      <point x="837" y="744" type="curve" smooth="yes"/>
      <point x="895" y="744"/>
      <point x="921" y="698"/>
      <point x="921" y="641" type="curve" smooth="yes"/>
      <point x="921" y="602"/>
      <point x="910" y="565"/>
      <point x="903" y="546" type="curve"/>
      <point x="903" y="477" type="line"/>
      <point x="1096" y="477" type="line"/>
      <point x="1096" y="581" type="line"/>
      <point x="994" y="581" type="line"/>
      <point x="1016" y="562" type="line"/>
      <point x="1025" y="592"/>
      <point x="1033" y="634"/>
      <point x="1033" y="670" type="curve" smooth="yes"/>
      <point x="1033" y="777"/>
      <point x="970" y="850"/>
      <point x="854" y="850" type="curve" smooth="yes"/>
      <point x="741" y="850"/>
      <point x="670" y="774"/>
      <point x="654" y="679" type="curve" smooth="yes"/>
      <point x="651" y="658"/>
      <point x="650" y="638"/>
      <point x="650" y="613" type="curve" smooth="yes"/>
      <point x="650" y="524"/>
      <point x="695" y="472"/>
    </contour>
  </outline>
</glyph>
<glyph name="yearsigntamil" format="2">
  <advance width="1989"/>
  <unicode hex="0BF5"/>
  <outline>
    <contour>
      <point x="855" y="721" type="curve" smooth="yes"/>
      <point x="1115" y="721"/>
      <point x="1280" y="695"/>
      <point x="1382" y="612" type="curve" smooth="yes"/>
      <point x="1472" y="538"/>
      <point x="1511" y="411"/>
      <point x="1520" y="246" type="curve" smooth="yes"/>
      <point x="1526" y="136"/>
      <point x="1549" y="72"/>
      <point x="1590" y="35" type="curve" smooth="yes"/>
      <point x="1625" y="3"/>
      <point x="1667" y="-12"/>
      <point x="1739" y="-12" type="curve" smooth="yes"/>
      <point x="1899" y="-12"/>
      <point x="1957" y="101"/>
      <point x="1957" y="263" type="curve" smooth="yes"/>
      <point x="1957" y="389"/>
      <point x="1927" y="501"/>
      <point x="1854" y="615" type="curve"/>
      <point x="1711" y="540" type="line"/>
      <point x="1764" y="453"/>
      <point x="1796" y="342"/>
      <point x="1796" y="236" type="curve" smooth="yes"/>
      <point x="1796" y="133"/>
      <point x="1777" y="112"/>
      <point x="1741" y="112" type="curve" smooth="yes"/>
      <point x="1725" y="112"/>
      <point x="1713" y="117"/>
      <point x="1705" y="128" type="curve" smooth="yes"/>
      <point x="1690" y="147"/>
      <point x="1683" y="183"/>
      <point x="1681" y="269" type="curve" smooth="yes"/>
      <point x="1675" y="501"/>
      <point x="1599" y="639"/>
      <point x="1467" y="729" type="curve" smooth="yes"/>
      <point x="1331" y="822"/>
      <point x="1145" y="851"/>
      <point x="900" y="851" type="curve" smooth="yes"/>
      <point x="821" y="851" type="line" smooth="yes"/>
      <point x="365" y="851"/>
      <point x="36" y="674"/>
      <point x="36" y="269" type="curve" smooth="yes"/>
      <point x="36" y="262" type="line" smooth="yes"/>
      <point x="36" y="-172"/>
      <point x="328" y="-321"/>
      <point x="791" y="-321" type="curve" smooth="yes"/>
      <point x="847" y="-321" type="line" smooth="yes"/>
      <point x="1159" y="-321"/>
      <point x="1503" y="-238"/>
      <point x="1503" y="115" type="curve" smooth="yes"/>
      <point x="1503" y="255"/>
      <point x="1448" y="346"/>
      <point x="1342" y="346" type="curve" smooth="yes"/>
      <point x="1317" y="346"/>
      <point x="1293" y="340"/>
      <point x="1275" y="330" type="curve"/>
      <point x="1275" y="445" type="line"/>
      <point x="1360" y="445" type="line"/>
      <point x="1360" y="569" type="line"/>
      <point x="884" y="569" type="line"/>
      <point x="884" y="0" type="line"/>
      <point x="1045" y="0" type="line"/>
      <point x="1045" y="445" type="line"/>
      <point x="1114" y="445" type="line"/>
      <point x="1114" y="0" type="line"/>
      <point x="1275" y="0" type="line"/>
      <point x="1275" y="217" type="line"/>
      <point x="1283" y="221"/>
      <point x="1292" y="223"/>
      <point x="1300" y="223" type="curve" smooth="yes"/>
      <point x="1332" y="223"/>
      <point x="1347" y="184"/>
      <point x="1347" y="114" type="curve" smooth="yes"/>
      <point x="1347" y="-123"/>
      <point x="1118" y="-191"/>
      <point x="844" y="-191" type="curve" smooth="yes"/>
      <point x="807" y="-191" type="line" smooth="yes"/>
      <point x="372" y="-191"/>
      <point x="195" y="-54"/>
      <point x="195" y="259" type="curve" smooth="yes"/>
      <point x="195" y="267" type="line" smooth="yes"/>
      <point x="195" y="563"/>
      <point x="399" y="721"/>
    </contour>
    <contour>
      <point x="445" y="-12" type="curve" smooth="yes"/>
      <point x="575" y="-12"/>
      <point x="630" y="60"/>
      <point x="630" y="175" type="curve" smooth="yes"/>
      <point x="630" y="291"/>
      <point x="574" y="352"/>
      <point x="476" y="352" type="curve" smooth="yes"/>
      <point x="415" y="352"/>
      <point x="374" y="319"/>
      <point x="329" y="272" type="curve"/>
      <point x="355" y="179" type="line"/>
      <point x="386" y="218"/>
      <point x="412" y="237"/>
      <point x="435" y="237" type="curve" smooth="yes"/>
      <point x="456" y="237"/>
      <point x="481" y="221"/>
      <point x="481" y="172" type="curve" smooth="yes"/>
      <point x="481" y="124"/>
      <point x="469" y="107"/>
      <point x="442" y="107" type="curve" smooth="yes"/>
      <point x="410" y="107"/>
      <point x="395" y="141"/>
      <point x="395" y="224" type="curve" smooth="yes"/>
      <point x="395" y="384"/>
      <point x="451" y="457"/>
      <point x="545" y="457" type="curve" smooth="yes"/>
      <point x="622" y="457"/>
      <point x="682" y="398"/>
      <point x="682" y="265" type="curve" smooth="yes"/>
      <point x="682" y="199"/>
      <point x="668" y="131"/>
      <point x="654" y="94" type="curve"/>
      <point x="669" y="0" type="line"/>
      <point x="933" y="0" type="line"/>
      <point x="933" y="124" type="line"/>
      <point x="816" y="124" type="line"/>
      <point x="833" y="172"/>
      <point x="843" y="236"/>
      <point x="843" y="288" type="curve" smooth="yes"/>
      <point x="843" y="448"/>
      <point x="754" y="581"/>
      <point x="551" y="581" type="curve" smooth="yes"/>
      <point x="389" y="581"/>
      <point x="253" y="477"/>
      <point x="253" y="249" type="curve" smooth="yes"/>
      <point x="253" y="77"/>
      <point x="323" y="-12"/>
    </contour>
  </outline>
</glyph>
<glyph name="debitsigntamil" format="2">
  <advance width="908"/>
  <unicode hex="0BF6"/>
  <outline>
    <contour>
      <point x="258" y="-321" type="curve" smooth="yes"/>
      <point x="385" y="-321"/>
      <point x="511" y="-274"/>
      <point x="571" y="-152" type="curve"/>
      <point x="586" y="-82" type="line"/>
      <point x="594" y="-53"/>
      <point x="599" y="-21"/>
      <point x="599" y="20" type="curve" smooth="yes"/>
      <point x="599" y="90" type="line"/>
      <point x="438" y="89" type="line"/>
      <point x="438" y="-8" type="line" smooth="yes"/>
      <point x="438" y="-26"/>
      <point x="436" y="-51"/>
      <point x="433" y="-68" type="curve"/>
      <point x="420" y="-138" type="line"/>
      <point x="392" y="-185"/>
      <point x="338" y="-211"/>
      <point x="256" y="-211" type="curve" smooth="yes"/>
      <point x="202" y="-211"/>
      <point x="170" y="-198"/>
      <point x="170" y="-173" type="curve" smooth="yes"/>
      <point x="170" y="-159"/>
      <point x="176" y="-156"/>
      <point x="195" y="-156" type="curve" smooth="yes"/>
      <point x="492" y="-156" type="line"/>
      <point x="529" y="-174" type="line"/>
      <point x="855" y="-174" type="line"/>
      <point x="855" y="569" type="line"/>
      <point x="694" y="569" type="line"/>
      <point x="694" y="-50" type="line"/>
      <point x="171" y="-50" type="line" smooth="yes"/>
      <point x="101" y="-50"/>
      <point x="75" y="-60"/>
      <point x="52" y="-80" type="curve" smooth="yes"/>
      <point x="32" y="-97"/>
      <point x="22" y="-122"/>
      <point x="22" y="-153" type="curve" smooth="yes"/>
      <point x="22" y="-268"/>
      <point x="117" y="-321"/>
    </contour>
    <contour>
      <point x="444" y="0" type="line"/>
      <point x="444" y="124" type="line"/>
      <point x="214" y="124" type="line"/>
      <point x="214" y="569" type="line"/>
      <point x="53" y="569" type="line"/>
      <point x="53" y="0" type="line"/>
    </contour>
    <contour>
      <point x="599" y="569" type="line"/>
      <point x="438" y="569" type="line"/>
      <point x="438" y="82" type="line"/>
      <point x="599" y="53" type="line"/>
    </contour>
  </outline>
</glyph>
<glyph name="creditsigntamil" format="2">
  <advance width="1233"/>
  <unicode hex="0BF7"/>
  <outline>
    <contour>
      <point x="223" y="-12" type="curve" smooth="yes"/>
      <point x="352" y="-12"/>
      <point x="407" y="60"/>
      <point x="407" y="175" type="curve" smooth="yes"/>
      <point x="407" y="290"/>
      <point x="351" y="352"/>
      <point x="253" y="352" type="curve" smooth="yes"/>
      <point x="192" y="352"/>
      <point x="151" y="319"/>
      <point x="106" y="272" type="curve"/>
      <point x="132" y="179" type="line"/>
      <point x="163" y="218"/>
      <point x="189" y="237"/>
      <point x="212" y="237" type="curve" smooth="yes"/>
      <point x="239" y="237"/>
      <point x="258" y="221"/>
      <point x="258" y="172" type="curve" smooth="yes"/>
      <point x="258" y="124"/>
      <point x="246" y="107"/>
      <point x="219" y="107" type="curve" smooth="yes"/>
      <point x="187" y="107"/>
      <point x="172" y="142"/>
      <point x="172" y="216" type="curve" smooth="yes"/>
      <point x="172" y="320"/>
      <point x="200" y="373"/>
      <point x="249" y="408" type="curve" smooth="yes"/>
      <point x="284" y="433"/>
      <point x="330" y="445"/>
      <point x="412" y="445" type="curve" smooth="yes"/>
      <point x="441" y="445" type="line"/>
      <point x="462" y="569" type="line"/>
      <point x="446" y="569" type="line" smooth="yes"/>
      <point x="278" y="569"/>
      <point x="197" y="540"/>
      <point x="134" y="488" type="curve" smooth="yes"/>
      <point x="69" y="434"/>
      <point x="30" y="355"/>
      <point x="30" y="245" type="curve" smooth="yes"/>
      <point x="30" y="77"/>
      <point x="99" y="-12"/>
    </contour>
    <contour>
      <point x="451" y="0" type="line"/>
      <point x="612" y="0" type="line"/>
      <point x="612" y="445" type="line"/>
      <point x="703" y="445" type="line"/>
      <point x="703" y="569" type="line"/>
      <point x="453" y="569" type="line"/>
      <point x="425" y="445" type="line"/>
      <point x="451" y="445" type="line"/>
    </contour>
    <contour>
      <point x="775" y="-5" type="curve" smooth="yes"/>
      <point x="831" y="-5"/>
      <point x="886" y="23"/>
      <point x="886" y="118" type="curve" smooth="yes"/>
      <point x="886" y="161"/>
      <point x="872" y="192"/>
      <point x="848" y="212" type="curve" smooth="yes"/>
      <point x="826" y="230"/>
      <point x="801" y="240"/>
      <point x="754" y="240" type="curve" smooth="yes"/>
      <point x="592" y="240" type="line"/>
      <point x="599" y="147" type="line"/>
      <point x="748" y="147" type="line" smooth="yes"/>
      <point x="767" y="147"/>
      <point x="777" y="144"/>
      <point x="784" y="137" type="curve" smooth="yes"/>
      <point x="790" y="131"/>
      <point x="793" y="123"/>
      <point x="793" y="111" type="curve" smooth="yes"/>
      <point x="793" y="94"/>
      <point x="787" y="86"/>
      <point x="773" y="86" type="curve" smooth="yes"/>
      <point x="755" y="86"/>
      <point x="750" y="106"/>
      <point x="750" y="133" type="curve" smooth="yes"/>
      <point x="750" y="147"/>
      <point x="750" y="160"/>
      <point x="752" y="180" type="curve"/>
      <point x="761" y="232"/>
      <point x="788" y="267"/>
      <point x="836" y="267" type="curve" smooth="yes"/>
      <point x="894" y="267"/>
      <point x="920" y="221"/>
      <point x="920" y="164" type="curve" smooth="yes"/>
      <point x="920" y="125"/>
      <point x="909" y="88"/>
      <point x="902" y="69" type="curve"/>
      <point x="902" y="0" type="line"/>
      <point x="1095" y="0" type="line"/>
      <point x="1095" y="104" type="line"/>
      <point x="993" y="104" type="line"/>
      <point x="1015" y="85" type="line"/>
      <point x="1024" y="115"/>
      <point x="1032" y="157"/>
      <point x="1032" y="193" type="curve" smooth="yes"/>
      <point x="1032" y="300"/>
      <point x="969" y="373"/>
      <point x="853" y="373" type="curve" smooth="yes"/>
      <point x="740" y="373"/>
      <point x="669" y="297"/>
      <point x="653" y="202" type="curve" smooth="yes"/>
      <point x="650" y="181"/>
      <point x="649" y="161"/>
      <point x="649" y="136" type="curve" smooth="yes"/>
      <point x="649" y="47"/>
      <point x="694" y="-5"/>
    </contour>
    <contour>
      <point x="1081" y="0" type="line"/>
      <point x="1193" y="0" type="line"/>
      <point x="1193" y="370" type="line"/>
      <point x="1081" y="370" type="line"/>
    </contour>
  </outline>
</glyph>
<glyph name="asabovesigntamil" format="2">
  <advance width="1804"/>
  <unicode hex="0BF8"/>
  <outline>
    <contour>
      <point x="333" y="-12" type="curve" smooth="yes"/>
      <point x="471" y="-12"/>
      <point x="544" y="67"/>
      <point x="544" y="194" type="curve" smooth="yes"/>
      <point x="544" y="290"/>
      <point x="494" y="384"/>
      <point x="374" y="384" type="curve" smooth="yes"/>
      <point x="267" y="384"/>
      <point x="213" y="314"/>
      <point x="213" y="219" type="curve" smooth="yes"/>
      <point x="213" y="159"/>
      <point x="232" y="114"/>
      <point x="250" y="88" type="curve"/>
      <point x="354" y="81" type="line"/>
      <point x="337" y="111"/>
      <point x="321" y="142"/>
      <point x="321" y="195" type="curve" smooth="yes"/>
      <point x="321" y="242"/>
      <point x="337" y="266"/>
      <point x="363" y="266" type="curve" smooth="yes"/>
      <point x="390" y="266"/>
      <point x="401" y="238"/>
      <point x="401" y="195" type="curve" smooth="yes"/>
      <point x="401" y="140"/>
      <point x="380" y="105"/>
      <point x="342" y="105" type="curve" smooth="yes"/>
      <point x="329" y="105"/>
      <point x="306" y="107"/>
      <point x="293" y="110" type="curve"/>
      <point x="255" y="103" type="line"/>
      <point x="217" y="143"/>
      <point x="188" y="197"/>
      <point x="188" y="376" type="curve" smooth="yes"/>
      <point x="188" y="621"/>
      <point x="325" y="723"/>
      <point x="480" y="723" type="curve" smooth="yes"/>
      <point x="596" y="723"/>
      <point x="697" y="652"/>
      <point x="751" y="521" type="curve"/>
      <point x="766" y="478" type="line"/>
      <point x="783" y="422"/>
      <point x="793" y="357"/>
      <point x="793" y="283" type="curve" smooth="yes"/>
      <point x="793" y="194"/>
      <point x="777" y="184"/>
      <point x="759" y="184" type="curve" smooth="yes"/>
      <point x="733" y="184"/>
      <point x="723" y="211"/>
      <point x="723" y="272" type="curve" smooth="yes"/>
      <point x="723" y="346"/>
      <point x="749" y="422"/>
      <point x="809" y="448" type="curve"/>
      <point x="866" y="460" type="line"/>
      <point x="961" y="460"/>
      <point x="1000" y="379"/>
      <point x="1000" y="265" type="curve" smooth="yes"/>
      <point x="1000" y="199"/>
      <point x="986" y="131"/>
      <point x="972" y="94" type="curve"/>
      <point x="987" y="0" type="line"/>
      <point x="1262" y="0" type="line"/>
      <point x="1248" y="124" type="line"/>
      <point x="1134" y="124" type="line"/>
      <point x="1151" y="172"/>
      <point x="1161" y="236"/>
      <point x="1161" y="288" type="curve" smooth="yes"/>
      <point x="1161" y="448"/>
      <point x="1072" y="581"/>
      <point x="877" y="581" type="curve" smooth="yes"/>
      <point x="841" y="581"/>
      <point x="815" y="578"/>
      <point x="788" y="573" type="curve"/>
      <point x="694" y="551"/>
      <point x="574" y="455"/>
      <point x="574" y="282" type="curve" smooth="yes"/>
      <point x="574" y="139"/>
      <point x="641" y="66"/>
      <point x="761" y="66" type="curve" smooth="yes"/>
      <point x="883" y="66"/>
      <point x="941" y="143"/>
      <point x="941" y="309" type="curve" smooth="yes"/>
      <point x="941" y="374"/>
      <point x="932" y="433"/>
      <point x="911" y="498" type="curve"/>
      <point x="903" y="545" type="line"/>
      <point x="842" y="729"/>
      <point x="696" y="850"/>
      <point x="486" y="850" type="curve" smooth="yes"/>
      <point x="219" y="850"/>
      <point x="33" y="665"/>
      <point x="33" y="380" type="curve" smooth="yes"/>
      <point x="33" y="142"/>
      <point x="131" y="-12"/>
    </contour>
    <contour>
      <point x="1382" y="581" type="curve" smooth="yes"/>
      <point x="1254" y="581"/>
      <point x="1198" y="484"/>
      <point x="1198" y="389" type="curve" smooth="yes"/>
      <point x="1198" y="275"/>
      <point x="1251" y="182"/>
      <point x="1431" y="182" type="curve" smooth="yes"/>
      <point x="1473" y="182" type="line" smooth="yes"/>
      <point x="1532" y="182"/>
      <point x="1578" y="199"/>
      <point x="1621" y="226" type="curve"/>
      <point x="1620" y="210"/>
      <point x="1620" y="192"/>
      <point x="1620" y="178" type="curve" smooth="yes"/>
      <point x="1620" y="124" type="line"/>
      <point x="1250" y="124" type="line"/>
      <point x="1246" y="0" type="line"/>
      <point x="1763" y="0" type="line"/>
      <point x="1763" y="362" type="line"/>
      <point x="1621" y="362" type="line"/>
      <point x="1588" y="325"/>
      <point x="1545" y="298"/>
      <point x="1483" y="298" type="curve" smooth="yes"/>
      <point x="1424" y="298" type="line" smooth="yes"/>
      <point x="1360" y="298"/>
      <point x="1340" y="333"/>
      <point x="1340" y="388" type="curve" smooth="yes"/>
      <point x="1340" y="436"/>
      <point x="1355" y="459"/>
      <point x="1374" y="459" type="curve" smooth="yes"/>
      <point x="1395" y="459"/>
      <point x="1399" y="442"/>
      <point x="1399" y="413" type="curve" smooth="yes"/>
      <point x="1399" y="385"/>
      <point x="1394" y="353"/>
      <point x="1385" y="310" type="curve" smooth="yes"/>
      <point x="1336" y="65" type="line"/>
      <point x="1334" y="40" type="line"/>
      <point x="1269" y="-254" type="line"/>
      <point x="1428" y="-284" type="line"/>
      <point x="1534" y="231" type="line"/>
      <point x="1537" y="272" type="line"/>
      <point x="1548" y="318"/>
      <point x="1560" y="363"/>
      <point x="1560" y="416" type="curve" smooth="yes"/>
      <point x="1560" y="501"/>
      <point x="1515" y="581"/>
    </contour>
  </outline>
</glyph>
<glyph name="rupeesigntamil" format="2">
  <advance width="945"/>
  <unicode hex="0BF9"/>
  <outline>
    <contour>
      <point x="747" y="258" type="curve" smooth="yes"/>
      <point x="710" y="258"/>
      <point x="673" y="248"/>
      <point x="643" y="227" type="curve"/>
      <point x="655" y="118" type="line"/>
      <point x="669" y="128"/>
      <point x="684" y="134"/>
      <point x="701" y="134" type="curve" smooth="yes"/>
      <point x="733" y="134"/>
      <point x="756" y="102"/>
      <point x="756" y="32" type="curve" smooth="yes"/>
      <point x="756" y="-114"/>
      <point x="660" y="-193"/>
      <point x="508" y="-193" type="curve" smooth="yes"/>
      <point x="496" y="-193" type="line" smooth="yes"/>
      <point x="316" y="-193"/>
      <point x="192" y="-86"/>
      <point x="192" y="196" type="curve" smooth="yes"/>
      <point x="192" y="211" type="line" smooth="yes"/>
      <point x="192" y="411"/>
      <point x="263" y="547"/>
      <point x="333" y="611" type="curve"/>
      <point x="352" y="740" type="line"/>
      <point x="174" y="691"/>
      <point x="40" y="481"/>
      <point x="40" y="218" type="curve" smooth="yes"/>
      <point x="40" y="198" type="line" smooth="yes"/>
      <point x="40" y="-114"/>
      <point x="185" y="-321"/>
      <point x="491" y="-321" type="curve" smooth="yes"/>
      <point x="507" y="-321" type="line" smooth="yes"/>
      <point x="767" y="-321"/>
      <point x="916" y="-188"/>
      <point x="916" y="32" type="curve" smooth="yes"/>
      <point x="916" y="171"/>
      <point x="854" y="258"/>
    </contour>
    <contour>
      <point x="276" y="0" type="line"/>
      <point x="437" y="0" type="line"/>
      <point x="437" y="356" type="line"/>
      <point x="516" y="356" type="line"/>
      <point x="516" y="0" type="line"/>
      <point x="677" y="0" type="line"/>
      <point x="677" y="356" type="line"/>
      <point x="770" y="356" type="line"/>
      <point x="770" y="480" type="line"/>
      <point x="276" y="480" type="line"/>
    </contour>
    <contour>
      <point x="426" y="501" type="curve" smooth="yes"/>
      <point x="486" y="501"/>
      <point x="533" y="528"/>
      <point x="533" y="628" type="curve" smooth="yes"/>
      <point x="533" y="685"/>
      <point x="496" y="736"/>
      <point x="433" y="736" type="curve" smooth="yes"/>
      <point x="409" y="736"/>
      <point x="397" y="734"/>
      <point x="386" y="730" type="curve"/>
      <point x="382" y="637" type="line"/>
      <point x="394" y="647"/>
      <point x="405" y="653"/>
      <point x="416" y="653" type="curve" smooth="yes"/>
      <point x="433" y="653"/>
      <point x="443" y="640"/>
      <point x="443" y="620" type="curve" smooth="yes"/>
      <point x="443" y="605"/>
      <point x="440" y="589"/>
      <point x="421" y="589" type="curve" smooth="yes"/>
      <point x="405" y="589"/>
      <point x="398" y="612"/>
      <point x="398" y="635" type="curve" smooth="yes"/>
      <point x="398" y="652"/>
      <point x="399" y="670"/>
      <point x="407" y="683" type="curve"/>
      <point x="412" y="714" type="line"/>
      <point x="427" y="729"/>
      <point x="445" y="749"/>
      <point x="497" y="749" type="curve" smooth="yes"/>
      <point x="544" y="749"/>
      <point x="573" y="718"/>
      <point x="573" y="664" type="curve" smooth="yes"/>
      <point x="573" y="635"/>
      <point x="566" y="600"/>
      <point x="551" y="577" type="curve"/>
      <point x="551" y="503" type="line"/>
      <point x="770" y="503" type="line"/>
      <point x="770" y="606" type="line"/>
      <point x="648" y="606" type="line"/>
      <point x="657" y="591" type="line"/>
      <point x="674" y="614"/>
      <point x="681" y="660"/>
      <point x="681" y="682" type="curve" smooth="yes"/>
      <point x="681" y="787"/>
      <point x="625" y="851"/>
      <point x="506" y="851" type="curve" smooth="yes"/>
      <point x="384" y="851"/>
      <point x="306" y="756"/>
      <point x="307" y="656" type="curve"/>
      <point x="307" y="550"/>
      <point x="355" y="501"/>
    </contour>
  </outline>
</glyph>
<glyph name="numsigntamil" format="2">
  <advance width="1043"/>
  <unicode hex="0BFA"/>
  <outline>
    <contour>
      <point x="531" y="370" type="curve" smooth="yes"/>
      <point x="494" y="370"/>
      <point x="456" y="361"/>
      <point x="419" y="338" type="curve"/>
      <point x="434" y="227" type="line"/>
      <point x="450" y="238"/>
      <point x="467" y="246"/>
      <point x="483" y="246" type="curve" smooth="yes"/>
      <point x="520" y="246"/>
      <point x="543" y="213"/>
      <point x="543" y="127" type="curve" smooth="yes"/>
      <point x="543" y="56"/>
      <point x="533" y="9"/>
      <point x="506" y="-18" type="curve" smooth="yes"/>
      <point x="483" y="-40"/>
      <point x="455" y="-50"/>
      <point x="377" y="-50" type="curve" smooth="yes"/>
      <point x="287" y="-50" type="line" smooth="yes"/>
      <point x="181" y="-50"/>
      <point x="134" y="-61"/>
      <point x="96" y="-85" type="curve" smooth="yes"/>
      <point x="51" y="-114"/>
      <point x="29" y="-161"/>
      <point x="29" y="-233" type="curve" smooth="yes"/>
      <point x="29" y="-262"/>
      <point x="32" y="-291"/>
      <point x="36" y="-322" type="curve"/>
      <point x="194" y="-313" type="line"/>
      <point x="192" y="-300"/>
      <point x="190" y="-279"/>
      <point x="190" y="-264" type="curve" smooth="yes"/>
      <point x="190" y="-231"/>
      <point x="199" y="-208"/>
      <point x="217" y="-194" type="curve" smooth="yes"/>
      <point x="235" y="-180"/>
      <point x="254" y="-174"/>
      <point x="316" y="-174" type="curve" smooth="yes"/>
      <point x="360" y="-174" type="line" smooth="yes"/>
      <point x="494" y="-174"/>
      <point x="558" y="-162"/>
      <point x="615" y="-114" type="curve" smooth="yes"/>
      <point x="671" y="-67"/>
      <point x="701" y="10"/>
      <point x="701" y="133" type="curve" smooth="yes"/>
      <point x="701" y="269"/>
      <point x="650" y="370"/>
    </contour>
    <contour>
      <point x="53" y="0" type="line"/>
      <point x="214" y="0" type="line"/>
      <point x="214" y="445" type="line"/>
      <point x="293" y="445" type="line"/>
      <point x="293" y="0" type="line"/>
      <point x="454" y="0" type="line"/>
      <point x="454" y="445" type="line"/>
      <point x="544" y="445" type="line"/>
      <point x="544" y="569" type="line"/>
      <point x="53" y="569" type="line"/>
    </contour>
    <contour>
      <point x="708" y="472" type="curve" smooth="yes"/>
      <point x="764" y="472"/>
      <point x="819" y="500"/>
      <point x="819" y="595" type="curve" smooth="yes"/>
      <point x="819" y="638"/>
      <point x="805" y="669"/>
      <point x="781" y="689" type="curve" smooth="yes"/>
      <point x="759" y="707"/>
      <point x="734" y="717"/>
      <point x="687" y="717" type="curve" smooth="yes"/>
      <point x="622" y="717" type="line" smooth="yes"/>
      <point x="505" y="717"/>
      <point x="435" y="663"/>
      <point x="435" y="551" type="curve"/>
      <point x="544" y="516" type="line"/>
      <point x="544" y="540" type="line" smooth="yes"/>
      <point x="544" y="579"/>
      <point x="552" y="624"/>
      <point x="615" y="624" type="curve" smooth="yes"/>
      <point x="681" y="624" type="line" smooth="yes"/>
      <point x="700" y="624"/>
      <point x="710" y="621"/>
      <point x="717" y="614" type="curve" smooth="yes"/>
      <point x="723" y="608"/>
      <point x="726" y="600"/>
      <point x="726" y="588" type="curve" smooth="yes"/>
      <point x="726" y="571"/>
      <point x="720" y="563"/>
      <point x="706" y="563" type="curve" smooth="yes"/>
      <point x="688" y="563"/>
      <point x="683" y="583"/>
      <point x="683" y="610" type="curve" smooth="yes"/>
      <point x="683" y="624"/>
      <point x="683" y="637"/>
      <point x="685" y="657" type="curve"/>
      <point x="694" y="709"/>
      <point x="721" y="744"/>
      <point x="769" y="744" type="curve" smooth="yes"/>
      <point x="827" y="744"/>
      <point x="853" y="698"/>
      <point x="853" y="641" type="curve" smooth="yes"/>
      <point x="853" y="602"/>
      <point x="842" y="565"/>
      <point x="835" y="546" type="curve"/>
      <point x="835" y="477" type="line"/>
      <point x="1028" y="477" type="line"/>
      <point x="1028" y="581" type="line"/>
      <point x="926" y="581" type="line"/>
      <point x="948" y="562" type="line"/>
      <point x="957" y="592"/>
      <point x="965" y="634"/>
      <point x="965" y="670" type="curve" smooth="yes"/>
      <point x="965" y="777"/>
      <point x="902" y="850"/>
      <point x="786" y="850" type="curve" smooth="yes"/>
      <point x="673" y="850"/>
      <point x="602" y="774"/>
      <point x="586" y="679" type="curve" smooth="yes"/>
      <point x="583" y="658"/>
      <point x="582" y="638"/>
      <point x="582" y="613" type="curve" smooth="yes"/>
      <point x="582" y="524"/>
      <point x="627" y="472"/>
    </contour>
  </outline>
</glyph>
<glyph name="uni1CDA" format="2">
  <unicode hex="1CDA"/>
  <outline>
    <contour>
      <point x="-388" y="870" type="line"/>
      <point x="-388" y="654" type="line"/>
      <point x="-300" y="654" type="line"/>
      <point x="-300" y="870" type="line"/>
    </contour>
    <contour>
      <point x="-257" y="870" type="line"/>
      <point x="-257" y="654" type="line"/>
      <point x="-169" y="654" type="line"/>
      <point x="-169" y="870" type="line"/>
    </contour>
  </outline>
</glyph>
<glyph name="endash.tamil" format="2">
  <advance width="500"/>
  <unicode hex="2013"/>
  <outline>
    <contour>
      <point x="39" y="242" type="line"/>
      <point x="461" y="242" type="line"/>
      <point x="461" y="373" type="line"/>
      <point x="39" y="373" type="line"/>
    </contour>
  </outline>
</glyph>
<glyph name="uni2074" format="2">
  <advance width="363"/>
  <unicode hex="2074"/>
  <outline>
    <contour>
      <point x="179" y="369" type="line"/>
      <point x="294" y="369" type="line"/>
      <point x="294" y="440" type="line"/>
      <point x="347" y="440" type="line"/>
      <point x="347" y="533" type="line"/>
      <point x="294" y="533" type="line"/>
      <point x="294" y="800" type="line"/>
      <point x="160" y="800" type="line"/>
      <point x="15" y="527" type="line"/>
      <point x="15" y="440" type="line"/>
      <point x="179" y="440" type="line"/>
    </contour>
    <contour>
      <point x="113" y="533" type="line"/>
      <point x="151" y="607" type="line" smooth="yes"/>
      <point x="162" y="628"/>
      <point x="172" y="650"/>
      <point x="182" y="682" type="curve"/>
      <point x="180" y="661"/>
      <point x="179" y="639"/>
      <point x="179" y="616" type="curve" smooth="yes"/>
      <point x="179" y="533" type="line"/>
    </contour>
  </outline>
</glyph>
<glyph name="uni20B9.tamil" format="2">
  <advance width="496"/>
  <unicode hex="20B9"/>
  <outline>
    <contour>
      <point x="183" y="0" type="line"/>
      <point x="361" y="0" type="line"/>
      <point x="191" y="274" type="line"/>
      <point x="195" y="253" type="line"/>
      <point x="303" y="279"/>
      <point x="346" y="336"/>
      <point x="346" y="474" type="curve" smooth="yes"/>
      <point x="346" y="531"/>
      <point x="322" y="576"/>
      <point x="296" y="597" type="curve"/>
      <point x="454" y="597" type="line"/>
      <point x="454" y="714" type="line"/>
      <point x="46" y="714" type="line"/>
      <point x="46" y="597" type="line"/>
      <point x="90" y="597" type="line" smooth="yes"/>
      <point x="129" y="597"/>
      <point x="149" y="590"/>
      <point x="162" y="578" type="curve" smooth="yes"/>
      <point x="187" y="555"/>
      <point x="193" y="524"/>
      <point x="193" y="476" type="curve" smooth="yes"/>
      <point x="193" y="416"/>
      <point x="188" y="392"/>
      <point x="168" y="372" type="curve" smooth="yes"/>
      <point x="153" y="357"/>
      <point x="130" y="350"/>
      <point x="87" y="350" type="curve" smooth="yes"/>
      <point x="64" y="350" type="line"/>
      <point x="47" y="243" type="line"/>
    </contour>
    <contour>
      <point x="46" y="411" type="line"/>
      <point x="454" y="411" type="line"/>
      <point x="454" y="534" type="line"/>
      <point x="46" y="534" type="line"/>
    </contour>
  </outline>
</glyph>
<glyph name="minus.tamil" format="2">
  <advance width="496"/>
  <unicode hex="2212"/>
  <outline>
    <contour>
      <point x="34" y="288" type="line"/>
      <point x="462" y="288" type="line"/>
      <point x="462" y="417" type="line"/>
      <point x="34" y="417" type="line"/>
    </contour>
  </outline>
</glyph>
<glyph name="uniA8F3" format="2">
  <advance width="482"/>
  <unicode hex="A8F3"/>
  <outline>
    <contour>
      <point x="242" y="276" type="curve" smooth="yes"/>
      <point x="387" y="276"/>
      <point x="454" y="366"/>
      <point x="454" y="477" type="curve" smooth="yes"/>
      <point x="454" y="506"/>
      <point x="449" y="535"/>
      <point x="443" y="555" type="curve"/>
      <point x="316" y="536" type="line"/>
      <point x="321" y="520"/>
      <point x="323" y="501"/>
      <point x="323" y="483" type="curve" smooth="yes"/>
      <point x="323" y="422"/>
      <point x="290" y="392"/>
      <point x="244" y="392" type="curve" smooth="yes"/>
      <point x="193" y="392"/>
      <point x="159" y="420"/>
      <point x="159" y="486" type="curve" smooth="yes"/>
      <point x="159" y="501"/>
      <point x="162" y="524"/>
      <point x="167" y="536" type="curve"/>
      <point x="39" y="555" type="line"/>
      <point x="33" y="534"/>
      <point x="28" y="506"/>
      <point x="28" y="477" type="curve" smooth="yes"/>
      <point x="28" y="366"/>
      <point x="96" y="276"/>
    </contour>
    <contour>
      <point x="242" y="416" type="curve" smooth="yes"/>
      <point x="275" y="416"/>
      <point x="295" y="441"/>
      <point x="295" y="481" type="curve" smooth="yes"/>
      <point x="295" y="520"/>
      <point x="271" y="543"/>
      <point x="242" y="543" type="curve" smooth="yes"/>
      <point x="209" y="543"/>
      <point x="187" y="520"/>
      <point x="187" y="481" type="curve" smooth="yes"/>
      <point x="187" y="441"/>
      <point x="209" y="416"/>
    </contour>
    <contour>
      <point x="425" y="89" type="line"/>
      <point x="218" y="266" type="line"/>
      <point x="131" y="158" type="line"/>
      <point x="342" y="-19" type="line"/>
    </contour>
  </outline>
</glyph>
